MaterialDesignIconsDesktop.ufo
<glyph name="access-point-network" format="2">
  <advance width="512"/>
  <unicode hex="F0002"/>
  <note>
access-point-network
</note>
  <outline>
    <contour>
      <point x="135" y="334" type="line"/>
      <point x="112" y="311"/>
      <point x="85" y="248"/>
      <point x="85" y="178"/>
      <point x="112" y="116"/>
      <point x="135" y="93" type="qcurve"/>
      <point x="105" y="63" type="line"/>
      <point x="76" y="92"/>
      <point x="43" y="170"/>
      <point x="43" y="257"/>
      <point x="76" y="335"/>
      <point x="105" y="364" type="qcurve"/>
    </contour>
    <contour>
      <point x="436" y="335"/>
      <point x="469" y="257"/>
      <point x="469" y="170"/>
      <point x="436" y="92"/>
      <point x="407" y="63" type="qcurve"/>
      <point x="377" y="93" type="line"/>
      <point x="400" y="116"/>
      <point x="427" y="178"/>
      <point x="427" y="248"/>
      <point x="400" y="311"/>
      <point x="377" y="334" type="qcurve"/>
      <point x="407" y="364" type="line"/>
    </contour>
    <contour>
      <point x="196" y="274" type="line"/>
      <point x="171" y="249"/>
      <point x="171" y="178"/>
      <point x="196" y="153" type="qcurve"/>
      <point x="166" y="123" type="line"/>
      <point x="148" y="141"/>
      <point x="128" y="187"/>
      <point x="128" y="239"/>
      <point x="148" y="286"/>
      <point x="166" y="304" type="qcurve"/>
    </contour>
    <contour>
      <point x="364" y="286"/>
      <point x="384" y="239"/>
      <point x="384" y="187"/>
      <point x="364" y="141"/>
      <point x="346" y="123" type="qcurve"/>
      <point x="316" y="153" type="line"/>
      <point x="341" y="178"/>
      <point x="341" y="249"/>
      <point x="316" y="274" type="qcurve"/>
      <point x="346" y="304" type="line"/>
    </contour>
    <contour>
      <point x="274" y="256"/>
      <point x="299" y="231"/>
      <point x="299" y="196"/>
      <point x="274" y="171"/>
      <point x="238" y="171"/>
      <point x="213" y="196"/>
      <point x="213" y="231"/>
      <point x="238" y="256"/>
      <point x="256" y="256" type="qcurve" smooth="yes"/>
    </contour>
    <contour>
      <point x="277" y="128" type="line"/>
      <point x="277" y="43" type="line"/>
      <point x="299" y="43" type="line" smooth="yes"/>
      <point x="308" y="43"/>
      <point x="320" y="30"/>
      <point x="320" y="21" type="qcurve"/>
      <point x="469" y="21" type="line"/>
      <point x="469" y="-21" type="line"/>
      <point x="320" y="-21" type="line"/>
      <point x="320" y="-30"/>
      <point x="308" y="-43"/>
      <point x="299" y="-43" type="qcurve" smooth="yes"/>
      <point x="213" y="-43" type="line" smooth="yes"/>
      <point x="204" y="-43"/>
      <point x="192" y="-30"/>
      <point x="192" y="-21" type="qcurve"/>
      <point x="43" y="-21" type="line"/>
      <point x="43" y="21" type="line"/>
      <point x="192" y="21" type="line"/>
      <point x="192" y="30"/>
      <point x="204" y="43"/>
      <point x="213" y="43" type="qcurve" smooth="yes"/>
      <point x="235" y="43" type="line"/>
      <point x="235" y="128" type="line"/>
    </contour>
  </outline>
</glyph>
<glyph name="access-point" format="2">
  <advance width="512"/>
  <unicode hex="F0003"/>
  <note>
access-point
</note>
  <outline>
    <contour>
      <point x="135" y="313" type="line"/>
      <point x="112" y="289"/>
      <point x="85" y="227"/>
      <point x="85" y="157"/>
      <point x="112" y="95"/>
      <point x="135" y="71" type="qcurve"/>
      <point x="105" y="41" type="line"/>
      <point x="76" y="71"/>
      <point x="43" y="149"/>
      <point x="43" y="235"/>
      <point x="76" y="313"/>
      <point x="105" y="343" type="qcurve"/>
    </contour>
    <contour>
      <point x="436" y="313"/>
      <point x="469" y="235"/>
      <point x="469" y="149"/>
      <point x="436" y="71"/>
      <point x="407" y="41" type="qcurve"/>
      <point x="377" y="71" type="line"/>
      <point x="400" y="95"/>
      <point x="427" y="157"/>
      <point x="427" y="227"/>
      <point x="400" y="289"/>
      <point x="377" y="313" type="qcurve"/>
      <point x="407" y="343" type="line"/>
    </contour>
    <contour>
      <point x="196" y="252" type="line"/>
      <point x="171" y="227"/>
      <point x="171" y="157"/>
      <point x="196" y="132" type="qcurve"/>
      <point x="166" y="102" type="line"/>
      <point x="148" y="119"/>
      <point x="128" y="166"/>
      <point x="128" y="218"/>
      <point x="148" y="265"/>
      <point x="166" y="282" type="qcurve"/>
    </contour>
    <contour>
      <point x="364" y="265"/>
      <point x="384" y="218"/>
      <point x="384" y="166"/>
      <point x="364" y="119"/>
      <point x="346" y="102" type="qcurve"/>
      <point x="316" y="132" type="line"/>
      <point x="341" y="157"/>
      <point x="341" y="227"/>
      <point x="316" y="252" type="qcurve"/>
      <point x="346" y="282" type="line"/>
    </contour>
    <contour>
      <point x="274" y="235"/>
      <point x="299" y="210"/>
      <point x="299" y="174"/>
      <point x="274" y="149"/>
      <point x="238" y="149"/>
      <point x="213" y="174"/>
      <point x="213" y="210"/>
      <point x="238" y="235"/>
      <point x="256" y="235" type="qcurve" smooth="yes"/>
    </contour>
  </outline>
</glyph>
<glyph name="account" format="2">
  <advance width="512"/>
  <unicode hex="F0004"/>
  <note>
account
</note>
  <outline>
    <contour>
      <point x="221" y="363"/>
      <point x="171" y="313"/>
      <point x="171" y="242"/>
      <point x="221" y="192"/>
      <point x="291" y="192"/>
      <point x="341" y="242"/>
      <point x="341" y="313"/>
      <point x="291" y="363"/>
      <point x="256" y="363" type="qcurve" smooth="yes"/>
    </contour>
    <contour>
      <point x="210" y="149"/>
      <point x="131" y="126"/>
      <point x="85" y="87"/>
      <point x="85" y="64" type="qcurve" smooth="yes"/>
      <point x="85" y="21" type="line"/>
      <point x="427" y="21" type="line"/>
      <point x="427" y="64" type="line" smooth="yes"/>
      <point x="427" y="87"/>
      <point x="381" y="126"/>
      <point x="302" y="149"/>
      <point x="256" y="149" type="qcurve" smooth="yes"/>
    </contour>
  </outline>
</glyph>
<glyph name="account-alert" format="2">
  <advance width="512"/>
  <unicode hex="F0005"/>
  <note>
account-alert
</note>
  <outline>
    <contour>
      <point x="178" y="363"/>
      <point x="128" y="313"/>
      <point x="128" y="242"/>
      <point x="178" y="192"/>
      <point x="249" y="192"/>
      <point x="299" y="242"/>
      <point x="299" y="313"/>
      <point x="249" y="363"/>
      <point x="213" y="363" type="qcurve" smooth="yes"/>
    </contour>
    <contour>
      <point x="167" y="149"/>
      <point x="89" y="126"/>
      <point x="43" y="87"/>
      <point x="43" y="64" type="qcurve" smooth="yes"/>
      <point x="43" y="21" type="line"/>
      <point x="384" y="21" type="line"/>
      <point x="384" y="64" type="line" smooth="yes"/>
      <point x="384" y="87"/>
      <point x="338" y="126"/>
      <point x="260" y="149"/>
      <point x="213" y="149" type="qcurve" smooth="yes"/>
    </contour>
    <contour>
      <point x="427" y="171" type="line"/>
      <point x="469" y="171" type="line"/>
      <point x="469" y="299" type="line"/>
      <point x="427" y="299" type="line"/>
      <point x="427" y="192" type="line"/>
    </contour>
    <contour>
      <point x="469" y="85" type="line"/>
      <point x="469" y="128" type="line"/>
      <point x="427" y="128" type="line"/>
      <point x="427" y="85" type="line"/>
    </contour>
  </outline>
</glyph>
<glyph name="account-box" format="2">
  <advance width="512"/>
  <unicode hex="F0006"/>
  <note>
account-box
</note>
  <outline>
    <contour>
      <point x="128" y="64" type="line"/>
      <point x="384" y="64" type="line"/>
      <point x="384" y="85" type="line" smooth="yes"/>
      <point x="384" y="105"/>
      <point x="360" y="121" type="qcurve" smooth="yes"/>
      <point x="340" y="135"/>
      <point x="308" y="144" type="qcurve" smooth="yes"/>
      <point x="279" y="151"/>
      <point x="233" y="151"/>
      <point x="204" y="144" type="qcurve" smooth="yes"/>
      <point x="172" y="135"/>
      <point x="152" y="121" type="qcurve" smooth="yes"/>
      <point x="128" y="105"/>
      <point x="128" y="85" type="qcurve" smooth="yes"/>
    </contour>
    <contour>
      <point x="320" y="283"/>
      <point x="283" y="320"/>
      <point x="229" y="320"/>
      <point x="192" y="283"/>
      <point x="192" y="229"/>
      <point x="229" y="192"/>
      <point x="283" y="192"/>
      <point x="320" y="229"/>
      <point x="320" y="256" type="qcurve" smooth="yes"/>
    </contour>
    <contour>
      <point x="64" y="359"/>
      <point x="89" y="384"/>
      <point x="107" y="384" type="qcurve" smooth="yes"/>
      <point x="405" y="384" type="line" smooth="yes"/>
      <point x="423" y="384"/>
      <point x="448" y="359"/>
      <point x="448" y="341" type="qcurve" smooth="yes"/>
      <point x="448" y="43" type="line" smooth="yes"/>
      <point x="448" y="25"/>
      <point x="423" y="0"/>
      <point x="405" y="0" type="qcurve" smooth="yes"/>
      <point x="107" y="0" type="line" smooth="yes"/>
      <point x="89" y="0"/>
      <point x="64" y="25"/>
      <point x="64" y="43" type="qcurve" smooth="yes"/>
      <point x="64" y="341" type="line" smooth="yes"/>
    </contour>
  </outline>
</glyph>
<glyph name="account-box-outline" format="2">
  <advance width="512"/>
  <unicode hex="F0007"/>
  <note>
account-box-outline
</note>
  <outline>
    <contour>
      <point x="405" y="341" type="line"/>
      <point x="107" y="341" type="line"/>
      <point x="107" y="43" type="line"/>
      <point x="405" y="43" type="line"/>
    </contour>
    <contour>
      <point x="423" y="384"/>
      <point x="448" y="359"/>
      <point x="448" y="341" type="qcurve" smooth="yes"/>
      <point x="448" y="43" type="line" smooth="yes"/>
      <point x="448" y="25"/>
      <point x="423" y="0"/>
      <point x="405" y="0" type="qcurve" smooth="yes"/>
      <point x="107" y="0" type="line" smooth="yes"/>
      <point x="89" y="0"/>
      <point x="64" y="25"/>
      <point x="64" y="43" type="qcurve" smooth="yes"/>
      <point x="64" y="341" type="line" smooth="yes"/>
      <point x="64" y="359"/>
      <point x="89" y="384"/>
      <point x="107" y="384" type="qcurve" smooth="yes"/>
      <point x="405" y="384" type="line" smooth="yes"/>
    </contour>
    <contour>
      <point x="352" y="85" type="line"/>
      <point x="160" y="85" type="line"/>
      <point x="160" y="101" type="line" smooth="yes"/>
      <point x="160" y="116"/>
      <point x="178" y="128" type="qcurve" smooth="yes"/>
      <point x="193" y="138"/>
      <point x="217" y="144" type="qcurve" smooth="yes"/>
      <point x="238" y="149"/>
      <point x="274" y="149"/>
      <point x="295" y="144" type="qcurve" smooth="yes"/>
      <point x="319" y="138"/>
      <point x="334" y="128" type="qcurve" smooth="yes"/>
      <point x="352" y="116"/>
      <point x="352" y="101" type="qcurve" smooth="yes"/>
    </contour>
    <contour>
      <point x="236" y="187"/>
      <point x="208" y="215"/>
      <point x="208" y="255"/>
      <point x="236" y="283"/>
      <point x="276" y="283"/>
      <point x="304" y="255"/>
      <point x="304" y="215"/>
      <point x="276" y="187"/>
      <point x="256" y="187" type="qcurve" smooth="yes"/>
    </contour>
  </outline>
</glyph>
<glyph name="account-check" format="2">
  <advance width="512"/>
  <unicode hex="F0008"/>
  <note>
account-check
</note>
  <outline>
    <contour>
      <point x="341" y="71" type="line"/>
      <point x="297" y="115" type="line"/>
      <point x="267" y="85" type="line"/>
      <point x="341" y="11" type="line"/>
      <point x="480" y="151" type="line"/>
      <point x="450" y="181" type="line"/>
    </contour>
    <contour>
      <point x="275" y="147" type="line"/>
      <point x="235" y="149" type="line" smooth="yes"/>
      <point x="188" y="149"/>
      <point x="110" y="126"/>
      <point x="64" y="87"/>
      <point x="64" y="64" type="qcurve" smooth="yes"/>
      <point x="64" y="21" type="line"/>
      <point x="277" y="21" type="line"/>
      <point x="213" y="85" type="line"/>
    </contour>
    <contour>
      <point x="199" y="363"/>
      <point x="149" y="313"/>
      <point x="149" y="242"/>
      <point x="199" y="192"/>
      <point x="270" y="192"/>
      <point x="320" y="242"/>
      <point x="320" y="313"/>
      <point x="270" y="363"/>
      <point x="235" y="363" type="qcurve" smooth="yes"/>
    </contour>
  </outline>
</glyph>
<glyph name="account-circle" format="2">
  <advance width="512"/>
  <unicode hex="F0009"/>
  <note>
account-circle
</note>
  <outline>
    <contour>
      <point x="295" y="38"/>
      <point x="363" y="75"/>
      <point x="384" y="107" type="qcurve"/>
      <point x="384" y="126"/>
      <point x="360" y="143" type="qcurve" smooth="yes"/>
      <point x="340" y="157"/>
      <point x="308" y="165" type="qcurve" smooth="yes"/>
      <point x="279" y="173"/>
      <point x="233" y="173"/>
      <point x="204" y="165" type="qcurve" smooth="yes"/>
      <point x="172" y="157"/>
      <point x="152" y="143" type="qcurve" smooth="yes"/>
      <point x="128" y="126"/>
      <point x="128" y="107" type="qcurve"/>
      <point x="149" y="75"/>
      <point x="217" y="38"/>
      <point x="256" y="38" type="qcurve" smooth="yes"/>
    </contour>
    <contour>
      <point x="229" y="341"/>
      <point x="192" y="304"/>
      <point x="192" y="251"/>
      <point x="229" y="213"/>
      <point x="283" y="213"/>
      <point x="320" y="251"/>
      <point x="320" y="304"/>
      <point x="283" y="341"/>
      <point x="256" y="341" type="qcurve" smooth="yes"/>
    </contour>
    <contour>
      <point x="314" y="405"/>
      <point x="412" y="348"/>
      <point x="469" y="250"/>
      <point x="469" y="192" type="qcurve" smooth="yes"/>
      <point x="469" y="150"/>
      <point x="437" y="71"/>
      <point x="377" y="11"/>
      <point x="298" y="-21"/>
      <point x="214" y="-21"/>
      <point x="135" y="11"/>
      <point x="75" y="71"/>
      <point x="43" y="150"/>
      <point x="43" y="234"/>
      <point x="75" y="313"/>
      <point x="135" y="373"/>
      <point x="214" y="405"/>
      <point x="256" y="405" type="qcurve" smooth="yes"/>
    </contour>
  </outline>
</glyph>
<glyph name="account-convert" format="2">
  <advance width="512"/>
  <unicode hex="F000A"/>
  <note>
account-convert
</note>
  <outline>
    <contour>
      <point x="322" y="448"/>
      <point x="435" y="386"/>
      <point x="506" y="278"/>
      <point x="511" y="213" type="qcurve"/>
      <point x="479" y="213" type="line"/>
      <point x="473" y="273"/>
      <point x="405" y="369"/>
      <point x="352" y="395" type="qcurve"/>
      <point x="323" y="366" type="line"/>
      <point x="242" y="447" type="line"/>
      <point x="256" y="448" type="line" smooth="yes"/>
    </contour>
    <contour>
      <point x="287" y="363"/>
      <point x="331" y="319"/>
      <point x="331" y="257"/>
      <point x="287" y="213"/>
      <point x="225" y="213"/>
      <point x="181" y="257"/>
      <point x="181" y="319"/>
      <point x="225" y="363"/>
      <point x="256" y="363" type="qcurve" smooth="yes"/>
    </contour>
    <contour>
      <point x="33" y="171" type="line"/>
      <point x="39" y="111"/>
      <point x="107" y="15"/>
      <point x="160" y="-11" type="qcurve"/>
      <point x="189" y="18" type="line"/>
      <point x="270" y="-63" type="line"/>
      <point x="256" y="-64" type="line" smooth="yes"/>
      <point x="190" y="-64"/>
      <point x="77" y="-2"/>
      <point x="6" y="106"/>
      <point x="1" y="171" type="qcurve"/>
    </contour>
    <contour>
      <point x="297" y="171"/>
      <point x="365" y="151"/>
      <point x="405" y="116"/>
      <point x="405" y="96" type="qcurve" smooth="yes"/>
      <point x="405" y="64" type="line"/>
      <point x="107" y="64" type="line"/>
      <point x="107" y="96" type="line" smooth="yes"/>
      <point x="107" y="116"/>
      <point x="147" y="151"/>
      <point x="215" y="171"/>
      <point x="256" y="171" type="qcurve" smooth="yes"/>
    </contour>
  </outline>
</glyph>
<glyph name="account-key" format="2">
  <advance width="512"/>
  <unicode hex="F000B"/>
  <note>
account-key
</note>
  <outline>
    <contour>
      <point x="124" y="235" type="line"/>
      <point x="117" y="254"/>
      <point x="85" y="277"/>
      <point x="64" y="277" type="qcurve" smooth="yes"/>
      <point x="37" y="277"/>
      <point x="0" y="241"/>
      <point x="0" y="186"/>
      <point x="37" y="149"/>
      <point x="64" y="149" type="qcurve" smooth="yes"/>
      <point x="85" y="149"/>
      <point x="117" y="173"/>
      <point x="124" y="192" type="qcurve"/>
      <point x="149" y="192" type="line"/>
      <point x="149" y="149" type="line"/>
      <point x="192" y="149" type="line"/>
      <point x="192" y="192" type="line"/>
      <point x="235" y="192" type="line"/>
      <point x="235" y="235" type="line"/>
    </contour>
    <contour>
      <point x="74" y="235"/>
      <point x="85" y="223"/>
      <point x="85" y="204"/>
      <point x="74" y="192"/>
      <point x="54" y="192"/>
      <point x="43" y="204"/>
      <point x="43" y="223"/>
      <point x="54" y="235"/>
      <point x="64" y="235" type="qcurve" smooth="yes"/>
    </contour>
    <contour>
      <point x="309" y="149"/>
      <point x="271" y="140" type="qcurve" smooth="yes"/>
      <point x="229" y="129"/>
      <point x="202" y="112" type="qcurve" smooth="yes"/>
      <point x="171" y="91"/>
      <point x="171" y="64" type="qcurve" smooth="yes"/>
      <point x="171" y="21" type="line"/>
      <point x="512" y="21" type="line"/>
      <point x="512" y="64" type="line" smooth="yes"/>
      <point x="512" y="91"/>
      <point x="481" y="112" type="qcurve" smooth="yes"/>
      <point x="454" y="129"/>
      <point x="411" y="140" type="qcurve" smooth="yes"/>
      <point x="373" y="149"/>
      <point x="341" y="149" type="qcurve" smooth="yes"/>
    </contour>
    <contour>
      <point x="377" y="192"/>
      <point x="427" y="242"/>
      <point x="427" y="313"/>
      <point x="377" y="363"/>
      <point x="306" y="363"/>
      <point x="256" y="313"/>
      <point x="256" y="242"/>
      <point x="306" y="192"/>
      <point x="341" y="192" type="qcurve" smooth="yes"/>
    </contour>
  </outline>
</glyph>
<glyph name="tooltip-account" format="2">
  <advance width="512"/>
  <unicode hex="F000C"/>
  <note>
tooltip-account
</note>
  <outline>
    <contour>
      <point x="444" y="405"/>
      <point x="469" y="380"/>
      <point x="469" y="363" type="qcurve" smooth="yes"/>
      <point x="469" y="107" type="line" smooth="yes"/>
      <point x="469" y="89"/>
      <point x="444" y="64"/>
      <point x="427" y="64" type="qcurve" smooth="yes"/>
      <point x="341" y="64" type="line"/>
      <point x="256" y="-21" type="line"/>
      <point x="171" y="64" type="line"/>
      <point x="85" y="64" type="line" smooth="yes"/>
      <point x="68" y="64"/>
      <point x="43" y="89"/>
      <point x="43" y="107" type="qcurve" smooth="yes"/>
      <point x="43" y="363" type="line" smooth="yes"/>
      <point x="43" y="380"/>
      <point x="68" y="405"/>
      <point x="85" y="405" type="qcurve" smooth="yes"/>
      <point x="427" y="405" type="line" smooth="yes"/>
    </contour>
    <contour>
      <point x="232" y="356"/>
      <point x="198" y="323"/>
      <point x="198" y="275"/>
      <point x="232" y="241"/>
      <point x="280" y="241"/>
      <point x="314" y="275"/>
      <point x="314" y="323"/>
      <point x="280" y="356"/>
      <point x="256" y="356" type="qcurve" smooth="yes"/>
    </contour>
    <contour>
      <point x="384" y="147" type="line" smooth="yes"/>
      <point x="384" y="167"/>
      <point x="360" y="183" type="qcurve" smooth="yes"/>
      <point x="340" y="197"/>
      <point x="308" y="206" type="qcurve" smooth="yes"/>
      <point x="279" y="213"/>
      <point x="233" y="213"/>
      <point x="204" y="206" type="qcurve" smooth="yes"/>
      <point x="172" y="197"/>
      <point x="152" y="183" type="qcurve" smooth="yes"/>
      <point x="128" y="167"/>
      <point x="128" y="147" type="qcurve" smooth="yes"/>
      <point x="128" y="128" type="line"/>
      <point x="384" y="128" type="line"/>
    </contour>
  </outline>
</glyph>
<glyph name="account-multiple" format="2">
  <advance width="512"/>
  <unicode hex="F000E"/>
  <note>
account-multiple
</note>
  <outline>
    <contour>
      <point x="341" y="85" type="line"/>
      <point x="341" y="95"/>
      <point x="336" y="107" type="qcurve" smooth="yes"/>
      <point x="325" y="133"/>
      <point x="297" y="149" type="qcurve" smooth="yes"/>
      <point x="258" y="171"/>
      <point x="192" y="171" type="qcurve" smooth="yes"/>
      <point x="150" y="171"/>
      <point x="119" y="162" type="qcurve" smooth="yes"/>
      <point x="93" y="154"/>
      <point x="75" y="141" type="qcurve" smooth="yes"/>
      <point x="61" y="130"/>
      <point x="52" y="115" type="qcurve" smooth="yes"/>
      <point x="46" y="105"/>
      <point x="44" y="94" type="qcurve" smooth="yes"/>
      <point x="43" y="85" type="line"/>
      <point x="43" y="43" type="line"/>
      <point x="341" y="43" type="line"/>
      <point x="341" y="85" type="line"/>
    </contour>
    <contour>
      <point x="267" y="257"/>
      <point x="223" y="213"/>
      <point x="192" y="213" type="qcurve" smooth="yes"/>
      <point x="169" y="213"/>
      <point x="132" y="239"/>
      <point x="114" y="280"/>
      <point x="123" y="325"/>
      <point x="155" y="357"/>
      <point x="200" y="366"/>
      <point x="241" y="348"/>
      <point x="267" y="311"/>
      <point x="267" y="288" type="qcurve" smooth="yes"/>
    </contour>
    <contour>
      <point x="376" y="168"/>
      <point x="403" y="159" type="qcurve" smooth="yes"/>
      <point x="426" y="151"/>
      <point x="441" y="137" type="qcurve" smooth="yes"/>
      <point x="454" y="127"/>
      <point x="461" y="113" type="qcurve" smooth="yes"/>
      <point x="466" y="103"/>
      <point x="468" y="93" type="qcurve" smooth="yes"/>
      <point x="469" y="85" type="line"/>
      <point x="469" y="43" type="line"/>
      <point x="384" y="43" type="line"/>
      <point x="384" y="85" type="line" smooth="yes"/>
      <point x="383" y="110"/>
      <point x="360" y="155"/>
      <point x="340" y="171" type="qcurve"/>
    </contour>
    <contour>
      <point x="351" y="363"/>
      <point x="395" y="319"/>
      <point x="395" y="257"/>
      <point x="351" y="213"/>
      <point x="320" y="213" type="qcurve" smooth="yes"/>
      <point x="297" y="213"/>
      <point x="279" y="226" type="qcurve"/>
      <point x="299" y="254"/>
      <point x="299" y="322"/>
      <point x="279" y="350" type="qcurve"/>
      <point x="297" y="363"/>
      <point x="320" y="363" type="qcurve" smooth="yes"/>
    </contour>
  </outline>
</glyph>
<glyph name="account-multiple-outline" format="2">
  <advance width="512"/>
  <unicode hex="F000F"/>
  <note>
account-multiple-outline
</note>
  <outline>
    <contour>
      <point x="297" y="213"/>
      <point x="320" y="213" type="qcurve" smooth="yes"/>
      <point x="351" y="213"/>
      <point x="395" y="257"/>
      <point x="395" y="319"/>
      <point x="351" y="363"/>
      <point x="320" y="363" type="qcurve" smooth="yes"/>
      <point x="297" y="363"/>
      <point x="279" y="350" type="qcurve"/>
      <point x="299" y="322"/>
      <point x="299" y="254"/>
      <point x="279" y="226" type="qcurve"/>
    </contour>
    <contour>
      <point x="117" y="257"/>
      <point x="161" y="213"/>
      <point x="192" y="213" type="qcurve" smooth="yes"/>
      <point x="215" y="213"/>
      <point x="252" y="239"/>
      <point x="270" y="280"/>
      <point x="261" y="325"/>
      <point x="229" y="357"/>
      <point x="184" y="366"/>
      <point x="143" y="348"/>
      <point x="117" y="311"/>
      <point x="117" y="288" type="qcurve" smooth="yes"/>
    </contour>
    <contour>
      <point x="160" y="301"/>
      <point x="179" y="320"/>
      <point x="205" y="320"/>
      <point x="224" y="301"/>
      <point x="224" y="275"/>
      <point x="205" y="256"/>
      <point x="179" y="256"/>
      <point x="160" y="275"/>
      <point x="160" y="288" type="qcurve" smooth="yes"/>
    </contour>
    <contour>
      <point x="341" y="85" type="line"/>
      <point x="341" y="95"/>
      <point x="336" y="107" type="qcurve" smooth="yes"/>
      <point x="325" y="133"/>
      <point x="297" y="149" type="qcurve" smooth="yes"/>
      <point x="258" y="171"/>
      <point x="192" y="171" type="qcurve" smooth="yes"/>
      <point x="150" y="171"/>
      <point x="119" y="162" type="qcurve" smooth="yes"/>
      <point x="93" y="154"/>
      <point x="75" y="141" type="qcurve" smooth="yes"/>
      <point x="61" y="130"/>
      <point x="52" y="115" type="qcurve" smooth="yes"/>
      <point x="46" y="105"/>
      <point x="44" y="94" type="qcurve" smooth="yes"/>
      <point x="43" y="85" type="line"/>
      <point x="43" y="43" type="line"/>
      <point x="341" y="43" type="line"/>
      <point x="341" y="85" type="line"/>
    </contour>
    <contour>
      <point x="85" y="85" type="line"/>
      <point x="86" y="94"/>
      <point x="96" y="103" type="qcurve" smooth="yes"/>
      <point x="108" y="114"/>
      <point x="130" y="120" type="qcurve" smooth="yes"/>
      <point x="156" y="128"/>
      <point x="192" y="128" type="qcurve" smooth="yes"/>
      <point x="245" y="128"/>
      <point x="274" y="113" type="qcurve" smooth="yes"/>
      <point x="296" y="101"/>
      <point x="299" y="85" type="qcurve"/>
    </contour>
    <contour>
      <point x="376" y="168"/>
      <point x="403" y="159" type="qcurve" smooth="yes"/>
      <point x="426" y="151"/>
      <point x="441" y="137" type="qcurve" smooth="yes"/>
      <point x="454" y="127"/>
      <point x="461" y="113" type="qcurve" smooth="yes"/>
      <point x="466" y="103"/>
      <point x="468" y="93" type="qcurve" smooth="yes"/>
      <point x="469" y="85" type="line"/>
      <point x="469" y="43" type="line"/>
      <point x="384" y="43" type="line"/>
      <point x="384" y="85" type="line" smooth="yes"/>
      <point x="383" y="110"/>
      <point x="360" y="155"/>
      <point x="340" y="171" type="qcurve"/>
    </contour>
  </outline>
</glyph>
<glyph name="account-multiple-plus" format="2">
  <advance width="512"/>
  <unicode hex="F0010"/>
  <note>
account-multiple-plus
</note>
  <outline>
    <contour>
      <point x="405" y="85" type="line"/>
      <point x="405" y="95"/>
      <point x="401" y="107" type="qcurve" smooth="yes"/>
      <point x="391" y="133"/>
      <point x="367" y="149" type="qcurve" smooth="yes"/>
      <point x="334" y="171"/>
      <point x="277" y="171" type="qcurve" smooth="yes"/>
      <point x="241" y="171"/>
      <point x="215" y="162" type="qcurve" smooth="yes"/>
      <point x="192" y="154"/>
      <point x="177" y="141" type="qcurve" smooth="yes"/>
      <point x="165" y="130"/>
      <point x="158" y="115" type="qcurve" smooth="yes"/>
      <point x="152" y="105"/>
      <point x="150" y="94" type="qcurve" smooth="yes"/>
      <point x="149" y="85" type="line"/>
      <point x="149" y="43" type="line"/>
      <point x="405" y="43" type="line"/>
      <point x="405" y="85" type="line"/>
    </contour>
    <contour>
      <point x="341" y="251"/>
      <point x="304" y="213"/>
      <point x="251" y="213"/>
      <point x="213" y="251"/>
      <point x="213" y="304"/>
      <point x="251" y="341"/>
      <point x="304" y="341"/>
      <point x="341" y="304"/>
      <point x="341" y="277" type="qcurve" smooth="yes"/>
    </contour>
    <contour>
      <point x="445" y="166"/>
      <point x="469" y="152" type="qcurve" smooth="yes"/>
      <point x="488" y="141"/>
      <point x="499" y="123" type="qcurve" smooth="yes"/>
      <point x="507" y="111"/>
      <point x="510" y="97" type="qcurve" smooth="yes"/>
      <point x="512" y="85" type="line"/>
      <point x="512" y="43" type="line"/>
      <point x="448" y="43" type="line"/>
      <point x="448" y="85" type="line" smooth="yes"/>
      <point x="447" y="109"/>
      <point x="427" y="153"/>
      <point x="410" y="169" type="qcurve"/>
    </contour>
    <contour>
      <point x="411" y="341"/>
      <point x="448" y="304"/>
      <point x="448" y="251"/>
      <point x="411" y="213"/>
      <point x="384" y="213" type="qcurve" smooth="yes"/>
      <point x="374" y="213"/>
      <point x="365" y="216" type="qcurve"/>
      <point x="384" y="244"/>
      <point x="384" y="311"/>
      <point x="365" y="338" type="qcurve"/>
      <point x="374" y="341"/>
      <point x="384" y="341" type="qcurve" smooth="yes"/>
    </contour>
    <contour>
      <point x="171" y="192" type="line"/>
      <point x="107" y="192" type="line"/>
      <point x="107" y="128" type="line"/>
      <point x="64" y="128" type="line"/>
      <point x="64" y="192" type="line"/>
      <point x="0" y="192" type="line"/>
      <point x="0" y="235" type="line"/>
      <point x="64" y="235" type="line"/>
      <point x="64" y="299" type="line"/>
      <point x="107" y="299" type="line"/>
      <point x="107" y="235" type="line"/>
      <point x="171" y="235" type="line"/>
    </contour>
  </outline>
</glyph>
<glyph name="account-network" format="2">
  <advance width="512"/>
  <unicode hex="F0011"/>
  <note>
account-network
</note>
  <outline>
    <contour>
      <point x="405" y="85" type="line"/>
      <point x="405" y="117" type="line" smooth="yes"/>
      <point x="405" y="138"/>
      <point x="365" y="172"/>
      <point x="297" y="192"/>
      <point x="215" y="192"/>
      <point x="147" y="172"/>
      <point x="107" y="138"/>
      <point x="107" y="117" type="qcurve" smooth="yes"/>
      <point x="107" y="85" type="line"/>
      <point x="235" y="85" type="line"/>
      <point x="235" y="43" type="line"/>
      <point x="213" y="43" type="line" smooth="yes"/>
      <point x="204" y="43"/>
      <point x="192" y="30"/>
      <point x="192" y="21" type="qcurve"/>
      <point x="43" y="21" type="line"/>
      <point x="43" y="-21" type="line"/>
      <point x="192" y="-21" type="line"/>
      <point x="192" y="-30"/>
      <point x="204" y="-43"/>
      <point x="213" y="-43" type="qcurve" smooth="yes"/>
      <point x="299" y="-43" type="line" smooth="yes"/>
      <point x="308" y="-43"/>
      <point x="320" y="-30"/>
      <point x="320" y="-21" type="qcurve"/>
      <point x="469" y="-21" type="line"/>
      <point x="469" y="21" type="line"/>
      <point x="320" y="21" type="line"/>
      <point x="320" y="30"/>
      <point x="308" y="43"/>
      <point x="299" y="43" type="qcurve" smooth="yes"/>
      <point x="277" y="43" type="line"/>
      <point x="277" y="85" type="line"/>
    </contour>
    <contour>
      <point x="225" y="384"/>
      <point x="181" y="340"/>
      <point x="181" y="278"/>
      <point x="225" y="235"/>
      <point x="287" y="235"/>
      <point x="331" y="278"/>
      <point x="331" y="340"/>
      <point x="287" y="384"/>
      <point x="256" y="384" type="qcurve" smooth="yes"/>
    </contour>
  </outline>
</glyph>
<glyph name="account-off" format="2">
  <advance width="512"/>
  <unicode hex="F0012"/>
  <note>
account-off
</note>
  <outline>
    <contour>
      <point x="225" y="363"/>
      <point x="178" y="323"/>
      <point x="172" y="293" type="qcurve"/>
      <point x="272" y="193" type="line"/>
      <point x="302" y="199"/>
      <point x="341" y="246"/>
      <point x="341" y="277" type="qcurve" smooth="yes"/>
      <point x="341" y="313"/>
      <point x="291" y="363"/>
      <point x="256" y="363" type="qcurve" smooth="yes"/>
    </contour>
    <contour>
      <point x="86" y="325" type="line"/>
      <point x="59" y="298" type="line"/>
      <point x="211" y="146" type="line"/>
      <point x="156" y="139"/>
      <point x="85" y="93"/>
      <point x="85" y="64" type="qcurve" smooth="yes"/>
      <point x="85" y="21" type="line"/>
      <point x="336" y="21" type="line"/>
      <point x="400" y="-43" type="line"/>
      <point x="427" y="-15" type="line"/>
      <point x="390" y="21" type="line"/>
      <point x="262" y="149" type="line"/>
    </contour>
    <contour>
      <point x="427" y="90"/>
      <point x="369" y="133"/>
      <point x="323" y="143" type="qcurve"/>
      <point x="427" y="39" type="line"/>
      <point x="427" y="64" type="line" smooth="yes"/>
    </contour>
  </outline>
</glyph>
<glyph name="account-plus" format="2">
  <advance width="512"/>
  <unicode hex="F0014"/>
  <note>
account-plus
</note>
  <outline>
    <contour>
      <point x="352" y="149"/>
      <point x="390" y="140" type="qcurve" smooth="yes"/>
      <point x="433" y="129"/>
      <point x="459" y="111" type="qcurve" smooth="yes"/>
      <point x="491" y="90"/>
      <point x="491" y="64" type="qcurve" smooth="yes"/>
      <point x="491" y="21" type="line"/>
      <point x="149" y="21" type="line"/>
      <point x="149" y="64" type="line" smooth="yes"/>
      <point x="149" y="90"/>
      <point x="181" y="111" type="qcurve" smooth="yes"/>
      <point x="207" y="129"/>
      <point x="250" y="140" type="qcurve" smooth="yes"/>
      <point x="288" y="149"/>
      <point x="320" y="149" type="qcurve" smooth="yes"/>
    </contour>
    <contour>
      <point x="192" y="235" type="line"/>
      <point x="192" y="192" type="line"/>
      <point x="128" y="192" type="line"/>
      <point x="128" y="128" type="line"/>
      <point x="85" y="128" type="line"/>
      <point x="85" y="192" type="line"/>
      <point x="21" y="192" type="line"/>
      <point x="21" y="235" type="line"/>
      <point x="85" y="235" type="line"/>
      <point x="85" y="299" type="line"/>
      <point x="128" y="299" type="line"/>
      <point x="128" y="235" type="line"/>
    </contour>
    <contour>
      <point x="285" y="192"/>
      <point x="235" y="242"/>
      <point x="235" y="313"/>
      <point x="285" y="363"/>
      <point x="355" y="363"/>
      <point x="405" y="313"/>
      <point x="405" y="242"/>
      <point x="355" y="192"/>
      <point x="320" y="192" type="qcurve" smooth="yes"/>
    </contour>
  </outline>
</glyph>
<glyph name="account-remove" format="2">
  <advance width="512"/>
  <unicode hex="F0015"/>
  <note>
account-remove
</note>
  <outline>
    <contour>
      <point x="288" y="149"/>
      <point x="250" y="140" type="qcurve" smooth="yes"/>
      <point x="207" y="129"/>
      <point x="181" y="111" type="qcurve" smooth="yes"/>
      <point x="149" y="90"/>
      <point x="149" y="64" type="qcurve" smooth="yes"/>
      <point x="149" y="21" type="line"/>
      <point x="491" y="21" type="line"/>
      <point x="491" y="64" type="line" smooth="yes"/>
      <point x="491" y="90"/>
      <point x="459" y="111" type="qcurve" smooth="yes"/>
      <point x="433" y="129"/>
      <point x="390" y="140" type="qcurve" smooth="yes"/>
      <point x="352" y="149"/>
      <point x="320" y="149" type="qcurve" smooth="yes"/>
    </contour>
    <contour>
      <point x="355" y="192"/>
      <point x="405" y="242"/>
      <point x="405" y="313"/>
      <point x="355" y="363"/>
      <point x="285" y="363"/>
      <point x="235" y="313"/>
      <point x="235" y="242"/>
      <point x="285" y="192"/>
      <point x="320" y="192" type="qcurve" smooth="yes"/>
    </contour>
    <contour>
      <point x="61" y="289" type="line"/>
      <point x="31" y="259" type="line"/>
      <point x="77" y="213" type="line"/>
      <point x="31" y="168" type="line"/>
      <point x="61" y="138" type="line"/>
      <point x="107" y="183" type="line"/>
      <point x="152" y="138" type="line"/>
      <point x="182" y="168" type="line"/>
      <point x="137" y="213" type="line"/>
      <point x="182" y="259" type="line"/>
      <point x="152" y="289" type="line"/>
      <point x="107" y="243" type="line"/>
    </contour>
  </outline>
</glyph>
<glyph name="account-search" format="2">
  <advance width="512"/>
  <unicode hex="F0016"/>
  <note>
account-search
</note>
  <outline>
    <contour>
      <point x="291" y="192"/>
      <point x="235" y="136"/>
      <point x="235" y="56"/>
      <point x="291" y="0"/>
      <point x="331" y="0" type="qcurve" smooth="yes"/>
      <point x="358" y="0"/>
      <point x="381" y="15" type="qcurve"/>
      <point x="448" y="-51" type="line"/>
      <point x="478" y="-21" type="line"/>
      <point x="412" y="45" type="line"/>
      <point x="427" y="68"/>
      <point x="427" y="96" type="qcurve" smooth="yes"/>
      <point x="427" y="136"/>
      <point x="371" y="192"/>
      <point x="331" y="192" type="qcurve" smooth="yes"/>
    </contour>
    <contour>
      <point x="353" y="149"/>
      <point x="384" y="118"/>
      <point x="384" y="74"/>
      <point x="353" y="43"/>
      <point x="309" y="43"/>
      <point x="277" y="74"/>
      <point x="277" y="118"/>
      <point x="309" y="149"/>
      <point x="331" y="149" type="qcurve" smooth="yes"/>
    </contour>
    <contour>
      <point x="178" y="363"/>
      <point x="128" y="313"/>
      <point x="128" y="242"/>
      <point x="178" y="192"/>
      <point x="213" y="192" type="qcurve"/>
      <point x="233" y="194" type="line"/>
      <point x="254" y="215"/>
      <point x="281" y="225" type="qcurve"/>
      <point x="299" y="249"/>
      <point x="299" y="277" type="qcurve" smooth="yes"/>
      <point x="299" y="313"/>
      <point x="249" y="363"/>
      <point x="213" y="363" type="qcurve" smooth="yes"/>
    </contour>
    <contour>
      <point x="213" y="21" type="line"/>
      <point x="192" y="56"/>
      <point x="192" y="96" type="qcurve" smooth="yes"/>
      <point x="192" y="123"/>
      <point x="203" y="149" type="qcurve"/>
      <point x="159" y="148"/>
      <point x="85" y="124"/>
      <point x="43" y="86"/>
      <point x="43" y="64" type="qcurve" smooth="yes"/>
      <point x="43" y="21" type="line"/>
    </contour>
  </outline>
</glyph>
<glyph name="account-star" format="2">
  <advance width="512"/>
  <unicode hex="F0017"/>
  <note>
account-star
</note>
  <outline>
    <contour>
      <point x="352" y="149"/>
      <point x="390" y="140" type="qcurve" smooth="yes"/>
      <point x="433" y="129"/>
      <point x="459" y="111" type="qcurve" smooth="yes"/>
      <point x="491" y="90"/>
      <point x="491" y="64" type="qcurve" smooth="yes"/>
      <point x="491" y="21" type="line"/>
      <point x="149" y="21" type="line"/>
      <point x="149" y="64" type="line" smooth="yes"/>
      <point x="149" y="90"/>
      <point x="181" y="111" type="qcurve" smooth="yes"/>
      <point x="207" y="129"/>
      <point x="250" y="140" type="qcurve" smooth="yes"/>
      <point x="288" y="149"/>
      <point x="320" y="149" type="qcurve" smooth="yes"/>
    </contour>
    <contour>
      <point x="285" y="192"/>
      <point x="235" y="242"/>
      <point x="235" y="313"/>
      <point x="285" y="363"/>
      <point x="355" y="363"/>
      <point x="405" y="313"/>
      <point x="405" y="242"/>
      <point x="355" y="192"/>
      <point x="320" y="192" type="qcurve" smooth="yes"/>
    </contour>
    <contour>
      <point x="53" y="133" type="line"/>
      <point x="68" y="193" type="line"/>
      <point x="21" y="233" type="line"/>
      <point x="83" y="238" type="line"/>
      <point x="107" y="295" type="line"/>
      <point x="130" y="238" type="line"/>
      <point x="192" y="233" type="line"/>
      <point x="145" y="193" type="line"/>
      <point x="159" y="133" type="line"/>
      <point x="107" y="165" type="line"/>
    </contour>
  </outline>
</glyph>
<glyph name="orbit" format="2">
  <advance width="512"/>
  <unicode hex="F0018"/>
  <note>
orbit
</note>
  <outline>
    <contour>
      <point x="188" y="396"/>
      <point x="196" y="374" type="qcurve"/>
      <point x="225" y="384"/>
      <point x="256" y="384" type="qcurve" smooth="yes"/>
      <point x="308" y="384"/>
      <point x="396" y="332"/>
      <point x="448" y="244"/>
      <point x="448" y="140"/>
      <point x="396" y="52"/>
      <point x="308" y="0"/>
      <point x="204" y="0"/>
      <point x="116" y="52"/>
      <point x="64" y="140"/>
      <point x="64" y="192" type="qcurve" smooth="yes"/>
      <point x="64" y="223"/>
      <point x="74" y="252" type="qcurve"/>
      <point x="52" y="260"/>
      <point x="37" y="276" type="qcurve"/>
      <point x="21" y="236"/>
      <point x="21" y="192" type="qcurve" smooth="yes"/>
      <point x="21" y="128"/>
      <point x="84" y="20"/>
      <point x="192" y="-43"/>
      <point x="320" y="-43"/>
      <point x="428" y="20"/>
      <point x="491" y="128"/>
      <point x="491" y="256"/>
      <point x="428" y="364"/>
      <point x="320" y="427"/>
      <point x="256" y="427" type="qcurve" smooth="yes"/>
      <point x="211" y="427"/>
      <point x="173" y="411" type="qcurve"/>
    </contour>
    <contour>
      <point x="87" y="385"/>
      <point x="63" y="361"/>
      <point x="63" y="325"/>
      <point x="87" y="300"/>
      <point x="123" y="300"/>
      <point x="148" y="325"/>
      <point x="148" y="361"/>
      <point x="123" y="385"/>
      <point x="105" y="385" type="qcurve" smooth="yes"/>
    </contour>
    <contour>
      <point x="227" y="299"/>
      <point x="178" y="270"/>
      <point x="149" y="221"/>
      <point x="149" y="163"/>
      <point x="178" y="114"/>
      <point x="227" y="85"/>
      <point x="285" y="85"/>
      <point x="334" y="114"/>
      <point x="363" y="163"/>
      <point x="363" y="221"/>
      <point x="334" y="270"/>
      <point x="285" y="299"/>
      <point x="256" y="299" type="qcurve" smooth="yes"/>
    </contour>
  </outline>
</glyph>
<glyph name="account-switch" format="2">
  <advance width="512"/>
  <unicode hex="F0019"/>
  <note>
account-switch
</note>
  <outline>
    <contour>
      <point x="323" y="256"/>
      <point x="304" y="253" type="qcurve"/>
      <point x="312" y="245"/>
      <point x="317" y="239" type="qcurve" smooth="yes"/>
      <point x="328" y="225"/>
      <point x="334" y="207" type="qcurve" smooth="yes"/>
      <point x="339" y="194"/>
      <point x="340" y="181" type="qcurve" smooth="yes"/>
      <point x="341" y="171" type="line"/>
      <point x="341" y="128" type="line"/>
      <point x="469" y="128" type="line"/>
      <point x="469" y="171" type="line"/>
      <point x="468" y="180" type="line" smooth="yes"/>
      <point x="466" y="190"/>
      <point x="461" y="201" type="qcurve" smooth="yes"/>
      <point x="454" y="215"/>
      <point x="442" y="226" type="qcurve" smooth="yes"/>
      <point x="426" y="240"/>
      <point x="404" y="247" type="qcurve" smooth="yes"/>
      <point x="377" y="256"/>
      <point x="341" y="256" type="qcurve" smooth="yes"/>
    </contour>
    <contour>
      <point x="43" y="128" type="line"/>
      <point x="299" y="128" type="line"/>
      <point x="299" y="171" type="line"/>
      <point x="298" y="180" type="line" smooth="yes"/>
      <point x="296" y="190"/>
      <point x="290" y="201" type="qcurve" smooth="yes"/>
      <point x="283" y="215"/>
      <point x="271" y="226" type="qcurve" smooth="yes"/>
      <point x="256" y="240"/>
      <point x="233" y="247" type="qcurve" smooth="yes"/>
      <point x="207" y="256"/>
      <point x="135" y="256"/>
      <point x="108" y="247" type="qcurve" smooth="yes"/>
      <point x="86" y="240"/>
      <point x="70" y="226" type="qcurve" smooth="yes"/>
      <point x="58" y="215"/>
      <point x="51" y="201" type="qcurve" smooth="yes"/>
      <point x="46" y="190"/>
      <point x="44" y="180" type="qcurve" smooth="yes"/>
      <point x="43" y="175"/>
      <point x="43" y="171" type="qcurve" smooth="yes"/>
    </contour>
    <contour>
      <point x="128" y="21" type="line"/>
      <point x="192" y="-43" type="line"/>
      <point x="192" y="0" type="line"/>
      <point x="320" y="0" type="line"/>
      <point x="320" y="-43" type="line"/>
      <point x="384" y="21" type="line"/>
      <point x="320" y="85" type="line"/>
      <point x="320" y="43" type="line"/>
      <point x="192" y="43" type="line"/>
      <point x="192" y="85" type="line"/>
    </contour>
    <contour>
      <point x="197" y="427"/>
      <point x="235" y="389"/>
      <point x="235" y="336"/>
      <point x="197" y="299"/>
      <point x="144" y="299"/>
      <point x="107" y="336"/>
      <point x="107" y="389"/>
      <point x="144" y="427"/>
      <point x="171" y="427" type="qcurve" smooth="yes"/>
    </contour>
    <contour>
      <point x="368" y="427"/>
      <point x="405" y="389"/>
      <point x="405" y="336"/>
      <point x="368" y="299"/>
      <point x="315" y="299"/>
      <point x="277" y="336"/>
      <point x="277" y="389"/>
      <point x="315" y="427"/>
      <point x="341" y="427" type="qcurve" smooth="yes"/>
    </contour>
  </outline>
</glyph>
<glyph name="air-conditioner" format="2">
  <advance width="512"/>
  <unicode hex="F001B"/>
  <note>
air-conditioner
</note>
  <outline>
    <contour>
      <point x="111" y="411"/>
      <point x="107" y="386" type="qcurve" smooth="yes"/>
      <point x="104" y="365"/>
      <point x="137" y="338"/>
      <point x="184" y="347"/>
      <point x="210" y="326" type="qcurve"/>
      <point x="203" y="313"/>
      <point x="203" y="299" type="qcurve"/>
      <point x="166" y="293"/>
      <point x="114" y="257"/>
      <point x="102" y="207"/>
      <point x="121" y="183" type="qcurve" smooth="yes"/>
      <point x="143" y="153"/>
      <point x="168" y="150" type="qcurve" smooth="yes"/>
      <point x="189" y="147"/>
      <point x="216" y="180"/>
      <point x="207" y="227"/>
      <point x="229" y="253" type="qcurve"/>
      <point x="242" y="245"/>
      <point x="255" y="245" type="qcurve"/>
      <point x="261" y="209"/>
      <point x="298" y="157"/>
      <point x="347" y="145"/>
      <point x="371" y="163" type="qcurve" smooth="yes"/>
      <point x="401" y="186"/>
      <point x="405" y="211" type="qcurve" smooth="yes"/>
      <point x="408" y="232"/>
      <point x="375" y="259"/>
      <point x="328" y="250"/>
      <point x="302" y="272" type="qcurve"/>
      <point x="309" y="284"/>
      <point x="309" y="298" type="qcurve"/>
      <point x="346" y="304"/>
      <point x="398" y="341"/>
      <point x="410" y="390"/>
      <point x="391" y="414" type="qcurve" smooth="yes"/>
      <point x="369" y="444"/>
      <point x="344" y="448" type="qcurve" smooth="yes"/>
      <point x="323" y="451"/>
      <point x="296" y="418"/>
      <point x="305" y="370"/>
      <point x="283" y="345" type="qcurve"/>
      <point x="271" y="352"/>
      <point x="257" y="352" type="qcurve"/>
      <point x="251" y="389"/>
      <point x="214" y="440"/>
      <point x="165" y="453"/>
      <point x="141" y="434" type="qcurve" smooth="yes"/>
    </contour>
    <contour>
      <point x="89" y="107"/>
      <point x="64" y="82"/>
      <point x="64" y="64" type="qcurve" smooth="yes"/>
      <point x="64" y="-64" type="line"/>
      <point x="107" y="-64" type="line"/>
      <point x="107" y="-21" type="line"/>
      <point x="149" y="-21" type="line"/>
      <point x="149" y="-64" type="line"/>
      <point x="192" y="-64" type="line"/>
      <point x="192" y="64" type="line" smooth="yes"/>
      <point x="192" y="82"/>
      <point x="167" y="107"/>
      <point x="149" y="107" type="qcurve" smooth="yes"/>
      <point x="107" y="107" type="line" smooth="yes"/>
    </contour>
    <contour>
      <point x="149" y="64" type="line"/>
      <point x="149" y="21" type="line"/>
      <point x="107" y="21" type="line"/>
      <point x="107" y="64" type="line"/>
    </contour>
    <contour>
      <point x="213" y="-64" type="line"/>
      <point x="257" y="-64" type="line"/>
      <point x="320" y="107" type="line"/>
      <point x="276" y="107" type="line"/>
    </contour>
    <contour>
      <point x="366" y="107"/>
      <point x="341" y="82"/>
      <point x="341" y="64" type="qcurve" smooth="yes"/>
      <point x="341" y="-21" type="line" smooth="yes"/>
      <point x="341" y="-39"/>
      <point x="366" y="-64"/>
      <point x="384" y="-64" type="qcurve" smooth="yes"/>
      <point x="448" y="-64" type="line"/>
      <point x="448" y="-21" type="line"/>
      <point x="384" y="-21" type="line"/>
      <point x="384" y="64" type="line"/>
      <point x="448" y="64" type="line"/>
      <point x="448" y="107" type="line"/>
      <point x="384" y="107" type="line" smooth="yes"/>
    </contour>
  </outline>
</glyph>
<glyph name="airballoon" format="2">
  <advance width="512"/>
  <unicode hex="F001C"/>
  <note>
airballoon
</note>
  <outline>
    <contour>
      <point x="277" y="-43" type="line" smooth="yes"/>
      <point x="295" y="-43"/>
      <point x="320" y="-18"/>
      <point x="320" y="0" type="qcurve" smooth="yes"/>
      <point x="320" y="43" type="line"/>
      <point x="192" y="43" type="line"/>
      <point x="192" y="0" type="line" smooth="yes"/>
      <point x="192" y="-18"/>
      <point x="217" y="-43"/>
      <point x="235" y="-43" type="qcurve" smooth="yes"/>
    </contour>
    <contour>
      <point x="234" y="427"/>
      <point x="212" y="421" type="qcurve"/>
      <point x="193" y="396"/>
      <point x="171" y="308"/>
      <point x="171" y="256" type="qcurve" smooth="yes"/>
      <point x="171" y="222"/>
      <point x="176" y="184" type="qcurve" smooth="yes"/>
      <point x="181" y="153"/>
      <point x="192" y="107" type="qcurve"/>
      <point x="192" y="89"/>
      <point x="217" y="64"/>
      <point x="235" y="64" type="qcurve" smooth="yes"/>
      <point x="277" y="64" type="line" smooth="yes"/>
      <point x="295" y="64"/>
      <point x="320" y="89"/>
      <point x="320" y="107" type="qcurve"/>
      <point x="331" y="153"/>
      <point x="336" y="184" type="qcurve" smooth="yes"/>
      <point x="341" y="222"/>
      <point x="341" y="256" type="qcurve" smooth="yes"/>
      <point x="341" y="308"/>
      <point x="319" y="396"/>
      <point x="300" y="421" type="qcurve"/>
      <point x="278" y="427"/>
      <point x="256" y="427" type="qcurve" smooth="yes"/>
    </contour>
    <contour>
      <point x="427" y="325"/>
      <point x="400" y="359" type="qcurve" smooth="yes"/>
      <point x="377" y="387"/>
      <point x="330" y="410" type="qcurve"/>
      <point x="345" y="380"/>
      <point x="363" y="301"/>
      <point x="363" y="256" type="qcurve" smooth="yes"/>
      <point x="363" y="209"/>
      <point x="354" y="160" type="qcurve" smooth="yes"/>
      <point x="345" y="109"/>
      <point x="330" y="81" type="qcurve"/>
      <point x="357" y="94"/>
      <point x="380" y="129" type="qcurve" smooth="yes"/>
      <point x="402" y="161"/>
      <point x="427" y="243"/>
      <point x="427" y="277" type="qcurve" smooth="yes"/>
    </contour>
    <contour>
      <point x="85" y="243"/>
      <point x="110" y="161"/>
      <point x="132" y="129" type="qcurve" smooth="yes"/>
      <point x="155" y="94"/>
      <point x="182" y="81" type="qcurve"/>
      <point x="167" y="109"/>
      <point x="158" y="160" type="qcurve" smooth="yes"/>
      <point x="149" y="209"/>
      <point x="149" y="256" type="qcurve" smooth="yes"/>
      <point x="149" y="301"/>
      <point x="167" y="380"/>
      <point x="182" y="410" type="qcurve"/>
      <point x="135" y="387"/>
      <point x="112" y="359" type="qcurve" smooth="yes"/>
      <point x="85" y="325"/>
      <point x="85" y="277" type="qcurve" smooth="yes"/>
    </contour>
  </outline>
</glyph>
<glyph name="airplane" format="2">
  <advance width="512"/>
  <unicode hex="F001D"/>
  <note>
airplane
</note>
  <outline>
    <contour>
      <point x="430" y="374"/>
      <point x="402" y="374"/>
      <point x="393" y="365" type="qcurve" smooth="yes"/>
      <point x="310" y="282" type="line"/>
      <point x="114" y="327" type="line"/>
      <point x="84" y="297" type="line"/>
      <point x="243" y="213" type="line"/>
      <point x="160" y="131" type="line"/>
      <point x="107" y="139" type="line"/>
      <point x="84" y="116" type="line"/>
      <point x="152" y="78" type="line"/>
      <point x="190" y="10" type="line"/>
      <point x="212" y="33" type="line"/>
      <point x="205" y="85" type="line"/>
      <point x="288" y="169" type="line"/>
      <point x="371" y="10" type="line"/>
      <point x="401" y="40" type="line"/>
      <point x="356" y="236" type="line"/>
      <point x="439" y="319" type="line" smooth="yes"/>
      <point x="448" y="329"/>
      <point x="448" y="355"/>
      <point x="439" y="365" type="qcurve" smooth="yes"/>
    </contour>
  </outline>
</glyph>
<glyph name="airplane-off" format="2">
  <advance width="512"/>
  <unicode hex="F001E"/>
  <note>
airplane-off
</note>
  <outline>
    <contour>
      <point x="472" y="-10" type="line"/>
      <point x="51" y="411" type="line"/>
      <point x="24" y="384" type="line"/>
      <point x="97" y="310" type="line"/>
      <point x="84" y="297" type="line"/>
      <point x="141" y="267" type="line"/>
      <point x="218" y="189" type="line"/>
      <point x="160" y="131" type="line"/>
      <point x="107" y="139" type="line"/>
      <point x="84" y="116" type="line"/>
      <point x="152" y="78" type="line"/>
      <point x="190" y="10" type="line"/>
      <point x="212" y="33" type="line"/>
      <point x="205" y="85" type="line"/>
      <point x="263" y="144" type="line"/>
      <point x="341" y="66" type="line"/>
      <point x="371" y="10" type="line"/>
      <point x="384" y="23" type="line"/>
      <point x="445" y="-37" type="line"/>
    </contour>
    <contour>
      <point x="378" y="138" type="line"/>
      <point x="212" y="304" type="line"/>
      <point x="310" y="282" type="line"/>
      <point x="393" y="365" type="line" smooth="yes"/>
      <point x="402" y="374"/>
      <point x="429" y="374"/>
      <point x="448" y="355"/>
      <point x="448" y="329"/>
      <point x="439" y="319" type="qcurve" smooth="yes"/>
      <point x="356" y="236" type="line"/>
    </contour>
  </outline>
</glyph>
<glyph name="cast-variant" format="2">
  <advance width="512"/>
  <unicode hex="F001F"/>
  <note>
cast-variant
</note>
  <outline>
    <contour>
      <point x="256" y="107" type="line"/>
      <point x="384" y="-21" type="line"/>
      <point x="128" y="-21" type="line"/>
    </contour>
    <contour>
      <point x="466" y="384"/>
      <point x="491" y="359"/>
      <point x="491" y="341" type="qcurve" smooth="yes"/>
      <point x="491" y="85" type="line" smooth="yes"/>
      <point x="491" y="68"/>
      <point x="466" y="43"/>
      <point x="448" y="43" type="qcurve" smooth="yes"/>
      <point x="363" y="43" type="line"/>
      <point x="363" y="85" type="line"/>
      <point x="448" y="85" type="line"/>
      <point x="448" y="341" type="line"/>
      <point x="64" y="341" type="line"/>
      <point x="64" y="85" type="line"/>
      <point x="149" y="85" type="line"/>
      <point x="149" y="43" type="line"/>
      <point x="64" y="43" type="line" smooth="yes"/>
      <point x="46" y="43"/>
      <point x="21" y="68"/>
      <point x="21" y="85" type="qcurve" smooth="yes"/>
      <point x="21" y="341" type="line" smooth="yes"/>
      <point x="21" y="359"/>
      <point x="46" y="384"/>
      <point x="64" y="384" type="qcurve" smooth="yes"/>
      <point x="448" y="384" type="line" smooth="yes"/>
    </contour>
  </outline>
</glyph>
<glyph name="alarm" format="2">
  <advance width="512"/>
  <unicode hex="F0020"/>
  <note>
alarm
</note>
  <outline>
    <contour>
      <point x="297" y="21"/>
      <point x="365" y="62"/>
      <point x="405" y="130"/>
      <point x="405" y="211"/>
      <point x="365" y="280"/>
      <point x="297" y="320"/>
      <point x="215" y="320"/>
      <point x="147" y="280"/>
      <point x="107" y="211"/>
      <point x="107" y="130"/>
      <point x="147" y="62"/>
      <point x="215" y="21"/>
      <point x="256" y="21" type="qcurve" smooth="yes"/>
    </contour>
    <contour>
      <point x="308" y="363"/>
      <point x="396" y="311"/>
      <point x="448" y="223"/>
      <point x="448" y="119"/>
      <point x="396" y="30"/>
      <point x="308" y="-21"/>
      <point x="204" y="-21"/>
      <point x="116" y="30"/>
      <point x="64" y="119"/>
      <point x="64" y="223"/>
      <point x="116" y="311"/>
      <point x="204" y="363"/>
      <point x="256" y="363" type="qcurve" smooth="yes"/>
    </contour>
    <contour>
      <point x="267" y="165" type="line"/>
      <point x="352" y="115" type="line"/>
      <point x="336" y="89" type="line"/>
      <point x="235" y="149" type="line"/>
      <point x="235" y="277" type="line"/>
      <point x="267" y="277" type="line"/>
    </contour>
    <contour>
      <point x="70" y="294" type="line"/>
      <point x="43" y="326" type="line"/>
      <point x="141" y="408" type="line"/>
      <point x="168" y="376" type="line"/>
    </contour>
    <contour>
      <point x="442" y="293" type="line"/>
      <point x="344" y="376" type="line"/>
      <point x="371" y="408" type="line"/>
      <point x="469" y="326" type="line"/>
    </contour>
  </outline>
</glyph>
<glyph name="alarm-check" format="2">
  <advance width="512"/>
  <unicode hex="F0021"/>
  <note>
alarm-check
</note>
  <outline>
    <contour>
      <point x="330" y="244" type="line"/>
      <point x="353" y="221" type="line"/>
      <point x="225" y="93" type="line"/>
      <point x="157" y="161" type="line"/>
      <point x="179" y="183" type="line"/>
      <point x="225" y="138" type="line"/>
    </contour>
    <contour>
      <point x="297" y="21"/>
      <point x="365" y="62"/>
      <point x="405" y="130"/>
      <point x="405" y="211"/>
      <point x="365" y="280"/>
      <point x="297" y="320"/>
      <point x="215" y="320"/>
      <point x="147" y="280"/>
      <point x="107" y="211"/>
      <point x="107" y="130"/>
      <point x="147" y="62"/>
      <point x="215" y="21"/>
      <point x="256" y="21" type="qcurve" smooth="yes"/>
    </contour>
    <contour>
      <point x="308" y="363"/>
      <point x="396" y="311"/>
      <point x="448" y="223"/>
      <point x="448" y="119"/>
      <point x="396" y="30"/>
      <point x="308" y="-21"/>
      <point x="204" y="-21"/>
      <point x="116" y="30"/>
      <point x="64" y="119"/>
      <point x="64" y="223"/>
      <point x="116" y="311"/>
      <point x="204" y="363"/>
      <point x="256" y="363" type="qcurve" smooth="yes"/>
    </contour>
    <contour>
      <point x="70" y="294" type="line"/>
      <point x="43" y="326" type="line"/>
      <point x="141" y="408" type="line"/>
      <point x="168" y="376" type="line"/>
    </contour>
    <contour>
      <point x="442" y="293" type="line"/>
      <point x="344" y="376" type="line"/>
      <point x="371" y="408" type="line"/>
      <point x="469" y="326" type="line"/>
    </contour>
  </outline>
</glyph>
<glyph name="alarm-multiple" format="2">
  <advance width="512"/>
  <unicode hex="F0022"/>
  <note>
alarm-multiple
</note>
  <outline>
    <contour>
      <point x="174" y="408" type="line"/>
      <point x="85" y="334" type="line"/>
      <point x="110" y="305" type="line"/>
      <point x="198" y="379" type="line"/>
    </contour>
    <contour>
      <point x="381" y="408" type="line"/>
      <point x="356" y="379" type="line"/>
      <point x="445" y="304" type="line"/>
      <point x="469" y="334" type="line"/>
    </contour>
    <contour>
      <point x="231" y="363"/>
      <point x="153" y="317"/>
      <point x="107" y="238"/>
      <point x="107" y="146"/>
      <point x="153" y="67"/>
      <point x="231" y="21"/>
      <point x="324" y="21"/>
      <point x="402" y="67"/>
      <point x="448" y="146"/>
      <point x="448" y="238"/>
      <point x="402" y="317"/>
      <point x="324" y="363"/>
      <point x="277" y="363" type="qcurve" smooth="yes"/>
    </contour>
    <contour>
      <point x="312" y="320"/>
      <point x="371" y="286"/>
      <point x="405" y="227"/>
      <point x="405" y="157"/>
      <point x="371" y="98"/>
      <point x="312" y="64"/>
      <point x="277" y="64" type="qcurve" smooth="yes"/>
      <point x="252" y="64"/>
      <point x="205" y="83"/>
      <point x="169" y="119"/>
      <point x="149" y="167"/>
      <point x="149" y="217"/>
      <point x="169" y="265"/>
      <point x="205" y="301"/>
      <point x="252" y="320"/>
      <point x="277" y="320" type="qcurve" smooth="yes"/>
    </contour>
    <contour>
      <point x="256" y="171" type="line"/>
      <point x="343" y="131" type="line"/>
      <point x="357" y="160" type="line"/>
      <point x="288" y="191" type="line"/>
      <point x="288" y="288" type="line"/>
      <point x="256" y="288" type="line"/>
    </contour>
    <contour>
      <point x="21" y="103"/>
      <point x="67" y="25"/>
      <point x="146" y="-21"/>
      <point x="192" y="-21" type="qcurve" smooth="yes"/>
      <point x="212" y="-21"/>
      <point x="232" y="-17" type="qcurve"/>
      <point x="175" y="-4"/>
      <point x="131" y="37" type="qcurve"/>
      <point x="101" y="53"/>
      <point x="64" y="113"/>
      <point x="64" y="149" type="qcurve" smooth="yes"/>
      <point x="65" y="168" type="line"/>
      <point x="64" y="192" type="line" smooth="yes"/>
      <point x="64" y="238"/>
      <point x="83" y="281" type="qcurve"/>
      <point x="54" y="257"/>
      <point x="21" y="189"/>
      <point x="21" y="149" type="qcurve" smooth="yes"/>
    </contour>
  </outline>
</glyph>
<glyph name="alarm-off" format="2">
  <advance width="512"/>
  <unicode hex="F0023"/>
  <note>
alarm-off
</note>
  <outline>
    <contour>
      <point x="153" y="363" type="line"/>
      <point x="122" y="393" type="line"/>
      <point x="141" y="408" type="line"/>
      <point x="171" y="378" type="line"/>
    </contour>
    <contour>
      <point x="141" y="266" type="line"/>
      <point x="107" y="224"/>
      <point x="107" y="171" type="qcurve" smooth="yes"/>
      <point x="107" y="130"/>
      <point x="147" y="62"/>
      <point x="215" y="21"/>
      <point x="256" y="21" type="qcurve" smooth="yes"/>
      <point x="310" y="21"/>
      <point x="351" y="56" type="qcurve"/>
    </contour>
    <contour>
      <point x="456" y="6" type="line"/>
      <point x="429" y="-21" type="line"/>
      <point x="382" y="26" type="line"/>
      <point x="356" y="3"/>
      <point x="291" y="-21"/>
      <point x="256" y="-21" type="qcurve" smooth="yes"/>
      <point x="204" y="-21"/>
      <point x="116" y="30"/>
      <point x="64" y="119"/>
      <point x="64" y="171" type="qcurve" smooth="yes"/>
      <point x="64" y="206"/>
      <point x="89" y="271"/>
      <point x="111" y="296" type="qcurve"/>
      <point x="94" y="313" type="line"/>
      <point x="70" y="293" type="line"/>
      <point x="40" y="324" type="line"/>
      <point x="64" y="343" type="line"/>
      <point x="35" y="372" type="line"/>
      <point x="62" y="399" type="line"/>
    </contour>
    <contour>
      <point x="442" y="293" type="line"/>
      <point x="344" y="376" type="line"/>
      <point x="371" y="408" type="line"/>
      <point x="469" y="326" type="line"/>
    </contour>
    <contour>
      <point x="230" y="320"/>
      <point x="205" y="311" type="qcurve"/>
      <point x="172" y="343" type="line"/>
      <point x="212" y="363"/>
      <point x="256" y="363" type="qcurve" smooth="yes"/>
      <point x="308" y="363"/>
      <point x="396" y="311"/>
      <point x="448" y="223"/>
      <point x="448" y="171" type="qcurve" smooth="yes"/>
      <point x="448" y="127"/>
      <point x="429" y="87" type="qcurve"/>
      <point x="396" y="119" type="line"/>
      <point x="405" y="145"/>
      <point x="405" y="171" type="qcurve" smooth="yes"/>
      <point x="405" y="211"/>
      <point x="365" y="280"/>
      <point x="297" y="320"/>
      <point x="256" y="320" type="qcurve" smooth="yes"/>
    </contour>
  </outline>
</glyph>
<glyph name="alert" format="2">
  <advance width="512"/>
  <unicode hex="F0026"/>
  <note>
alert
</note>
  <outline>
    <contour>
      <point x="277" y="256" type="line"/>
      <point x="235" y="256" type="line"/>
      <point x="235" y="149" type="line"/>
      <point x="277" y="149" type="line"/>
    </contour>
    <contour>
      <point x="277" y="107" type="line"/>
      <point x="235" y="107" type="line"/>
      <point x="235" y="64" type="line"/>
      <point x="277" y="64" type="line"/>
    </contour>
    <contour>
      <point x="256" y="405" type="line"/>
      <point x="491" y="0" type="line"/>
      <point x="21" y="0" type="line"/>
    </contour>
  </outline>
</glyph>
<glyph name="alert-octagon" format="2">
  <advance width="512"/>
  <unicode hex="F0029"/>
  <note>
alert-octagon
</note>
  <outline>
    <contour>
      <point x="277" y="299" type="line"/>
      <point x="235" y="299" type="line"/>
      <point x="235" y="171" type="line"/>
      <point x="277" y="171" type="line"/>
    </contour>
    <contour>
      <point x="235" y="85" type="line"/>
      <point x="277" y="85" type="line"/>
      <point x="277" y="128" type="line"/>
      <point x="235" y="128" type="line"/>
    </contour>
    <contour>
      <point x="448" y="272" type="line"/>
      <point x="448" y="112" type="line"/>
      <point x="336" y="0" type="line"/>
      <point x="176" y="0" type="line"/>
      <point x="64" y="112" type="line"/>
      <point x="64" y="272" type="line"/>
      <point x="176" y="384" type="line"/>
      <point x="336" y="384" type="line"/>
    </contour>
  </outline>
</glyph>
<glyph name="alert-outline" format="2">
  <advance width="512"/>
  <unicode hex="F002A"/>
  <note>
alert-outline
</note>
  <outline>
    <contour>
      <point x="491" y="0" type="line"/>
      <point x="21" y="0" type="line"/>
      <point x="256" y="405" type="line"/>
    </contour>
    <contour>
      <point x="95" y="43" type="line"/>
      <point x="417" y="43" type="line"/>
      <point x="256" y="320" type="line"/>
    </contour>
    <contour>
      <point x="277" y="235" type="line"/>
      <point x="277" y="149" type="line"/>
      <point x="235" y="149" type="line"/>
      <point x="235" y="235" type="line"/>
    </contour>
    <contour>
      <point x="277" y="107" type="line"/>
      <point x="277" y="64" type="line"/>
      <point x="235" y="64" type="line"/>
      <point x="235" y="107" type="line"/>
    </contour>
  </outline>
</glyph>
<glyph name="alpha" format="2">
  <advance width="512"/>
  <unicode hex="F002B"/>
  <note>
alpha
</note>
  <outline>
    <contour>
      <point x="386" y="112" type="line"/>
      <point x="380" y="109"/>
      <point x="373" y="109" type="qcurve" smooth="yes"/>
      <point x="360" y="109"/>
      <point x="343" y="138"/>
      <point x="336" y="178" type="qcurve"/>
      <point x="381" y="292" type="line"/>
      <point x="327" y="292" type="line"/>
      <point x="311" y="240" type="line"/>
      <point x="311" y="240" type="line"/>
      <point x="300" y="267"/>
      <point x="259" y="296"/>
      <point x="232" y="296" type="qcurve" smooth="yes"/>
      <point x="183" y="296"/>
      <point x="126" y="226"/>
      <point x="126" y="171" type="qcurve" smooth="yes"/>
      <point x="126" y="123"/>
      <point x="177" y="60"/>
      <point x="219" y="60" type="qcurve" smooth="yes"/>
      <point x="275" y="60"/>
      <point x="307" y="121" type="qcurve"/>
      <point x="308" y="121" type="line"/>
      <point x="321" y="64"/>
      <point x="359" y="64" type="qcurve" smooth="yes"/>
      <point x="371" y="64"/>
      <point x="386" y="68" type="qcurve"/>
    </contour>
    <contour>
      <point x="292" y="172" type="line" smooth="yes"/>
      <point x="282" y="136"/>
      <point x="250" y="100"/>
      <point x="231" y="100" type="qcurve" smooth="yes"/>
      <point x="208" y="100"/>
      <point x="181" y="142"/>
      <point x="181" y="174" type="qcurve" smooth="yes"/>
      <point x="181" y="209"/>
      <point x="212" y="255"/>
      <point x="239" y="255" type="qcurve" smooth="yes"/>
      <point x="259" y="255"/>
      <point x="288" y="216"/>
      <point x="295" y="180" type="qcurve"/>
    </contour>
  </outline>
</glyph>
<glyph name="alphabetical" format="2">
  <advance width="512"/>
  <unicode hex="F002C"/>
  <note>
alphabetical
</note>
  <outline>
    <contour>
      <point x="85" y="213" type="line" smooth="yes"/>
      <point x="68" y="213"/>
      <point x="43" y="188"/>
      <point x="43" y="171" type="qcurve" smooth="yes"/>
      <point x="43" y="128" type="line" smooth="yes"/>
      <point x="43" y="110"/>
      <point x="68" y="85"/>
      <point x="85" y="85" type="qcurve" smooth="yes"/>
      <point x="171" y="85" type="line"/>
      <point x="171" y="171" type="line" smooth="yes"/>
      <point x="171" y="188"/>
      <point x="146" y="213"/>
      <point x="128" y="213" type="qcurve" smooth="yes"/>
    </contour>
    <contour>
      <point x="128" y="171" type="line"/>
      <point x="128" y="128" type="line"/>
      <point x="85" y="128" type="line"/>
      <point x="85" y="171" type="line"/>
    </contour>
    <contour>
      <point x="469" y="171" type="line"/>
      <point x="469" y="213" type="line"/>
      <point x="427" y="213" type="line" smooth="yes"/>
      <point x="409" y="213"/>
      <point x="384" y="188"/>
      <point x="384" y="171" type="qcurve" smooth="yes"/>
      <point x="384" y="128" type="line" smooth="yes"/>
      <point x="384" y="110"/>
      <point x="409" y="85"/>
      <point x="427" y="85" type="qcurve" smooth="yes"/>
      <point x="469" y="85" type="line"/>
      <point x="469" y="128" type="line"/>
      <point x="427" y="128" type="line"/>
      <point x="427" y="171" type="line"/>
    </contour>
    <contour>
      <point x="213" y="299" type="line"/>
      <point x="213" y="128" type="line" smooth="yes"/>
      <point x="213" y="110"/>
      <point x="238" y="85"/>
      <point x="256" y="85" type="qcurve" smooth="yes"/>
      <point x="299" y="85" type="line" smooth="yes"/>
      <point x="316" y="85"/>
      <point x="341" y="110"/>
      <point x="341" y="128" type="qcurve" smooth="yes"/>
      <point x="341" y="171" type="line" smooth="yes"/>
      <point x="341" y="188"/>
      <point x="316" y="213"/>
      <point x="299" y="213" type="qcurve" smooth="yes"/>
      <point x="256" y="213" type="line"/>
      <point x="256" y="299" type="line"/>
    </contour>
    <contour>
      <point x="256" y="171" type="line"/>
      <point x="299" y="171" type="line"/>
      <point x="299" y="128" type="line"/>
      <point x="256" y="128" type="line"/>
    </contour>
  </outline>
</glyph>
<glyph name="greenhouse" format="2">
  <advance width="512"/>
  <unicode hex="F002D"/>
  <note>
greenhouse
</note>
  <outline>
    <contour>
      <point x="427" y="256" type="line"/>
      <point x="427" y="0" type="line"/>
      <point x="85" y="0" type="line"/>
      <point x="85" y="256" type="line"/>
      <point x="256" y="384" type="line"/>
    </contour>
    <contour>
      <point x="213" y="43" type="line"/>
      <point x="299" y="43" type="line"/>
      <point x="299" y="235" type="line"/>
      <point x="213" y="235" type="line"/>
    </contour>
    <contour>
      <point x="341" y="171" type="line"/>
      <point x="384" y="171" type="line"/>
      <point x="384" y="235" type="line"/>
      <point x="341" y="235" type="line"/>
    </contour>
    <contour>
      <point x="256" y="331" type="line"/>
      <point x="185" y="277" type="line"/>
      <point x="327" y="277" type="line"/>
    </contour>
    <contour>
      <point x="128" y="235" type="line"/>
      <point x="128" y="171" type="line"/>
      <point x="171" y="171" type="line"/>
      <point x="171" y="235" type="line"/>
    </contour>
    <contour>
      <point x="128" y="43" type="line"/>
      <point x="171" y="43" type="line"/>
      <point x="171" y="128" type="line"/>
      <point x="128" y="128" type="line"/>
    </contour>
    <contour>
      <point x="384" y="43" type="line"/>
      <point x="384" y="128" type="line"/>
      <point x="341" y="128" type="line"/>
      <point x="341" y="43" type="line"/>
    </contour>
  </outline>
</glyph>
<glyph name="rollerblade-off" format="2">
  <advance width="512"/>
  <unicode hex="F002E"/>
  <note>
rollerblade-off
</note>
  <outline>
    <contour>
      <point x="472" y="-10" type="line"/>
      <point x="51" y="411" type="line"/>
      <point x="24" y="384" type="line"/>
      <point x="64" y="343" type="line"/>
      <point x="64" y="85" type="line"/>
      <point x="322" y="85" type="line"/>
      <point x="358" y="49" type="line"/>
      <point x="341" y="33"/>
      <point x="341" y="-11"/>
      <point x="373" y="-43"/>
      <point x="417" y="-43"/>
      <point x="433" y="-26" type="qcurve"/>
      <point x="445" y="-37" type="line"/>
    </contour>
    <contour>
      <point x="423" y="161"/>
      <point x="425" y="139" type="qcurve" smooth="yes"/>
      <point x="427" y="126"/>
      <point x="427" y="97" type="qcurve" smooth="yes"/>
      <point x="427" y="90" type="line"/>
      <point x="269" y="247" type="line" smooth="yes"/>
      <point x="283" y="234"/>
      <point x="297" y="234" type="qcurve"/>
      <point x="316" y="229" type="line" smooth="yes"/>
      <point x="355" y="219"/>
      <point x="374" y="211" type="qcurve" smooth="yes"/>
      <point x="405" y="196"/>
      <point x="416" y="172" type="qcurve"/>
    </contour>
    <contour>
      <point x="245" y="320" type="line"/>
      <point x="245" y="299" type="line"/>
      <point x="218" y="299" type="line"/>
      <point x="196" y="320" type="line"/>
    </contour>
    <contour>
      <point x="239" y="277" type="line"/>
      <point x="252" y="277" type="line"/>
      <point x="255" y="261"/>
      <point x="268" y="248" type="qcurve" smooth="yes"/>
    </contour>
    <contour>
      <point x="267" y="64"/>
      <point x="299" y="33"/>
      <point x="299" y="-11"/>
      <point x="267" y="-43"/>
      <point x="223" y="-43"/>
      <point x="192" y="-11"/>
      <point x="192" y="33"/>
      <point x="223" y="64"/>
      <point x="245" y="64" type="qcurve" smooth="yes"/>
    </contour>
    <contour>
      <point x="185" y="341"/>
      <point x="181" y="335" type="qcurve"/>
      <point x="111" y="405" type="line"/>
      <point x="245" y="405" type="line"/>
      <point x="245" y="341" type="line"/>
      <point x="192" y="341" type="line" smooth="yes"/>
    </contour>
    <contour>
      <point x="118" y="64"/>
      <point x="149" y="33"/>
      <point x="149" y="-11"/>
      <point x="118" y="-43"/>
      <point x="74" y="-43"/>
      <point x="43" y="-11"/>
      <point x="43" y="33"/>
      <point x="74" y="64"/>
      <point x="96" y="64" type="qcurve" smooth="yes"/>
    </contour>
  </outline>
</glyph>
<glyph name="amplifier" format="2">
  <advance width="512"/>
  <unicode hex="F0030"/>
  <note>
amplifier
</note>
  <outline>
    <contour>
      <point x="204" y="405"/>
      <point x="192" y="393"/>
      <point x="192" y="384" type="qcurve"/>
      <point x="64" y="384" type="line"/>
      <point x="64" y="0" type="line"/>
      <point x="107" y="0" type="line"/>
      <point x="107" y="-9"/>
      <point x="119" y="-21"/>
      <point x="137" y="-21"/>
      <point x="149" y="-9"/>
      <point x="149" y="0" type="qcurve"/>
      <point x="363" y="0" type="line"/>
      <point x="363" y="-9"/>
      <point x="375" y="-21"/>
      <point x="393" y="-21"/>
      <point x="405" y="-9"/>
      <point x="405" y="0" type="qcurve"/>
      <point x="448" y="0" type="line"/>
      <point x="448" y="384" type="line"/>
      <point x="320" y="384" type="line"/>
      <point x="320" y="393"/>
      <point x="308" y="405"/>
      <point x="299" y="405" type="qcurve" smooth="yes"/>
      <point x="213" y="405" type="line" smooth="yes"/>
    </contour>
    <contour>
      <point x="405" y="341" type="line"/>
      <point x="405" y="256" type="line"/>
      <point x="107" y="256" type="line"/>
      <point x="107" y="341" type="line"/>
    </contour>
    <contour>
      <point x="140" y="320"/>
      <point x="128" y="308"/>
      <point x="128" y="290"/>
      <point x="140" y="277"/>
      <point x="158" y="277"/>
      <point x="171" y="290"/>
      <point x="171" y="308"/>
      <point x="158" y="320"/>
      <point x="149" y="320" type="qcurve" smooth="yes"/>
    </contour>
    <contour>
      <point x="256" y="299" type="line"/>
      <point x="299" y="299" type="line"/>
      <point x="299" y="320" type="line"/>
      <point x="256" y="320" type="line"/>
    </contour>
    <contour>
      <point x="320" y="277" type="line"/>
      <point x="341" y="277" type="line"/>
      <point x="341" y="320" type="line"/>
      <point x="320" y="320" type="line"/>
    </contour>
    <contour>
      <point x="363" y="277" type="line"/>
      <point x="384" y="277" type="line"/>
      <point x="384" y="320" type="line"/>
      <point x="363" y="320" type="line"/>
    </contour>
    <contour>
      <point x="291" y="213"/>
      <point x="341" y="163"/>
      <point x="341" y="93"/>
      <point x="291" y="43"/>
      <point x="221" y="43"/>
      <point x="171" y="93"/>
      <point x="171" y="163"/>
      <point x="221" y="213"/>
      <point x="256" y="213" type="qcurve" smooth="yes"/>
    </contour>
    <contour>
      <point x="204" y="320"/>
      <point x="192" y="308"/>
      <point x="192" y="290"/>
      <point x="204" y="277"/>
      <point x="222" y="277"/>
      <point x="235" y="290"/>
      <point x="235" y="308"/>
      <point x="222" y="320"/>
      <point x="213" y="320" type="qcurve" smooth="yes"/>
    </contour>
  </outline>
</glyph>
<glyph name="anchor" format="2">
  <advance width="512"/>
  <unicode hex="F0031"/>
  <note>
anchor
</note>
  <outline>
    <contour>
      <point x="283" y="405"/>
      <point x="320" y="368"/>
      <point x="320" y="341" type="qcurve" smooth="yes"/>
      <point x="320" y="321"/>
      <point x="296" y="288"/>
      <point x="277" y="281" type="qcurve"/>
      <point x="277" y="256" type="line"/>
      <point x="341" y="256" type="line"/>
      <point x="341" y="213" type="line"/>
      <point x="277" y="213" type="line"/>
      <point x="277" y="23" type="line"/>
      <point x="303" y="28"/>
      <point x="324" y="37" type="qcurve" smooth="yes"/>
      <point x="348" y="47"/>
      <point x="385" y="77"/>
      <point x="396" y="95" type="qcurve"/>
      <point x="363" y="128" type="line"/>
      <point x="448" y="192" type="line"/>
      <point x="448" y="128" type="line" smooth="yes"/>
      <point x="448" y="97"/>
      <point x="413" y="42"/>
      <point x="356" y="2"/>
      <point x="288" y="-21"/>
      <point x="224" y="-21"/>
      <point x="156" y="2"/>
      <point x="100" y="42"/>
      <point x="64" y="97"/>
      <point x="64" y="128" type="qcurve" smooth="yes"/>
      <point x="64" y="192" type="line"/>
      <point x="149" y="128" type="line"/>
      <point x="116" y="95" type="line"/>
      <point x="127" y="77"/>
      <point x="164" y="47"/>
      <point x="188" y="37" type="qcurve" smooth="yes"/>
      <point x="209" y="28"/>
      <point x="235" y="23" type="qcurve"/>
      <point x="235" y="213" type="line"/>
      <point x="171" y="213" type="line"/>
      <point x="171" y="256" type="line"/>
      <point x="235" y="256" type="line"/>
      <point x="235" y="281" type="line"/>
      <point x="215" y="288"/>
      <point x="192" y="321"/>
      <point x="192" y="341" type="qcurve" smooth="yes"/>
      <point x="192" y="368"/>
      <point x="229" y="405"/>
      <point x="256" y="405" type="qcurve" smooth="yes"/>
    </contour>
    <contour>
      <point x="247" y="363"/>
      <point x="235" y="350"/>
      <point x="235" y="332"/>
      <point x="247" y="320"/>
      <point x="265" y="320"/>
      <point x="277" y="332"/>
      <point x="277" y="350"/>
      <point x="265" y="363"/>
      <point x="256" y="363" type="qcurve" smooth="yes"/>
    </contour>
  </outline>
</glyph>
<glyph name="android" format="2">
  <advance width="512"/>
  <unicode hex="F0032"/>
  <note>
android
</note>
  <outline>
    <contour>
      <point x="362" y="125"/>
      <point x="372" y="135"/>
      <point x="372" y="150"/>
      <point x="362" y="160"/>
      <point x="354" y="160" type="qcurve"/>
      <point x="354" y="160" type="line"/>
      <point x="347" y="160"/>
      <point x="336" y="150"/>
      <point x="336" y="135"/>
      <point x="347" y="125"/>
      <point x="354" y="125" type="qcurve" smooth="yes"/>
    </contour>
    <contour>
      <point x="165" y="125"/>
      <point x="176" y="135"/>
      <point x="176" y="150"/>
      <point x="165" y="160"/>
      <point x="158" y="160" type="qcurve"/>
      <point x="158" y="160" type="line"/>
      <point x="151" y="160"/>
      <point x="140" y="150"/>
      <point x="140" y="135"/>
      <point x="151" y="125"/>
      <point x="158" y="125" type="qcurve" smooth="yes"/>
    </contour>
    <contour>
      <point x="361" y="232" type="line"/>
      <point x="407" y="206"/>
      <point x="465" y="118"/>
      <point x="469" y="64" type="qcurve"/>
      <point x="43" y="64" type="line"/>
      <point x="47" y="118"/>
      <point x="105" y="207"/>
      <point x="151" y="232" type="qcurve"/>
      <point x="116" y="293" type="line"/>
      <point x="115" y="296"/>
      <point x="116" y="302"/>
      <point x="122" y="305"/>
      <point x="127" y="303"/>
      <point x="129" y="301" type="qcurve"/>
      <point x="165" y="239" type="line"/>
      <point x="207" y="258"/>
      <point x="304" y="258"/>
      <point x="348" y="238" type="qcurve"/>
      <point x="384" y="300" type="line"/>
      <point x="385" y="303"/>
      <point x="391" y="305"/>
      <point x="396" y="302"/>
      <point x="398" y="296"/>
      <point x="396" y="293" type="qcurve" smooth="yes"/>
      <point x="361" y="232" type="line"/>
    </contour>
  </outline>
</glyph>
<glyph name="android-studio" format="2">
  <advance width="512"/>
  <unicode hex="F0034"/>
  <note>
android-studio
</note>
  <outline>
    <contour>
      <point x="235" y="363" type="line"/>
      <point x="224" y="363" type="line" smooth="yes"/>
      <point x="211" y="363"/>
      <point x="192" y="344"/>
      <point x="192" y="331" type="qcurve" smooth="yes"/>
      <point x="192" y="256" type="line"/>
      <point x="201" y="247" type="line"/>
      <point x="77" y="32" type="line"/>
      <point x="75" y="-15" type="line"/>
      <point x="115" y="11" type="line"/>
      <point x="180" y="124" type="line"/>
      <point x="215" y="107"/>
      <point x="297" y="107"/>
      <point x="332" y="124" type="qcurve"/>
      <point x="397" y="11" type="line"/>
      <point x="437" y="-15" type="line"/>
      <point x="435" y="32" type="line"/>
      <point x="368" y="148" type="line"/>
      <point x="395" y="172"/>
      <point x="427" y="239"/>
      <point x="427" y="277" type="qcurve"/>
      <point x="384" y="277" type="line"/>
      <point x="384" y="251"/>
      <point x="364" y="204"/>
      <point x="346" y="186" type="qcurve"/>
      <point x="311" y="247" type="line"/>
      <point x="320" y="256" type="line"/>
      <point x="320" y="331" type="line" smooth="yes"/>
      <point x="320" y="344"/>
      <point x="301" y="363"/>
      <point x="288" y="363" type="qcurve" smooth="yes"/>
      <point x="277" y="363" type="line"/>
      <point x="277" y="405" type="line"/>
      <point x="235" y="405" type="line"/>
    </contour>
    <contour>
      <point x="233" y="215" type="line"/>
      <point x="243" y="206"/>
      <point x="269" y="206"/>
      <point x="279" y="215" type="qcurve"/>
      <point x="311" y="161" type="line"/>
      <point x="285" y="149"/>
      <point x="227" y="149"/>
      <point x="201" y="161" type="qcurve"/>
    </contour>
    <contour>
      <point x="265" y="320"/>
      <point x="277" y="308"/>
      <point x="277" y="290"/>
      <point x="265" y="277"/>
      <point x="247" y="277"/>
      <point x="235" y="290"/>
      <point x="235" y="308"/>
      <point x="247" y="320"/>
      <point x="256" y="320" type="qcurve" smooth="yes"/>
    </contour>
  </outline>
</glyph>
<glyph name="apple" format="2">
  <advance width="512"/>
  <unicode hex="F0035"/>
  <note>
apple
</note>
  <outline>
    <contour>
      <point x="417" y="59"/>
      <point x="428" y="91" type="qcurve"/>
      <point x="429" y="92" type="line"/>
      <point x="423" y="94"/>
      <point x="414" y="100" type="qcurve" smooth="yes"/>
      <point x="397" y="112"/>
      <point x="386" y="128" type="qcurve" smooth="yes"/>
      <point x="372" y="150"/>
      <point x="371" y="179" type="qcurve" smooth="yes"/>
      <point x="371" y="211"/>
      <point x="392" y="238" type="qcurve" smooth="yes"/>
      <point x="403" y="251"/>
      <point x="417" y="260" type="qcurve"/>
      <point x="417" y="260" type="line"/>
      <point x="401" y="284"/>
      <point x="374" y="294" type="qcurve" smooth="yes"/>
      <point x="358" y="301"/>
      <point x="340" y="302" type="qcurve" smooth="yes"/>
      <point x="326" y="303"/>
      <point x="310" y="299" type="qcurve" smooth="yes"/>
      <point x="301" y="297"/>
      <point x="265" y="283"/>
      <point x="251" y="283"/>
      <point x="232" y="290" type="qcurve" smooth="yes"/>
      <point x="204" y="301"/>
      <point x="188" y="301" type="qcurve" smooth="yes"/>
      <point x="161" y="301"/>
      <point x="114" y="272"/>
      <point x="100" y="248" type="qcurve" smooth="yes"/>
      <point x="83" y="217"/>
      <point x="82" y="175" type="qcurve" smooth="yes"/>
      <point x="82" y="137"/>
      <point x="96" y="97" type="qcurve" smooth="yes"/>
      <point x="108" y="61"/>
      <point x="127" y="33" type="qcurve" smooth="yes"/>
      <point x="145" y="7"/>
      <point x="157" y="-4" type="qcurve" smooth="yes"/>
      <point x="176" y="-22"/>
      <point x="194" y="-21" type="qcurve" smooth="yes"/>
      <point x="207" y="-21"/>
      <point x="225" y="-13" type="qcurve" smooth="yes"/>
      <point x="236" y="-9"/>
      <point x="242" y="-7" type="qcurve" smooth="yes"/>
      <point x="252" y="-4"/>
      <point x="264" y="-4" type="qcurve" smooth="yes"/>
      <point x="280" y="-4"/>
      <point x="320" y="-21"/>
      <point x="334" y="-21" type="qcurve" smooth="yes"/>
      <point x="353" y="-20"/>
      <point x="371" y="-4" type="qcurve" smooth="yes"/>
      <point x="382" y="7"/>
      <point x="399" y="32" type="qcurve" smooth="yes"/>
    </contour>
    <contour>
      <point x="266" y="360"/>
      <point x="260" y="343" type="qcurve" smooth="yes"/>
      <point x="253" y="324"/>
      <point x="255" y="307" type="qcurve"/>
      <point x="272" y="306"/>
      <point x="306" y="323"/>
      <point x="330" y="351"/>
      <point x="342" y="387"/>
      <point x="340" y="405" type="qcurve"/>
      <point x="324" y="405"/>
      <point x="289" y="387"/>
      <point x="277" y="373" type="qcurve" smooth="yes"/>
    </contour>
  </outline>
</glyph>
<glyph name="apple-finder" format="2">
  <advance width="512"/>
  <unicode hex="F0036"/>
  <note>
apple-finder
</note>
  <outline>
    <contour>
      <point x="179" y="213"/>
      <point x="192" y="226"/>
      <point x="192" y="235" type="qcurve" smooth="yes"/>
      <point x="192" y="277" type="line" smooth="yes"/>
      <point x="192" y="286"/>
      <point x="179" y="299"/>
      <point x="162" y="299"/>
      <point x="149" y="286"/>
      <point x="149" y="277" type="qcurve" smooth="yes"/>
      <point x="149" y="235" type="line" smooth="yes"/>
      <point x="149" y="226"/>
      <point x="162" y="213"/>
      <point x="171" y="213" type="qcurve" smooth="yes"/>
    </contour>
    <contour>
      <point x="363" y="226"/>
      <point x="350" y="213"/>
      <point x="333" y="213"/>
      <point x="320" y="226"/>
      <point x="320" y="235" type="qcurve" smooth="yes"/>
      <point x="320" y="277" type="line" smooth="yes"/>
      <point x="320" y="286"/>
      <point x="333" y="299"/>
      <point x="350" y="299"/>
      <point x="363" y="286"/>
      <point x="363" y="277" type="qcurve" smooth="yes"/>
      <point x="363" y="235" type="line" smooth="yes"/>
    </contour>
    <contour>
      <point x="469" y="359"/>
      <point x="444" y="384"/>
      <point x="427" y="384" type="qcurve" smooth="yes"/>
      <point x="85" y="384" type="line" smooth="yes"/>
      <point x="68" y="384"/>
      <point x="43" y="359"/>
      <point x="43" y="341" type="qcurve" smooth="yes"/>
      <point x="43" y="21" type="line" smooth="yes"/>
      <point x="43" y="4"/>
      <point x="68" y="-21"/>
      <point x="85" y="-21" type="qcurve" smooth="yes"/>
      <point x="427" y="-21" type="line" smooth="yes"/>
      <point x="444" y="-21"/>
      <point x="469" y="4"/>
      <point x="469" y="21" type="qcurve" smooth="yes"/>
      <point x="469" y="341" type="line" smooth="yes"/>
    </contour>
    <contour>
      <point x="85" y="341" type="line"/>
      <point x="235" y="341" type="line"/>
      <point x="222" y="304"/>
      <point x="214" y="248" type="qcurve" smooth="yes"/>
      <point x="210" y="219"/>
      <point x="208" y="192" type="qcurve"/>
      <point x="208" y="192" type="line"/>
      <point x="208" y="181"/>
      <point x="223" y="165"/>
      <point x="233" y="165" type="qcurve" smooth="yes"/>
      <point x="272" y="165" type="line"/>
      <point x="271" y="134"/>
      <point x="272" y="108" type="qcurve"/>
      <point x="256" y="107" type="line" smooth="yes"/>
      <point x="219" y="107"/>
      <point x="189" y="124" type="qcurve" smooth="yes"/>
      <point x="172" y="133"/>
      <point x="160" y="149"/>
      <point x="142" y="150"/>
      <point x="129" y="139"/>
      <point x="127" y="121"/>
      <point x="133" y="115" type="qcurve" smooth="yes"/>
      <point x="143" y="102"/>
      <point x="165" y="88" type="qcurve" smooth="yes"/>
      <point x="206" y="64"/>
      <point x="256" y="64" type="qcurve" smooth="yes"/>
      <point x="274" y="65" type="line"/>
      <point x="276" y="38"/>
      <point x="279" y="21" type="qcurve"/>
      <point x="85" y="21" type="line"/>
    </contour>
    <contour>
      <point x="311" y="21" type="line"/>
      <point x="308" y="41"/>
      <point x="305" y="71" type="qcurve"/>
      <point x="335" y="79"/>
      <point x="359" y="97" type="qcurve" smooth="yes"/>
      <point x="372" y="106"/>
      <point x="379" y="115" type="qcurve"/>
      <point x="379" y="115" type="line"/>
      <point x="385" y="122"/>
      <point x="383" y="139"/>
      <point x="369" y="151"/>
      <point x="352" y="149"/>
      <point x="346" y="142" type="qcurve"/>
      <point x="346" y="142" type="line"/>
      <point x="331" y="125"/>
      <point x="304" y="115" type="qcurve"/>
      <point x="303" y="143"/>
      <point x="304" y="170" type="qcurve" smooth="yes"/>
      <point x="304" y="171" type="line" smooth="yes"/>
      <point x="304" y="182"/>
      <point x="289" y="197"/>
      <point x="279" y="197" type="qcurve" smooth="yes"/>
      <point x="240" y="197" type="line"/>
      <point x="250" y="293"/>
      <point x="269" y="341" type="qcurve"/>
      <point x="427" y="341" type="line"/>
      <point x="427" y="21" type="line"/>
    </contour>
  </outline>
</glyph>
<glyph name="apple-ios" format="2">
  <advance width="512"/>
  <unicode hex="F0037"/>
  <note>
apple-ios
</note>
  <outline>
    <contour>
      <point x="45" y="240" type="line"/>
      <point x="80" y="240" type="line"/>
      <point x="80" y="90" type="line"/>
      <point x="45" y="90" type="line"/>
    </contour>
    <contour>
      <point x="54" y="259"/>
      <point x="43" y="271"/>
      <point x="43" y="287"/>
      <point x="54" y="298"/>
      <point x="71" y="298"/>
      <point x="82" y="287"/>
      <point x="82" y="271"/>
      <point x="71" y="259"/>
      <point x="62" y="259" type="qcurve" smooth="yes"/>
    </contour>
    <contour>
      <point x="242" y="297"/>
      <point x="294" y="241"/>
      <point x="294" y="143"/>
      <point x="242" y="86"/>
      <point x="153" y="86"/>
      <point x="100" y="143"/>
      <point x="100" y="241"/>
      <point x="153" y="297"/>
      <point x="197" y="297" type="qcurve" smooth="yes"/>
    </contour>
    <contour>
      <point x="170" y="267"/>
      <point x="138" y="226"/>
      <point x="138" y="158"/>
      <point x="170" y="117"/>
      <point x="225" y="117"/>
      <point x="257" y="158"/>
      <point x="257" y="226"/>
      <point x="225" y="267"/>
      <point x="197" y="267" type="qcurve" smooth="yes"/>
    </contour>
    <contour>
      <point x="345" y="147" type="line"/>
      <point x="346" y="133"/>
      <point x="372" y="116"/>
      <point x="409" y="116"/>
      <point x="432" y="132"/>
      <point x="432" y="156"/>
      <point x="416" y="170"/>
      <point x="396" y="175" type="qcurve" smooth="yes"/>
      <point x="370" y="181" type="line" smooth="yes"/>
      <point x="314" y="193"/>
      <point x="314" y="237" type="qcurve" smooth="yes"/>
      <point x="314" y="264"/>
      <point x="357" y="297"/>
      <point x="424" y="297"/>
      <point x="465" y="264"/>
      <point x="466" y="237" type="qcurve"/>
      <point x="431" y="237" type="line"/>
      <point x="430" y="251"/>
      <point x="408" y="268"/>
      <point x="373" y="268"/>
      <point x="351" y="252"/>
      <point x="351" y="239" type="qcurve" smooth="yes"/>
      <point x="351" y="229"/>
      <point x="368" y="216"/>
      <point x="387" y="212" type="qcurve" smooth="yes"/>
      <point x="410" y="207" type="line" smooth="yes"/>
      <point x="441" y="199"/>
      <point x="469" y="172"/>
      <point x="469" y="149" type="qcurve" smooth="yes"/>
      <point x="469" y="120"/>
      <point x="426" y="86"/>
      <point x="353" y="86"/>
      <point x="310" y="119"/>
      <point x="309" y="147" type="qcurve"/>
    </contour>
  </outline>
</glyph>
<glyph name="apple-icloud" format="2">
  <advance width="512"/>
  <unicode hex="F0038"/>
  <note>
apple-icloud
</note>
  <outline>
    <contour>
      <point x="469" y="157"/>
      <point x="431" y="204"/>
      <point x="402" y="210" type="qcurve"/>
      <point x="403" y="217" type="line"/>
      <point x="403" y="265"/>
      <point x="377" y="297" type="qcurve" smooth="yes"/>
      <point x="348" y="332"/>
      <point x="297" y="332" type="qcurve" smooth="yes"/>
      <point x="257" y="332"/>
      <point x="232" y="310" type="qcurve" smooth="yes"/>
      <point x="215" y="295"/>
      <point x="200" y="260" type="qcurve"/>
      <point x="185" y="273"/>
      <point x="166" y="273" type="qcurve" smooth="yes"/>
      <point x="144" y="273"/>
      <point x="112" y="242"/>
      <point x="112" y="220" type="qcurve" smooth="yes"/>
      <point x="112" y="214"/>
      <point x="113" y="210" type="qcurve"/>
      <point x="83" y="206"/>
      <point x="43" y="158"/>
      <point x="43" y="127" type="qcurve" smooth="yes"/>
      <point x="43" y="92"/>
      <point x="92" y="43"/>
      <point x="127" y="43" type="qcurve" smooth="yes"/>
      <point x="385" y="43" type="line" smooth="yes"/>
      <point x="420" y="43"/>
      <point x="469" y="92"/>
      <point x="469" y="127" type="qcurve" smooth="yes"/>
    </contour>
  </outline>
</glyph>
<glyph name="apple-safari" format="2">
  <advance width="512"/>
  <unicode hex="F0039"/>
  <note>
apple-safari
</note>
  <outline>
    <contour>
      <point x="214" y="405"/>
      <point x="135" y="373"/>
      <point x="75" y="313"/>
      <point x="43" y="234"/>
      <point x="43" y="150"/>
      <point x="75" y="71"/>
      <point x="135" y="11"/>
      <point x="214" y="-21"/>
      <point x="298" y="-21"/>
      <point x="377" y="11"/>
      <point x="437" y="71"/>
      <point x="469" y="150"/>
      <point x="469" y="234"/>
      <point x="437" y="313"/>
      <point x="377" y="373"/>
      <point x="298" y="405"/>
      <point x="256" y="405" type="qcurve" smooth="yes"/>
    </contour>
    <contour>
      <point x="289" y="363"/>
      <point x="348" y="339"/>
      <point x="371" y="318" type="qcurve"/>
      <point x="211" y="237" type="line"/>
      <point x="130" y="77" type="line"/>
      <point x="109" y="100"/>
      <point x="85" y="159"/>
      <point x="85" y="192" type="qcurve" smooth="yes"/>
      <point x="85" y="238"/>
      <point x="131" y="317"/>
      <point x="210" y="363"/>
      <point x="256" y="363" type="qcurve" smooth="yes"/>
    </contour>
    <contour>
      <point x="223" y="21"/>
      <point x="164" y="45"/>
      <point x="141" y="66" type="qcurve"/>
      <point x="301" y="147" type="line"/>
      <point x="382" y="307" type="line"/>
      <point x="403" y="284"/>
      <point x="427" y="225"/>
      <point x="427" y="192" type="qcurve" smooth="yes"/>
      <point x="427" y="146"/>
      <point x="381" y="67"/>
      <point x="302" y="21"/>
      <point x="256" y="21" type="qcurve" smooth="yes"/>
    </contour>
    <contour>
      <point x="272" y="176" type="line"/>
      <point x="207" y="143" type="line"/>
      <point x="240" y="208" type="line"/>
      <point x="256" y="192" type="line"/>
    </contour>
    <contour>
      <point x="256" y="43" type="line"/>
      <point x="277" y="43" type="line"/>
      <point x="277" y="75" type="line"/>
      <point x="256" y="75" type="line"/>
    </contour>
    <contour>
      <point x="361" y="86" type="line"/>
      <point x="377" y="102" type="line"/>
      <point x="354" y="124" type="line"/>
      <point x="339" y="109" type="line"/>
    </contour>
    <contour>
      <point x="405" y="192" type="line"/>
      <point x="405" y="213" type="line"/>
      <point x="373" y="213" type="line"/>
      <point x="373" y="192" type="line"/>
    </contour>
    <contour>
      <point x="256" y="341" type="line"/>
      <point x="235" y="341" type="line"/>
      <point x="235" y="309" type="line"/>
      <point x="256" y="309" type="line"/>
    </contour>
    <contour>
      <point x="151" y="298" type="line"/>
      <point x="135" y="282" type="line"/>
      <point x="158" y="260" type="line"/>
      <point x="173" y="275" type="line"/>
    </contour>
    <contour>
      <point x="107" y="192" type="line"/>
      <point x="107" y="171" type="line"/>
      <point x="139" y="171" type="line"/>
      <point x="139" y="192" type="line"/>
    </contour>
  </outline>
</glyph>
<glyph name="font-awesome" format="2">
  <advance width="512"/>
  <unicode hex="F003A"/>
  <note>
font-awesome
</note>
  <outline>
    <contour>
      <point x="441" y="405"/>
      <point x="469" y="377"/>
      <point x="469" y="358" type="qcurve" smooth="yes"/>
      <point x="469" y="26" type="line" smooth="yes"/>
      <point x="469" y="7"/>
      <point x="441" y="-21"/>
      <point x="422" y="-21" type="qcurve" smooth="yes"/>
      <point x="90" y="-21" type="line" smooth="yes"/>
      <point x="71" y="-21"/>
      <point x="43" y="7"/>
      <point x="43" y="26" type="qcurve" smooth="yes"/>
      <point x="43" y="358" type="line" smooth="yes"/>
      <point x="43" y="377"/>
      <point x="71" y="405"/>
      <point x="90" y="405" type="qcurve" smooth="yes"/>
      <point x="422" y="405" type="line" smooth="yes"/>
    </contour>
    <contour>
      <point x="378" y="268" type="line" smooth="yes"/>
      <point x="378" y="271"/>
      <point x="373" y="276"/>
      <point x="368" y="276"/>
      <point x="359" y="272" type="qcurve" smooth="yes"/>
      <point x="333" y="260"/>
      <point x="319" y="260" type="qcurve" smooth="yes"/>
      <point x="312" y="260"/>
      <point x="306" y="263" type="qcurve" smooth="yes"/>
      <point x="289" y="269"/>
      <point x="278" y="272" type="qcurve" smooth="yes"/>
      <point x="263" y="276"/>
      <point x="248" y="276" type="qcurve" smooth="yes"/>
      <point x="222" y="276"/>
      <point x="189" y="262" type="qcurve" smooth="yes"/>
      <point x="184" y="260" type="line"/>
      <point x="184" y="277" type="line"/>
      <point x="197" y="287"/>
      <point x="197" y="302" type="qcurve" smooth="yes"/>
      <point x="197" y="316"/>
      <point x="178" y="334"/>
      <point x="152" y="334"/>
      <point x="133" y="316"/>
      <point x="133" y="287"/>
      <point x="145" y="277" type="qcurve"/>
      <point x="145" y="69" type="line" smooth="yes"/>
      <point x="145" y="61"/>
      <point x="157" y="50"/>
      <point x="171" y="50"/>
      <point x="181" y="57"/>
      <point x="183" y="63" type="qcurve"/>
      <point x="183" y="65" type="line"/>
      <point x="184" y="66"/>
      <point x="184" y="69" type="qcurve" smooth="yes"/>
      <point x="184" y="112" type="line"/>
      <point x="187" y="113" type="line" smooth="yes"/>
      <point x="223" y="130"/>
      <point x="251" y="130" type="qcurve" smooth="yes"/>
      <point x="267" y="130"/>
      <point x="289" y="122" type="qcurve" smooth="yes"/>
      <point x="308" y="114"/>
      <point x="320" y="114" type="qcurve" smooth="yes"/>
      <point x="341" y="114"/>
      <point x="371" y="127" type="qcurve" smooth="yes"/>
      <point x="378" y="130"/>
      <point x="378" y="135" type="qcurve" smooth="yes"/>
    </contour>
  </outline>
</glyph>
<glyph name="apps" format="2">
  <advance width="512"/>
  <unicode hex="F003B"/>
  <note>
apps
</note>
  <outline>
    <contour>
      <point x="341" y="107" type="line"/>
      <point x="427" y="107" type="line"/>
      <point x="427" y="21" type="line"/>
      <point x="341" y="21" type="line"/>
    </contour>
    <contour>
      <point x="341" y="235" type="line"/>
      <point x="427" y="235" type="line"/>
      <point x="427" y="149" type="line"/>
      <point x="341" y="149" type="line"/>
    </contour>
    <contour>
      <point x="213" y="363" type="line"/>
      <point x="299" y="363" type="line"/>
      <point x="299" y="277" type="line"/>
      <point x="213" y="277" type="line"/>
    </contour>
    <contour>
      <point x="341" y="363" type="line"/>
      <point x="427" y="363" type="line"/>
      <point x="427" y="277" type="line"/>
      <point x="341" y="277" type="line"/>
    </contour>
    <contour>
      <point x="213" y="235" type="line"/>
      <point x="299" y="235" type="line"/>
      <point x="299" y="149" type="line"/>
      <point x="213" y="149" type="line"/>
    </contour>
    <contour>
      <point x="85" y="235" type="line"/>
      <point x="171" y="235" type="line"/>
      <point x="171" y="149" type="line"/>
      <point x="85" y="149" type="line"/>
    </contour>
    <contour>
      <point x="85" y="107" type="line"/>
      <point x="171" y="107" type="line"/>
      <point x="171" y="21" type="line"/>
      <point x="85" y="21" type="line"/>
    </contour>
    <contour>
      <point x="213" y="107" type="line"/>
      <point x="299" y="107" type="line"/>
      <point x="299" y="21" type="line"/>
      <point x="213" y="21" type="line"/>
    </contour>
    <contour>
      <point x="85" y="363" type="line"/>
      <point x="171" y="363" type="line"/>
      <point x="171" y="277" type="line"/>
      <point x="85" y="277" type="line"/>
    </contour>
  </outline>
</glyph>
<glyph name="archive" format="2">
  <advance width="512"/>
  <unicode hex="F003C"/>
  <note>
archive
</note>
  <outline>
    <contour>
      <point x="64" y="299" type="line"/>
      <point x="448" y="299" type="line"/>
      <point x="448" y="384" type="line"/>
      <point x="64" y="384" type="line"/>
    </contour>
    <contour>
      <point x="85" y="0" type="line"/>
      <point x="427" y="0" type="line"/>
      <point x="427" y="277" type="line"/>
      <point x="85" y="277" type="line"/>
    </contour>
    <contour>
      <point x="309" y="213" type="line" smooth="yes"/>
      <point x="314" y="213"/>
      <point x="320" y="207"/>
      <point x="320" y="203" type="qcurve" smooth="yes"/>
      <point x="320" y="171" type="line"/>
      <point x="192" y="171" type="line"/>
      <point x="192" y="203" type="line" smooth="yes"/>
      <point x="192" y="207"/>
      <point x="198" y="213"/>
      <point x="203" y="213" type="qcurve" smooth="yes"/>
    </contour>
  </outline>
</glyph>
<glyph name="arrange-bring-forward" format="2">
  <advance width="512"/>
  <unicode hex="F003D"/>
  <note>
arrange-bring-forward
</note>
  <outline>
    <contour>
      <point x="43" y="107" type="line"/>
      <point x="341" y="107" type="line"/>
      <point x="341" y="405" type="line"/>
      <point x="43" y="405" type="line"/>
    </contour>
    <contour>
      <point x="384" y="277" type="line"/>
      <point x="384" y="235" type="line"/>
      <point x="427" y="235" type="line"/>
      <point x="427" y="21" type="line"/>
      <point x="213" y="21" type="line"/>
      <point x="213" y="64" type="line"/>
      <point x="171" y="64" type="line"/>
      <point x="171" y="-21" type="line"/>
      <point x="469" y="-21" type="line"/>
      <point x="469" y="277" type="line"/>
    </contour>
  </outline>
</glyph>
<glyph name="arrange-bring-to-front" format="2">
  <advance width="512"/>
  <unicode hex="F003E"/>
  <note>
arrange-bring-to-front
</note>
  <outline>
    <contour>
      <point x="43" y="213" type="line"/>
      <point x="128" y="213" type="line"/>
      <point x="128" y="256" type="line"/>
      <point x="85" y="256" type="line"/>
      <point x="85" y="363" type="line"/>
      <point x="192" y="363" type="line"/>
      <point x="192" y="320" type="line"/>
      <point x="235" y="320" type="line"/>
      <point x="235" y="405" type="line"/>
      <point x="43" y="405" type="line"/>
    </contour>
    <contour>
      <point x="384" y="171" type="line"/>
      <point x="384" y="128" type="line"/>
      <point x="427" y="128" type="line"/>
      <point x="427" y="21" type="line"/>
      <point x="320" y="21" type="line"/>
      <point x="320" y="64" type="line"/>
      <point x="277" y="64" type="line"/>
      <point x="277" y="-21" type="line"/>
      <point x="469" y="-21" type="line"/>
      <point x="469" y="171" type="line"/>
    </contour>
    <contour>
      <point x="171" y="107" type="line"/>
      <point x="341" y="107" type="line"/>
      <point x="341" y="277" type="line"/>
      <point x="171" y="277" type="line"/>
    </contour>
  </outline>
</glyph>
<glyph name="arrange-send-backward" format="2">
  <advance width="512"/>
  <unicode hex="F003F"/>
  <note>
arrange-send-backward
</note>
  <outline>
    <contour>
      <point x="43" y="107" type="line"/>
      <point x="341" y="107" type="line"/>
      <point x="341" y="405" type="line"/>
      <point x="43" y="405" type="line"/>
    </contour>
    <contour>
      <point x="384" y="277" type="line"/>
      <point x="384" y="64" type="line"/>
      <point x="171" y="64" type="line"/>
      <point x="171" y="-21" type="line"/>
      <point x="469" y="-21" type="line"/>
      <point x="469" y="277" type="line"/>
    </contour>
    <contour>
      <point x="299" y="363" type="line"/>
      <point x="299" y="149" type="line"/>
      <point x="85" y="149" type="line"/>
      <point x="85" y="363" type="line"/>
    </contour>
  </outline>
</glyph>
<glyph name="arrange-send-to-back" format="2">
  <advance width="512"/>
  <unicode hex="F0040"/>
  <note>
arrange-send-to-back
</note>
  <outline>
    <contour>
      <point x="43" y="213" type="line"/>
      <point x="235" y="213" type="line"/>
      <point x="235" y="405" type="line"/>
      <point x="43" y="405" type="line"/>
    </contour>
    <contour>
      <point x="192" y="256" type="line"/>
      <point x="85" y="256" type="line"/>
      <point x="85" y="363" type="line"/>
      <point x="192" y="363" type="line"/>
    </contour>
    <contour>
      <point x="277" y="171" type="line"/>
      <point x="277" y="-21" type="line"/>
      <point x="469" y="-21" type="line"/>
      <point x="469" y="171" type="line"/>
    </contour>
    <contour>
      <point x="320" y="128" type="line"/>
      <point x="427" y="128" type="line"/>
      <point x="427" y="21" type="line"/>
      <point x="320" y="21" type="line"/>
    </contour>
    <contour>
      <point x="277" y="277" type="line"/>
      <point x="277" y="213" type="line"/>
      <point x="341" y="213" type="line"/>
      <point x="341" y="277" type="line"/>
    </contour>
    <contour>
      <point x="235" y="171" type="line"/>
      <point x="171" y="171" type="line"/>
      <point x="171" y="107" type="line"/>
      <point x="235" y="107" type="line"/>
    </contour>
  </outline>
</glyph>
<glyph name="arrow-all" format="2">
  <advance width="512"/>
  <unicode hex="F0041"/>
  <note>
arrow-all
</note>
  <outline>
    <contour>
      <point x="277" y="320" type="line"/>
      <point x="309" y="288" type="line"/>
      <point x="340" y="318" type="line"/>
      <point x="256" y="402" type="line"/>
      <point x="172" y="318" type="line"/>
      <point x="203" y="288" type="line"/>
      <point x="235" y="320" type="line"/>
      <point x="235" y="213" type="line"/>
      <point x="128" y="213" type="line"/>
      <point x="160" y="245" type="line"/>
      <point x="130" y="276" type="line"/>
      <point x="46" y="192" type="line"/>
      <point x="130" y="108" type="line"/>
      <point x="160" y="139" type="line"/>
      <point x="128" y="171" type="line"/>
      <point x="235" y="171" type="line"/>
      <point x="235" y="64" type="line"/>
      <point x="203" y="96" type="line"/>
      <point x="172" y="66" type="line"/>
      <point x="256" y="-18" type="line"/>
      <point x="340" y="66" type="line"/>
      <point x="309" y="96" type="line"/>
      <point x="277" y="64" type="line"/>
      <point x="277" y="171" type="line"/>
      <point x="384" y="171" type="line"/>
      <point x="352" y="139" type="line"/>
      <point x="382" y="108" type="line"/>
      <point x="466" y="192" type="line"/>
      <point x="382" y="276" type="line"/>
      <point x="352" y="245" type="line"/>
      <point x="384" y="213" type="line"/>
      <point x="277" y="213" type="line"/>
    </contour>
  </outline>
</glyph>
<glyph name="arrow-bottom-left" format="2">
  <advance width="512"/>
  <unicode hex="F0042"/>
  <note>
arrow-bottom-left
</note>
  <outline>
    <contour>
      <point x="179" y="85" type="line"/>
      <point x="320" y="85" type="line"/>
      <point x="320" y="43" type="line"/>
      <point x="107" y="43" type="line"/>
      <point x="107" y="256" type="line"/>
      <point x="149" y="256" type="line"/>
      <point x="149" y="115" type="line"/>
      <point x="375" y="341" type="line"/>
      <point x="405" y="311" type="line"/>
    </contour>
  </outline>
</glyph>
<glyph name="arrow-bottom-right" format="2">
  <advance width="512"/>
  <unicode hex="F0043"/>
  <note>
arrow-bottom-right
</note>
  <outline>
    <contour>
      <point x="333" y="85" type="line"/>
      <point x="192" y="85" type="line"/>
      <point x="192" y="43" type="line"/>
      <point x="405" y="43" type="line"/>
      <point x="405" y="256" type="line"/>
      <point x="363" y="256" type="line"/>
      <point x="363" y="115" type="line"/>
      <point x="137" y="341" type="line"/>
      <point x="107" y="311" type="line"/>
    </contour>
  </outline>
</glyph>
<glyph name="arrow-collapse-all" format="2">
  <advance width="512"/>
  <unicode hex="F0044"/>
  <note>
arrow-collapse-all
</note>
  <outline>
    <contour>
      <point x="320" y="286" type="line"/>
      <point x="320" y="363" type="line"/>
      <point x="277" y="363" type="line"/>
      <point x="277" y="213" type="line"/>
      <point x="427" y="213" type="line"/>
      <point x="427" y="256" type="line"/>
      <point x="350" y="256" type="line"/>
      <point x="446" y="352" type="line"/>
      <point x="416" y="382" type="line"/>
    </contour>
    <contour>
      <point x="350" y="128" type="line"/>
      <point x="427" y="128" type="line"/>
      <point x="427" y="171" type="line"/>
      <point x="277" y="171" type="line"/>
      <point x="277" y="21" type="line"/>
      <point x="320" y="21" type="line"/>
      <point x="320" y="98" type="line"/>
      <point x="416" y="2" type="line"/>
      <point x="446" y="32" type="line"/>
    </contour>
    <contour>
      <point x="66" y="352" type="line"/>
      <point x="162" y="256" type="line"/>
      <point x="85" y="256" type="line"/>
      <point x="85" y="213" type="line"/>
      <point x="235" y="213" type="line"/>
      <point x="235" y="363" type="line"/>
      <point x="192" y="363" type="line"/>
      <point x="192" y="286" type="line"/>
      <point x="96" y="382" type="line"/>
    </contour>
    <contour>
      <point x="96" y="2" type="line"/>
      <point x="192" y="98" type="line"/>
      <point x="192" y="21" type="line"/>
      <point x="235" y="21" type="line"/>
      <point x="235" y="171" type="line"/>
      <point x="85" y="171" type="line"/>
      <point x="85" y="128" type="line"/>
      <point x="162" y="128" type="line"/>
      <point x="66" y="32" type="line"/>
    </contour>
  </outline>
</glyph>
<glyph name="arrow-down" format="2">
  <advance width="512"/>
  <unicode hex="F0045"/>
  <note>
arrow-down
</note>
  <outline>
    <contour>
      <point x="235" y="107" type="line"/>
      <point x="117" y="224" type="line"/>
      <point x="87" y="194" type="line"/>
      <point x="256" y="25" type="line"/>
      <point x="425" y="194" type="line"/>
      <point x="395" y="224" type="line"/>
      <point x="277" y="107" type="line"/>
      <point x="277" y="363" type="line"/>
      <point x="235" y="363" type="line"/>
    </contour>
  </outline>
</glyph>
<glyph name="arrow-down-thick" format="2">
  <advance width="512"/>
  <unicode hex="F0046"/>
  <note>
arrow-down-thick
</note>
  <outline>
    <contour>
      <point x="213" y="171" type="line"/>
      <point x="139" y="245" type="line"/>
      <point x="87" y="194" type="line"/>
      <point x="256" y="25" type="line"/>
      <point x="425" y="194" type="line"/>
      <point x="373" y="245" type="line"/>
      <point x="299" y="171" type="line"/>
      <point x="299" y="363" type="line"/>
      <point x="213" y="363" type="line"/>
    </contour>
  </outline>
</glyph>
<glyph name="arrow-down-bold-circle" format="2">
  <advance width="512"/>
  <unicode hex="F0047"/>
  <note>
arrow-down-bold-circle
</note>
  <outline>
    <contour>
      <point x="214" y="405"/>
      <point x="135" y="373"/>
      <point x="75" y="313"/>
      <point x="43" y="234"/>
      <point x="43" y="150"/>
      <point x="75" y="71"/>
      <point x="135" y="11"/>
      <point x="214" y="-21"/>
      <point x="298" y="-21"/>
      <point x="377" y="11"/>
      <point x="437" y="71"/>
      <point x="469" y="150"/>
      <point x="469" y="234"/>
      <point x="437" y="313"/>
      <point x="377" y="373"/>
      <point x="298" y="405"/>
      <point x="256" y="405" type="qcurve" smooth="yes"/>
    </contour>
    <contour>
      <point x="149" y="192" type="line"/>
      <point x="213" y="192" type="line"/>
      <point x="213" y="277" type="line"/>
      <point x="299" y="277" type="line"/>
      <point x="299" y="192" type="line"/>
      <point x="363" y="192" type="line"/>
      <point x="256" y="85" type="line"/>
    </contour>
  </outline>
</glyph>
<glyph name="arrow-left" format="2">
  <advance width="512"/>
  <unicode hex="F004D"/>
  <note>
arrow-left
</note>
  <outline>
    <contour>
      <point x="171" y="213" type="line"/>
      <point x="288" y="331" type="line"/>
      <point x="258" y="361" type="line"/>
      <point x="89" y="192" type="line"/>
      <point x="258" y="23" type="line"/>
      <point x="288" y="53" type="line"/>
      <point x="171" y="171" type="line"/>
      <point x="427" y="171" type="line"/>
      <point x="427" y="213" type="line"/>
    </contour>
  </outline>
</glyph>
<glyph name="arrow-left-thick" format="2">
  <advance width="512"/>
  <unicode hex="F004E"/>
  <note>
arrow-left-thick
</note>
  <outline>
    <contour>
      <point x="235" y="235" type="line"/>
      <point x="309" y="309" type="line"/>
      <point x="258" y="361" type="line"/>
      <point x="89" y="192" type="line"/>
      <point x="258" y="23" type="line"/>
      <point x="309" y="75" type="line"/>
      <point x="235" y="149" type="line"/>
      <point x="427" y="149" type="line"/>
      <point x="427" y="235" type="line"/>
    </contour>
  </outline>
</glyph>
<glyph name="arrow-right" format="2">
  <advance width="512"/>
  <unicode hex="F0054"/>
  <note>
arrow-right
</note>
  <outline>
    <contour>
      <point x="341" y="213" type="line"/>
      <point x="224" y="331" type="line"/>
      <point x="254" y="361" type="line"/>
      <point x="423" y="192" type="line"/>
      <point x="254" y="23" type="line"/>
      <point x="224" y="53" type="line"/>
      <point x="341" y="171" type="line"/>
      <point x="85" y="171" type="line"/>
      <point x="85" y="213" type="line"/>
    </contour>
  </outline>
</glyph>
<glyph name="arrow-right-thick" format="2">
  <advance width="512"/>
  <unicode hex="F0055"/>
  <note>
arrow-right-thick
</note>
  <outline>
    <contour>
      <point x="277" y="235" type="line"/>
      <point x="203" y="309" type="line"/>
      <point x="254" y="361" type="line"/>
      <point x="423" y="192" type="line"/>
      <point x="254" y="23" type="line"/>
      <point x="203" y="75" type="line"/>
      <point x="277" y="149" type="line"/>
      <point x="85" y="149" type="line"/>
      <point x="85" y="235" type="line"/>
    </contour>
  </outline>
</glyph>
<glyph name="arrow-right-bold-hexagon-outline" format="2">
  <advance width="512"/>
  <unicode hex="F0058"/>
  <note>
arrow-right-bold-hexagon-outline
</note>
  <outline>
    <contour>
      <point x="256" y="299" type="line"/>
      <point x="256" y="235" type="line"/>
      <point x="171" y="235" type="line"/>
      <point x="171" y="149" type="line"/>
      <point x="256" y="149" type="line"/>
      <point x="256" y="85" type="line"/>
      <point x="363" y="192" type="line"/>
    </contour>
    <contour>
      <point x="448" y="288" type="line" smooth="yes"/>
      <point x="448" y="301"/>
      <point x="437" y="307" type="qcurve" smooth="yes"/>
      <point x="268" y="401" type="line"/>
      <point x="263" y="405"/>
      <point x="249" y="405"/>
      <point x="244" y="401" type="qcurve"/>
      <point x="75" y="307" type="line" smooth="yes"/>
      <point x="64" y="301"/>
      <point x="64" y="288" type="qcurve" smooth="yes"/>
      <point x="64" y="96" type="line" smooth="yes"/>
      <point x="64" y="83"/>
      <point x="75" y="77" type="qcurve" smooth="yes"/>
      <point x="244" y="-17" type="line"/>
      <point x="249" y="-21"/>
      <point x="263" y="-21"/>
      <point x="268" y="-17" type="qcurve"/>
      <point x="437" y="77" type="line" smooth="yes"/>
      <point x="448" y="83"/>
      <point x="448" y="96" type="qcurve" smooth="yes"/>
    </contour>
    <contour>
      <point x="405" y="275" type="line"/>
      <point x="405" y="109" type="line"/>
      <point x="256" y="25" type="line"/>
      <point x="107" y="109" type="line"/>
      <point x="107" y="275" type="line"/>
      <point x="256" y="359" type="line"/>
    </contour>
  </outline>
</glyph>
<glyph name="arrow-right-drop-circle" format="2">
  <advance width="512"/>
  <unicode hex="F0059"/>
  <note>
arrow-right-drop-circle
</note>
  <outline>
    <contour>
      <point x="43" y="150"/>
      <point x="75" y="71"/>
      <point x="135" y="11"/>
      <point x="214" y="-21"/>
      <point x="298" y="-21"/>
      <point x="377" y="11"/>
      <point x="437" y="71"/>
      <point x="469" y="150"/>
      <point x="469" y="234"/>
      <point x="437" y="313"/>
      <point x="377" y="373"/>
      <point x="298" y="405"/>
      <point x="214" y="405"/>
      <point x="135" y="373"/>
      <point x="75" y="313"/>
      <point x="43" y="234"/>
      <point x="43" y="192" type="qcurve" smooth="yes"/>
    </contour>
    <contour>
      <point x="213" y="299" type="line"/>
      <point x="320" y="192" type="line"/>
      <point x="213" y="85" type="line"/>
    </contour>
  </outline>
</glyph>
<glyph name="arrow-top-left" format="2">
  <advance width="512"/>
  <unicode hex="F005B"/>
  <note>
arrow-top-left
</note>
  <outline>
    <contour>
      <point x="179" y="299" type="line"/>
      <point x="320" y="299" type="line"/>
      <point x="320" y="341" type="line"/>
      <point x="107" y="341" type="line"/>
      <point x="107" y="128" type="line"/>
      <point x="149" y="128" type="line"/>
      <point x="149" y="269" type="line"/>
      <point x="375" y="43" type="line"/>
      <point x="405" y="73" type="line"/>
    </contour>
  </outline>
</glyph>
<glyph name="arrow-top-right" format="2">
  <advance width="512"/>
  <unicode hex="F005C"/>
  <note>
arrow-top-right
</note>
  <outline>
    <contour>
      <point x="137" y="43" type="line"/>
      <point x="363" y="269" type="line"/>
      <point x="363" y="128" type="line"/>
      <point x="405" y="128" type="line"/>
      <point x="405" y="341" type="line"/>
      <point x="192" y="341" type="line"/>
      <point x="192" y="299" type="line"/>
      <point x="333" y="299" type="line"/>
      <point x="107" y="73" type="line"/>
    </contour>
  </outline>
</glyph>
<glyph name="arrow-up" format="2">
  <advance width="512"/>
  <unicode hex="F005D"/>
  <note>
arrow-up
</note>
  <outline>
    <contour>
      <point x="277" y="277" type="line"/>
      <point x="395" y="160" type="line"/>
      <point x="425" y="190" type="line"/>
      <point x="256" y="359" type="line"/>
      <point x="87" y="190" type="line"/>
      <point x="117" y="160" type="line"/>
      <point x="235" y="277" type="line"/>
      <point x="235" y="21" type="line"/>
      <point x="277" y="21" type="line"/>
    </contour>
  </outline>
</glyph>
<glyph name="arrow-up-thick" format="2">
  <advance width="512"/>
  <unicode hex="F005E"/>
  <note>
arrow-up-thick
</note>
  <outline>
    <contour>
      <point x="299" y="213" type="line"/>
      <point x="373" y="139" type="line"/>
      <point x="425" y="190" type="line"/>
      <point x="256" y="359" type="line"/>
      <point x="87" y="190" type="line"/>
      <point x="139" y="139" type="line"/>
      <point x="213" y="213" type="line"/>
      <point x="213" y="21" type="line"/>
      <point x="299" y="21" type="line"/>
    </contour>
  </outline>
</glyph>
<glyph name="assistant" format="2">
  <advance width="512"/>
  <unicode hex="F0064"/>
  <note>
assistant
</note>
  <outline>
    <contour>
      <point x="423" y="405"/>
      <point x="448" y="380"/>
      <point x="448" y="363" type="qcurve" smooth="yes"/>
      <point x="448" y="64" type="line" smooth="yes"/>
      <point x="448" y="46"/>
      <point x="423" y="21"/>
      <point x="405" y="21" type="qcurve" smooth="yes"/>
      <point x="320" y="21" type="line"/>
      <point x="256" y="-43" type="line"/>
      <point x="192" y="21" type="line"/>
      <point x="107" y="21" type="line" smooth="yes"/>
      <point x="89" y="21"/>
      <point x="64" y="46"/>
      <point x="64" y="64" type="qcurve" smooth="yes"/>
      <point x="64" y="363" type="line" smooth="yes"/>
      <point x="64" y="380"/>
      <point x="89" y="405"/>
      <point x="107" y="405" type="qcurve" smooth="yes"/>
      <point x="405" y="405" type="line" smooth="yes"/>
    </contour>
    <contour>
      <point x="384" y="213" type="line"/>
      <point x="296" y="253" type="line"/>
      <point x="256" y="341" type="line"/>
      <point x="216" y="253" type="line"/>
      <point x="128" y="213" type="line"/>
      <point x="216" y="173" type="line"/>
      <point x="256" y="85" type="line"/>
      <point x="296" y="173" type="line"/>
    </contour>
  </outline>
</glyph>
<glyph name="at" format="2">
  <advance width="512"/>
  <unicode hex="F0065"/>
  <note>
at
</note>
  <outline>
    <contour>
      <point x="231" y="128"/>
      <point x="192" y="167"/>
      <point x="192" y="217"/>
      <point x="231" y="256"/>
      <point x="281" y="256"/>
      <point x="320" y="217"/>
      <point x="320" y="167"/>
      <point x="281" y="128"/>
      <point x="256" y="128" type="qcurve" smooth="yes"/>
    </contour>
    <contour>
      <point x="169" y="405"/>
      <point x="43" y="279"/>
      <point x="43" y="105"/>
      <point x="169" y="-21"/>
      <point x="256" y="-21" type="qcurve" smooth="yes"/>
      <point x="363" y="-21" type="line"/>
      <point x="363" y="21" type="line"/>
      <point x="256" y="21" type="line" smooth="yes"/>
      <point x="186" y="21"/>
      <point x="85" y="122"/>
      <point x="85" y="262"/>
      <point x="186" y="363"/>
      <point x="326" y="363"/>
      <point x="427" y="262"/>
      <point x="427" y="192" type="qcurve" smooth="yes"/>
      <point x="427" y="161" type="line" smooth="yes"/>
      <point x="427" y="148"/>
      <point x="408" y="128"/>
      <point x="382" y="128"/>
      <point x="363" y="148"/>
      <point x="363" y="161" type="qcurve" smooth="yes"/>
      <point x="363" y="192" type="line" smooth="yes"/>
      <point x="363" y="235"/>
      <point x="299" y="299"/>
      <point x="213" y="299"/>
      <point x="149" y="235"/>
      <point x="149" y="149"/>
      <point x="213" y="85"/>
      <point x="300" y="85"/>
      <point x="332" y="117" type="qcurve"/>
      <point x="356" y="85"/>
      <point x="395" y="85" type="qcurve" smooth="yes"/>
      <point x="426" y="85"/>
      <point x="469" y="130"/>
      <point x="469" y="161" type="qcurve" smooth="yes"/>
      <point x="469" y="192" type="line" smooth="yes"/>
      <point x="469" y="279"/>
      <point x="343" y="405"/>
      <point x="256" y="405" type="qcurve" smooth="yes"/>
    </contour>
  </outline>
</glyph>
<glyph name="attachment" format="2">
  <advance width="512"/>
  <unicode hex="F0066"/>
  <note>
attachment
</note>
  <outline>
    <contour>
      <point x="363" y="64" type="line"/>
      <point x="363" y="96" type="line"/>
      <point x="160" y="96" type="line" smooth="yes"/>
      <point x="125" y="96"/>
      <point x="75" y="146"/>
      <point x="75" y="217"/>
      <point x="125" y="267"/>
      <point x="160" y="267" type="qcurve" smooth="yes"/>
      <point x="384" y="267" type="line" smooth="yes"/>
      <point x="406" y="267"/>
      <point x="437" y="235"/>
      <point x="437" y="191"/>
      <point x="406" y="160"/>
      <point x="384" y="160" type="qcurve" smooth="yes"/>
      <point x="203" y="160" type="line" smooth="yes"/>
      <point x="194" y="160"/>
      <point x="181" y="172"/>
      <point x="181" y="190"/>
      <point x="194" y="203"/>
      <point x="203" y="203" type="qcurve" smooth="yes"/>
      <point x="363" y="203" type="line"/>
      <point x="363" y="235" type="line"/>
      <point x="203" y="235" type="line" smooth="yes"/>
      <point x="181" y="235"/>
      <point x="149" y="203"/>
      <point x="149" y="159"/>
      <point x="181" y="128"/>
      <point x="203" y="128" type="qcurve" smooth="yes"/>
      <point x="384" y="128" type="line" smooth="yes"/>
      <point x="419" y="128"/>
      <point x="469" y="178"/>
      <point x="469" y="249"/>
      <point x="419" y="299"/>
      <point x="384" y="299" type="qcurve" smooth="yes"/>
      <point x="160" y="299" type="line" smooth="yes"/>
      <point x="128" y="299"/>
      <point x="74" y="267"/>
      <point x="43" y="213"/>
      <point x="43" y="181" type="qcurve" smooth="yes"/>
      <point x="43" y="158"/>
      <point x="61" y="115"/>
      <point x="94" y="82"/>
      <point x="137" y="64"/>
      <point x="160" y="64" type="qcurve" smooth="yes"/>
    </contour>
  </outline>
</glyph>
<glyph name="book-music" format="2">
  <advance width="512"/>
  <unicode hex="F0067"/>
  <note>
book-music
</note>
  <outline>
    <contour>
      <point x="277" y="45"/>
      <point x="320" y="97"/>
      <point x="352" y="104" type="qcurve"/>
      <point x="352" y="213" type="line"/>
      <point x="427" y="213" type="line"/>
      <point x="427" y="363" type="line" smooth="yes"/>
      <point x="427" y="380"/>
      <point x="402" y="405"/>
      <point x="384" y="405" type="qcurve" smooth="yes"/>
      <point x="256" y="405" type="line"/>
      <point x="256" y="256" type="line"/>
      <point x="203" y="288" type="line"/>
      <point x="149" y="256" type="line"/>
      <point x="149" y="405" type="line"/>
      <point x="128" y="405" type="line" smooth="yes"/>
      <point x="110" y="405"/>
      <point x="85" y="380"/>
      <point x="85" y="363" type="qcurve" smooth="yes"/>
      <point x="85" y="21" type="line" smooth="yes"/>
      <point x="85" y="4"/>
      <point x="110" y="-21"/>
      <point x="128" y="-21" type="qcurve" smooth="yes"/>
      <point x="283" y="-21" type="line"/>
      <point x="277" y="-6"/>
      <point x="277" y="11" type="qcurve" smooth="yes"/>
    </contour>
    <contour>
      <point x="469" y="171" type="line"/>
      <point x="469" y="128" type="line"/>
      <point x="427" y="128" type="line"/>
      <point x="427" y="11" type="line" smooth="yes"/>
      <point x="427" y="-11"/>
      <point x="395" y="-43"/>
      <point x="351" y="-43"/>
      <point x="320" y="-11"/>
      <point x="320" y="33"/>
      <point x="351" y="64"/>
      <point x="373" y="64" type="qcurve" smooth="yes"/>
      <point x="385" y="64"/>
      <point x="395" y="60" type="qcurve"/>
      <point x="395" y="171" type="line"/>
      <point x="427" y="171" type="line"/>
    </contour>
  </outline>
</glyph>
<glyph name="auto-fix" format="2">
  <advance width="512"/>
  <unicode hex="F0068"/>
  <note>
auto-fix
</note>
  <outline>
    <contour>
      <point x="213" y="299" type="line"/>
      <point x="183" y="352" type="line"/>
      <point x="213" y="405" type="line"/>
      <point x="160" y="375" type="line"/>
      <point x="107" y="405" type="line"/>
      <point x="137" y="352" type="line"/>
      <point x="107" y="299" type="line"/>
      <point x="160" y="329" type="line"/>
    </contour>
    <contour>
      <point x="363" y="149" type="line"/>
      <point x="393" y="96" type="line"/>
      <point x="363" y="43" type="line"/>
      <point x="416" y="73" type="line"/>
      <point x="469" y="43" type="line"/>
      <point x="439" y="96" type="line"/>
      <point x="469" y="149" type="line"/>
      <point x="416" y="119" type="line"/>
    </contour>
    <contour>
      <point x="416" y="375" type="line"/>
      <point x="363" y="405" type="line"/>
      <point x="393" y="352" type="line"/>
      <point x="363" y="299" type="line"/>
      <point x="416" y="329" type="line"/>
      <point x="469" y="299" type="line"/>
      <point x="439" y="352" type="line"/>
      <point x="469" y="405" type="line"/>
    </contour>
    <contour>
      <point x="239" y="221" type="line"/>
      <point x="291" y="273" type="line"/>
      <point x="337" y="227" type="line"/>
      <point x="285" y="175" type="line"/>
    </contour>
    <contour>
      <point x="301" y="299"/>
      <point x="283" y="299"/>
      <point x="276" y="292" type="qcurve" smooth="yes"/>
      <point x="28" y="44" type="line" smooth="yes"/>
      <point x="21" y="37"/>
      <point x="21" y="19"/>
      <point x="28" y="13" type="qcurve" smooth="yes"/>
      <point x="77" y="-36" type="line" smooth="yes"/>
      <point x="83" y="-43"/>
      <point x="101" y="-43"/>
      <point x="108" y="-36" type="qcurve" smooth="yes"/>
      <point x="356" y="212" type="line" smooth="yes"/>
      <point x="363" y="219"/>
      <point x="363" y="237"/>
      <point x="356" y="243" type="qcurve" smooth="yes"/>
      <point x="307" y="292" type="line" smooth="yes"/>
    </contour>
  </outline>
</glyph>
<glyph name="auto-upload" format="2">
  <advance width="512"/>
  <unicode hex="F0069"/>
  <note>
auto-upload
</note>
  <outline>
    <contour>
      <point x="163" y="178" type="line"/>
      <point x="139" y="256" type="line"/>
      <point x="114" y="178" type="line"/>
    </contour>
    <contour>
      <point x="160" y="299" type="line"/>
      <point x="228" y="107" type="line"/>
      <point x="188" y="107" type="line"/>
      <point x="173" y="149" type="line"/>
      <point x="105" y="149" type="line"/>
      <point x="90" y="107" type="line"/>
      <point x="49" y="107" type="line"/>
      <point x="117" y="299" type="line"/>
    </contour>
    <contour>
      <point x="235" y="64" type="line"/>
      <point x="469" y="64" type="line"/>
      <point x="469" y="21" type="line"/>
      <point x="235" y="21" type="line"/>
    </contour>
    <contour>
      <point x="299" y="213" type="line"/>
      <point x="235" y="213" type="line"/>
      <point x="352" y="331" type="line"/>
      <point x="469" y="213" type="line"/>
      <point x="405" y="213" type="line"/>
      <point x="405" y="107" type="line"/>
      <point x="299" y="107" type="line"/>
    </contour>
  </outline>
</glyph>
<glyph name="av-timer" format="2">
  <advance width="512"/>
  <unicode hex="F006B"/>
  <note>
av-timer
</note>
  <outline>
    <contour>
      <point x="235" y="94"/>
      <point x="247" y="107"/>
      <point x="265" y="107"/>
      <point x="277" y="94"/>
      <point x="277" y="76"/>
      <point x="265" y="64"/>
      <point x="247" y="64"/>
      <point x="235" y="76"/>
      <point x="235" y="85" type="qcurve" smooth="yes"/>
    </contour>
    <contour>
      <point x="256" y="384" type="line" smooth="yes"/>
      <point x="308" y="384"/>
      <point x="396" y="332"/>
      <point x="448" y="244"/>
      <point x="448" y="140"/>
      <point x="396" y="52"/>
      <point x="308" y="0"/>
      <point x="204" y="0"/>
      <point x="116" y="52"/>
      <point x="64" y="140"/>
      <point x="64" y="192" type="qcurve" smooth="yes"/>
      <point x="64" y="238"/>
      <point x="105" y="319"/>
      <point x="141" y="345" type="qcurve"/>
      <point x="141" y="346" type="line"/>
      <point x="286" y="201" type="line"/>
      <point x="256" y="171" type="line"/>
      <point x="140" y="286" type="line"/>
      <point x="107" y="245"/>
      <point x="107" y="192" type="qcurve" smooth="yes"/>
      <point x="107" y="151"/>
      <point x="147" y="83"/>
      <point x="215" y="43"/>
      <point x="297" y="43"/>
      <point x="365" y="83"/>
      <point x="405" y="151"/>
      <point x="405" y="192" type="qcurve" smooth="yes"/>
      <point x="405" y="229"/>
      <point x="372" y="293"/>
      <point x="313" y="334"/>
      <point x="277" y="340" type="qcurve"/>
      <point x="277" y="299" type="line"/>
      <point x="235" y="299" type="line"/>
      <point x="235" y="384" type="line"/>
    </contour>
    <contour>
      <point x="384" y="183"/>
      <point x="372" y="171"/>
      <point x="354" y="171"/>
      <point x="341" y="183"/>
      <point x="341" y="201"/>
      <point x="354" y="213"/>
      <point x="372" y="213"/>
      <point x="384" y="201"/>
      <point x="384" y="192" type="qcurve" smooth="yes"/>
    </contour>
    <contour>
      <point x="128" y="201"/>
      <point x="140" y="213"/>
      <point x="158" y="213"/>
      <point x="171" y="201"/>
      <point x="171" y="183"/>
      <point x="158" y="171"/>
      <point x="140" y="171"/>
      <point x="128" y="183"/>
      <point x="128" y="192" type="qcurve" smooth="yes"/>
    </contour>
  </outline>
</glyph>
<glyph name="baby" format="2">
  <advance width="512"/>
  <unicode hex="F006C"/>
  <note>
baby
</note>
  <outline>
    <contour>
      <point x="373" y="363"/>
      <point x="341" y="331"/>
      <point x="341" y="287"/>
      <point x="373" y="256"/>
      <point x="417" y="256"/>
      <point x="448" y="287"/>
      <point x="448" y="331"/>
      <point x="417" y="363"/>
      <point x="395" y="363" type="qcurve" smooth="yes"/>
    </contour>
    <contour>
      <point x="245" y="21" type="line" smooth="yes"/>
      <point x="259" y="21"/>
      <point x="277" y="40"/>
      <point x="277" y="67"/>
      <point x="259" y="85"/>
      <point x="245" y="85" type="qcurve" smooth="yes"/>
      <point x="96" y="85" type="line" smooth="yes"/>
      <point x="83" y="85"/>
      <point x="64" y="67"/>
      <point x="64" y="40"/>
      <point x="83" y="21"/>
      <point x="96" y="21" type="qcurve" smooth="yes"/>
    </contour>
    <contour>
      <point x="348" y="30"/>
      <point x="372" y="19"/>
      <point x="397" y="28"/>
      <point x="408" y="52"/>
      <point x="404" y="64" type="qcurve" smooth="yes"/>
      <point x="343" y="237" type="line" smooth="yes"/>
      <point x="337" y="253"/>
      <point x="327" y="260" type="qcurve" smooth="yes"/>
      <point x="309" y="272"/>
      <point x="267" y="272" type="qcurve" smooth="yes"/>
      <point x="241" y="272"/>
      <point x="216" y="264" type="qcurve" smooth="yes"/>
      <point x="196" y="257"/>
      <point x="177" y="245" type="qcurve" smooth="yes"/>
      <point x="164" y="237"/>
      <point x="153" y="227" type="qcurve" smooth="yes"/>
      <point x="144" y="219" type="line"/>
      <point x="235" y="128" type="line"/>
      <point x="313" y="128" type="line"/>
      <point x="343" y="43" type="line" smooth="yes"/>
    </contour>
  </outline>
</glyph>
<glyph name="backburger" format="2">
  <advance width="512"/>
  <unicode hex="F006D"/>
  <note>
backburger
</note>
  <outline>
    <contour>
      <point x="448" y="171" type="line"/>
      <point x="448" y="213" type="line"/>
      <point x="107" y="213" type="line"/>
      <point x="192" y="299" type="line"/>
      <point x="162" y="329" type="line"/>
      <point x="25" y="192" type="line"/>
      <point x="162" y="55" type="line"/>
      <point x="192" y="85" type="line"/>
      <point x="107" y="171" type="line"/>
    </contour>
    <contour>
      <point x="235" y="320" type="line"/>
      <point x="235" y="277" type="line"/>
      <point x="448" y="277" type="line"/>
      <point x="448" y="320" type="line"/>
    </contour>
    <contour>
      <point x="235" y="107" type="line"/>
      <point x="235" y="64" type="line"/>
      <point x="448" y="64" type="line"/>
      <point x="448" y="107" type="line"/>
    </contour>
  </outline>
</glyph>
<glyph name="backspace" format="2">
  <advance width="512"/>
  <unicode hex="F006E"/>
  <note>
backspace
</note>
  <outline>
    <contour>
      <point x="487" y="384"/>
      <point x="512" y="359"/>
      <point x="512" y="341" type="qcurve" smooth="yes"/>
      <point x="512" y="43" type="line" smooth="yes"/>
      <point x="512" y="25"/>
      <point x="487" y="0"/>
      <point x="469" y="0" type="qcurve" smooth="yes"/>
      <point x="149" y="0" type="line" smooth="yes"/>
      <point x="128" y="0"/>
      <point x="115" y="19" type="qcurve" smooth="yes"/>
      <point x="0" y="192" type="line"/>
      <point x="115" y="365" type="line" smooth="yes"/>
      <point x="128" y="384"/>
      <point x="149" y="384" type="qcurve" smooth="yes"/>
      <point x="469" y="384" type="line" smooth="yes"/>
    </contour>
    <contour>
      <point x="329" y="192" type="line"/>
      <point x="405" y="269" type="line"/>
      <point x="375" y="299" type="line"/>
      <point x="299" y="222" type="line"/>
      <point x="222" y="299" type="line"/>
      <point x="192" y="269" type="line"/>
      <point x="269" y="192" type="line"/>
      <point x="192" y="115" type="line"/>
      <point x="222" y="85" type="line"/>
      <point x="299" y="162" type="line"/>
      <point x="375" y="85" type="line"/>
      <point x="405" y="115" type="line"/>
    </contour>
  </outline>
</glyph>
<glyph name="backup-restore" format="2">
  <advance width="512"/>
  <unicode hex="F006F"/>
  <note>
backup-restore
</note>
  <outline>
    <contour>
      <point x="308" y="384"/>
      <point x="396" y="332"/>
      <point x="448" y="244"/>
      <point x="448" y="140"/>
      <point x="396" y="52"/>
      <point x="308" y="0"/>
      <point x="256" y="0" type="qcurve" smooth="yes"/>
      <point x="191" y="0"/>
      <point x="139" y="40" type="qcurve"/>
      <point x="169" y="70" type="line"/>
      <point x="209" y="43"/>
      <point x="256" y="43" type="qcurve" smooth="yes"/>
      <point x="297" y="43"/>
      <point x="365" y="83"/>
      <point x="405" y="151"/>
      <point x="405" y="233"/>
      <point x="365" y="301"/>
      <point x="297" y="341"/>
      <point x="215" y="341"/>
      <point x="147" y="301"/>
      <point x="107" y="233"/>
      <point x="107" y="192" type="qcurve"/>
      <point x="171" y="192" type="line"/>
      <point x="85" y="107" type="line"/>
      <point x="0" y="192" type="line"/>
      <point x="64" y="192" type="line"/>
      <point x="64" y="244"/>
      <point x="116" y="332"/>
      <point x="204" y="384"/>
      <point x="256" y="384" type="qcurve" smooth="yes"/>
    </contour>
    <contour>
      <point x="299" y="174"/>
      <point x="274" y="149"/>
      <point x="238" y="149"/>
      <point x="213" y="174"/>
      <point x="213" y="210"/>
      <point x="238" y="235"/>
      <point x="274" y="235"/>
      <point x="299" y="210"/>
      <point x="299" y="192" type="qcurve" smooth="yes"/>
    </contour>
  </outline>
</glyph>
<glyph name="bank" format="2">
  <advance width="512"/>
  <unicode hex="F0070"/>
  <note>
bank
</note>
  <outline>
    <contour>
      <point x="448" y="320" type="line"/>
      <point x="448" y="277" type="line"/>
      <point x="43" y="277" type="line"/>
      <point x="43" y="320" type="line"/>
      <point x="245" y="427" type="line"/>
    </contour>
    <contour>
      <point x="405" y="235" type="line"/>
      <point x="405" y="85" type="line"/>
      <point x="341" y="85" type="line"/>
      <point x="341" y="235" type="line"/>
    </contour>
    <contour>
      <point x="43" y="43" type="line"/>
      <point x="448" y="43" type="line"/>
      <point x="448" y="-21" type="line"/>
      <point x="43" y="-21" type="line"/>
    </contour>
    <contour>
      <point x="277" y="235" type="line"/>
      <point x="277" y="85" type="line"/>
      <point x="213" y="85" type="line"/>
      <point x="213" y="235" type="line"/>
    </contour>
    <contour>
      <point x="149" y="235" type="line"/>
      <point x="149" y="85" type="line"/>
      <point x="85" y="85" type="line"/>
      <point x="85" y="235" type="line"/>
    </contour>
  </outline>
</glyph>
<glyph name="barcode" format="2">
  <advance width="512"/>
  <unicode hex="F0071"/>
  <note>
barcode
</note>
  <outline>
    <contour>
      <point x="43" y="64" type="line"/>
      <point x="85" y="64" type="line"/>
      <point x="85" y="320" type="line"/>
      <point x="43" y="320" type="line"/>
    </contour>
    <contour>
      <point x="107" y="64" type="line"/>
      <point x="128" y="64" type="line"/>
      <point x="128" y="320" type="line"/>
      <point x="107" y="320" type="line"/>
    </contour>
    <contour>
      <point x="149" y="64" type="line"/>
      <point x="213" y="64" type="line"/>
      <point x="213" y="320" type="line"/>
      <point x="149" y="320" type="line"/>
    </contour>
    <contour>
      <point x="235" y="64" type="line"/>
      <point x="256" y="64" type="line"/>
      <point x="256" y="320" type="line"/>
      <point x="235" y="320" type="line"/>
    </contour>
    <contour>
      <point x="299" y="64" type="line"/>
      <point x="341" y="64" type="line"/>
      <point x="341" y="320" type="line"/>
      <point x="299" y="320" type="line"/>
    </contour>
    <contour>
      <point x="363" y="64" type="line"/>
      <point x="427" y="64" type="line"/>
      <point x="427" y="320" type="line"/>
      <point x="363" y="320" type="line"/>
    </contour>
    <contour>
      <point x="448" y="64" type="line"/>
      <point x="469" y="64" type="line"/>
      <point x="469" y="320" type="line"/>
      <point x="448" y="320" type="line"/>
    </contour>
  </outline>
</glyph>
<glyph name="barcode-scan" format="2">
  <advance width="512"/>
  <unicode hex="F0072"/>
  <note>
barcode-scan
</note>
  <outline>
    <contour>
      <point x="85" y="64" type="line"/>
      <point x="128" y="64" type="line"/>
      <point x="128" y="320" type="line"/>
      <point x="85" y="320" type="line"/>
    </contour>
    <contour>
      <point x="149" y="64" type="line"/>
      <point x="171" y="64" type="line"/>
      <point x="171" y="320" type="line"/>
      <point x="149" y="320" type="line"/>
    </contour>
    <contour>
      <point x="192" y="64" type="line"/>
      <point x="256" y="64" type="line"/>
      <point x="256" y="320" type="line"/>
      <point x="192" y="320" type="line"/>
    </contour>
    <contour>
      <point x="277" y="64" type="line"/>
      <point x="299" y="64" type="line"/>
      <point x="299" y="320" type="line"/>
      <point x="277" y="320" type="line"/>
    </contour>
    <contour>
      <point x="341" y="64" type="line"/>
      <point x="384" y="64" type="line"/>
      <point x="384" y="320" type="line"/>
      <point x="341" y="320" type="line"/>
    </contour>
    <contour>
      <point x="405" y="64" type="line"/>
      <point x="427" y="64" type="line"/>
      <point x="427" y="320" type="line"/>
      <point x="405" y="320" type="line"/>
    </contour>
    <contour>
      <point x="128" y="363" type="line"/>
      <point x="128" y="405" type="line"/>
      <point x="43" y="405" type="line" smooth="yes"/>
      <point x="25" y="405"/>
      <point x="0" y="380"/>
      <point x="0" y="363" type="qcurve" smooth="yes"/>
      <point x="0" y="277" type="line"/>
      <point x="43" y="277" type="line"/>
      <point x="43" y="363" type="line"/>
    </contour>
    <contour>
      <point x="384" y="405" type="line"/>
      <point x="384" y="363" type="line"/>
      <point x="469" y="363" type="line"/>
      <point x="469" y="277" type="line"/>
      <point x="512" y="277" type="line"/>
      <point x="512" y="363" type="line" smooth="yes"/>
      <point x="512" y="380"/>
      <point x="487" y="405"/>
      <point x="469" y="405" type="qcurve" smooth="yes"/>
    </contour>
    <contour>
      <point x="0" y="107" type="line"/>
      <point x="0" y="21" type="line" smooth="yes"/>
      <point x="0" y="4"/>
      <point x="25" y="-21"/>
      <point x="43" y="-21" type="qcurve" smooth="yes"/>
      <point x="128" y="-21" type="line"/>
      <point x="128" y="21" type="line"/>
      <point x="43" y="21" type="line"/>
      <point x="43" y="107" type="line"/>
    </contour>
    <contour>
      <point x="384" y="21" type="line"/>
      <point x="384" y="-21" type="line"/>
      <point x="469" y="-21" type="line" smooth="yes"/>
      <point x="487" y="-21"/>
      <point x="512" y="4"/>
      <point x="512" y="21" type="qcurve" smooth="yes"/>
      <point x="512" y="107" type="line"/>
      <point x="469" y="107" type="line"/>
      <point x="469" y="21" type="line"/>
    </contour>
  </outline>
</glyph>
<glyph name="barley" format="2">
  <advance width="512"/>
  <unicode hex="F0073"/>
  <note>
barley
</note>
  <outline>
    <contour>
      <point x="167" y="42"/>
      <point x="190" y="25" type="qcurve" smooth="yes"/>
      <point x="206" y="13"/>
      <point x="235" y="-4" type="qcurve"/>
      <point x="235" y="-43" type="line"/>
      <point x="277" y="-43" type="line"/>
      <point x="277" y="-4" type="line"/>
      <point x="306" y="13"/>
      <point x="322" y="25" type="qcurve" smooth="yes"/>
      <point x="345" y="42"/>
      <point x="367" y="73"/>
      <point x="371" y="96" type="qcurve" smooth="yes"/>
      <point x="373" y="110"/>
      <point x="373" y="139" type="qcurve"/>
      <point x="338" y="118"/>
      <point x="322" y="106" type="qcurve" smooth="yes"/>
      <point x="296" y="88"/>
      <point x="284" y="71" type="qcurve" smooth="yes"/>
      <point x="277" y="59" type="line"/>
      <point x="277" y="108" type="line"/>
      <point x="306" y="125"/>
      <point x="322" y="137" type="qcurve" smooth="yes"/>
      <point x="345" y="154"/>
      <point x="367" y="185"/>
      <point x="371" y="208" type="qcurve" smooth="yes"/>
      <point x="373" y="222"/>
      <point x="373" y="251" type="qcurve"/>
      <point x="338" y="230"/>
      <point x="322" y="218" type="qcurve" smooth="yes"/>
      <point x="296" y="200"/>
      <point x="284" y="183" type="qcurve" smooth="yes"/>
      <point x="277" y="171" type="line"/>
      <point x="277" y="220" type="line"/>
      <point x="306" y="237"/>
      <point x="322" y="249" type="qcurve" smooth="yes"/>
      <point x="345" y="266"/>
      <point x="367" y="297"/>
      <point x="371" y="320" type="qcurve" smooth="yes"/>
      <point x="373" y="334"/>
      <point x="373" y="363" type="qcurve"/>
      <point x="338" y="342"/>
      <point x="322" y="330" type="qcurve" smooth="yes"/>
      <point x="296" y="312"/>
      <point x="284" y="295" type="qcurve" smooth="yes"/>
      <point x="279" y="286" type="line"/>
      <point x="285" y="308"/>
      <point x="285" y="327" type="qcurve" smooth="yes"/>
      <point x="285" y="348"/>
      <point x="275" y="375" type="qcurve" smooth="yes"/>
      <point x="270" y="391"/>
      <point x="255" y="422" type="qcurve"/>
      <point x="241" y="389"/>
      <point x="236" y="373" type="qcurve" smooth="yes"/>
      <point x="227" y="345"/>
      <point x="227" y="324" type="qcurve" smooth="yes"/>
      <point x="227" y="307"/>
      <point x="233" y="285" type="qcurve" smooth="yes"/>
      <point x="231" y="291"/>
      <point x="228" y="295" type="qcurve" smooth="yes"/>
      <point x="216" y="312"/>
      <point x="190" y="330" type="qcurve" smooth="yes"/>
      <point x="174" y="342"/>
      <point x="139" y="363" type="qcurve"/>
      <point x="139" y="334"/>
      <point x="141" y="320" type="qcurve" smooth="yes"/>
      <point x="145" y="297"/>
      <point x="167" y="266"/>
      <point x="190" y="249" type="qcurve" smooth="yes"/>
      <point x="206" y="237"/>
      <point x="235" y="220" type="qcurve"/>
      <point x="235" y="171" type="line"/>
      <point x="228" y="183" type="line" smooth="yes"/>
      <point x="216" y="200"/>
      <point x="190" y="218" type="qcurve" smooth="yes"/>
      <point x="174" y="230"/>
      <point x="139" y="251" type="qcurve"/>
      <point x="139" y="222"/>
      <point x="141" y="208" type="qcurve" smooth="yes"/>
      <point x="145" y="185"/>
      <point x="167" y="154"/>
      <point x="190" y="137" type="qcurve" smooth="yes"/>
      <point x="206" y="125"/>
      <point x="235" y="108" type="qcurve"/>
      <point x="235" y="59" type="line"/>
      <point x="228" y="71" type="line" smooth="yes"/>
      <point x="216" y="88"/>
      <point x="190" y="106" type="qcurve" smooth="yes"/>
      <point x="174" y="118"/>
      <point x="139" y="139" type="qcurve"/>
      <point x="139" y="110"/>
      <point x="141" y="96" type="qcurve" smooth="yes"/>
      <point x="145" y="73"/>
      <point x="156" y="57" type="qcurve" smooth="yes"/>
    </contour>
  </outline>
</glyph>
<glyph name="barrel" format="2">
  <advance width="512"/>
  <unicode hex="F0074"/>
  <note>
barrel
</note>
  <outline>
    <contour>
      <point x="405" y="171" type="line"/>
      <point x="405" y="43" type="line"/>
      <point x="427" y="43" type="line" smooth="yes"/>
      <point x="435" y="43"/>
      <point x="448" y="30"/>
      <point x="448" y="13"/>
      <point x="435" y="0"/>
      <point x="427" y="0" type="qcurve" smooth="yes"/>
      <point x="85" y="0" type="line" smooth="yes"/>
      <point x="77" y="0"/>
      <point x="64" y="13"/>
      <point x="64" y="30"/>
      <point x="77" y="43"/>
      <point x="85" y="43" type="qcurve" smooth="yes"/>
      <point x="107" y="43" type="line"/>
      <point x="107" y="171" type="line"/>
      <point x="85" y="171" type="line" smooth="yes"/>
      <point x="77" y="171"/>
      <point x="64" y="183"/>
      <point x="64" y="201"/>
      <point x="77" y="213"/>
      <point x="85" y="213" type="qcurve" smooth="yes"/>
      <point x="107" y="213" type="line"/>
      <point x="107" y="341" type="line"/>
      <point x="85" y="341" type="line" smooth="yes"/>
      <point x="77" y="341"/>
      <point x="64" y="354"/>
      <point x="64" y="371"/>
      <point x="77" y="384"/>
      <point x="85" y="384" type="qcurve" smooth="yes"/>
      <point x="427" y="384" type="line" smooth="yes"/>
      <point x="435" y="384"/>
      <point x="448" y="371"/>
      <point x="448" y="354"/>
      <point x="435" y="341"/>
      <point x="427" y="341" type="qcurve" smooth="yes"/>
      <point x="405" y="341" type="line"/>
      <point x="405" y="213" type="line"/>
      <point x="427" y="213" type="line" smooth="yes"/>
      <point x="435" y="213"/>
      <point x="448" y="201"/>
      <point x="448" y="183"/>
      <point x="435" y="171"/>
      <point x="427" y="171" type="qcurve" smooth="yes"/>
    </contour>
    <contour>
      <point x="283" y="107"/>
      <point x="320" y="144"/>
      <point x="320" y="170" type="qcurve" smooth="yes"/>
      <point x="320" y="187"/>
      <point x="311" y="200" type="qcurve" smooth="yes"/>
      <point x="305" y="211"/>
      <point x="277" y="243" type="qcurve" smooth="yes"/>
      <point x="256" y="267" type="line"/>
      <point x="237" y="245" type="line" smooth="yes"/>
      <point x="207" y="211"/>
      <point x="201" y="200" type="qcurve" smooth="yes"/>
      <point x="192" y="187"/>
      <point x="192" y="170" type="qcurve" smooth="yes"/>
      <point x="192" y="144"/>
      <point x="229" y="107"/>
      <point x="256" y="107" type="qcurve" smooth="yes"/>
    </contour>
  </outline>
</glyph>
<glyph name="incognito-off" format="2">
  <advance width="512"/>
  <unicode hex="F0075"/>
  <note>
incognito-off
</note>
  <outline>
    <contour>
      <point x="445" y="-37" type="line"/>
      <point x="399" y="8" type="line"/>
      <point x="383" y="0"/>
      <point x="364" y="0" type="qcurve" smooth="yes"/>
      <point x="331" y="0"/>
      <point x="284" y="45"/>
      <point x="281" y="78" type="qcurve"/>
      <point x="266" y="88"/>
      <point x="250" y="86" type="qcurve" smooth="yes"/>
      <point x="240" y="85"/>
      <point x="231" y="79" type="qcurve"/>
      <point x="229" y="45"/>
      <point x="181" y="0"/>
      <point x="113" y="0"/>
      <point x="64" y="50"/>
      <point x="64" y="121"/>
      <point x="113" y="171"/>
      <point x="148" y="171" type="qcurve" smooth="yes"/>
      <point x="177" y="171"/>
      <point x="223" y="133"/>
      <point x="230" y="105" type="qcurve"/>
      <point x="255" y="116"/>
      <point x="282" y="105" type="qcurve"/>
      <point x="285" y="113"/>
      <point x="288" y="120" type="qcurve"/>
      <point x="216" y="192" type="line"/>
      <point x="43" y="192" type="line"/>
      <point x="43" y="224" type="line"/>
      <point x="184" y="224" type="line"/>
      <point x="152" y="256" type="line"/>
      <point x="128" y="256" type="line"/>
      <point x="135" y="273" type="line"/>
      <point x="24" y="384" type="line"/>
      <point x="51" y="411" type="line"/>
      <point x="472" y="-10" type="line"/>
    </contour>
    <contour>
      <point x="173" y="24"/>
      <point x="208" y="60"/>
      <point x="208" y="111"/>
      <point x="173" y="146"/>
      <point x="123" y="146"/>
      <point x="88" y="111"/>
      <point x="88" y="60"/>
      <point x="123" y="24"/>
      <point x="148" y="24" type="qcurve" smooth="yes"/>
    </contour>
    <contour>
      <point x="372" y="24"/>
      <point x="381" y="27" type="qcurve"/>
      <point x="306" y="101" type="line"/>
      <point x="304" y="93"/>
      <point x="304" y="85" type="qcurve" smooth="yes"/>
      <point x="304" y="60"/>
      <point x="339" y="24"/>
      <point x="364" y="24" type="qcurve" smooth="yes"/>
    </contour>
    <contour>
      <point x="469" y="224" type="line"/>
      <point x="292" y="224" type="line"/>
      <point x="324" y="192" type="line"/>
      <point x="469" y="192" type="line"/>
    </contour>
    <contour>
      <point x="356" y="171"/>
      <point x="348" y="169" type="qcurve"/>
      <point x="371" y="146" type="line"/>
      <point x="391" y="143"/>
      <point x="421" y="114"/>
      <point x="423" y="93" type="qcurve"/>
      <point x="447" y="70" type="line"/>
      <point x="448" y="78"/>
      <point x="448" y="85" type="qcurve" smooth="yes"/>
      <point x="448" y="121"/>
      <point x="399" y="171"/>
      <point x="364" y="171" type="qcurve" smooth="yes"/>
    </contour>
    <contour>
      <point x="384" y="256" type="line"/>
      <point x="332" y="392" type="line"/>
      <point x="328" y="400"/>
      <point x="312" y="407"/>
      <point x="303" y="404" type="qcurve" smooth="yes"/>
      <point x="256" y="388" type="line"/>
      <point x="207" y="404" type="line" smooth="yes"/>
      <point x="199" y="407"/>
      <point x="183" y="399"/>
      <point x="180" y="391" type="qcurve" smooth="yes"/>
      <point x="165" y="352" type="line"/>
      <point x="260" y="256" type="line"/>
    </contour>
  </outline>
</glyph>
<glyph name="basket-fill" format="2">
  <advance width="512"/>
  <unicode hex="F0077"/>
  <note>
basket-fill
</note>
  <outline>
    <contour>
      <point x="64" y="341" type="line"/>
      <point x="128" y="341" type="line"/>
      <point x="128" y="405" type="line"/>
      <point x="64" y="405" type="line"/>
    </contour>
    <contour>
      <point x="128" y="235" type="line"/>
      <point x="192" y="235" type="line"/>
      <point x="192" y="299" type="line"/>
      <point x="128" y="299" type="line"/>
    </contour>
    <contour>
      <point x="171" y="341" type="line"/>
      <point x="235" y="341" type="line"/>
      <point x="235" y="405" type="line"/>
      <point x="171" y="405" type="line"/>
    </contour>
    <contour>
      <point x="469" y="320" type="line"/>
      <point x="405" y="320" type="line"/>
      <point x="405" y="405" type="line"/>
      <point x="320" y="405" type="line"/>
      <point x="320" y="320" type="line"/>
      <point x="256" y="320" type="line"/>
      <point x="363" y="213" type="line"/>
    </contour>
    <contour>
      <point x="352" y="-21" type="line" smooth="yes"/>
      <point x="364" y="-21"/>
      <point x="385" y="-8"/>
      <point x="390" y="2" type="qcurve"/>
      <point x="447" y="164" type="line"/>
      <point x="448" y="171" type="line" smooth="yes"/>
      <point x="448" y="180"/>
      <point x="436" y="192"/>
      <point x="427" y="192" type="qcurve" smooth="yes"/>
      <point x="85" y="192" type="line" smooth="yes"/>
      <point x="76" y="192"/>
      <point x="64" y="180"/>
      <point x="64" y="171" type="qcurve"/>
      <point x="66" y="161" type="line"/>
      <point x="122" y="2" type="line"/>
      <point x="127" y="-8"/>
      <point x="148" y="-21"/>
      <point x="160" y="-21" type="qcurve" smooth="yes"/>
    </contour>
    <contour>
      <point x="116" y="149" type="line"/>
      <point x="396" y="149" type="line"/>
      <point x="350" y="21" type="line"/>
      <point x="162" y="21" type="line"/>
    </contour>
  </outline>
</glyph>
<glyph name="battery-30" format="2">
  <advance width="512"/>
  <unicode hex="F007C"/>
  <note>
battery-30
</note>
  <outline>
    <contour>
      <point x="341" y="320" type="line"/>
      <point x="171" y="320" type="line"/>
      <point x="171" y="128" type="line"/>
      <point x="341" y="128" type="line"/>
    </contour>
    <contour>
      <point x="367" y="363"/>
      <point x="384" y="346"/>
      <point x="384" y="334" type="qcurve" smooth="yes"/>
      <point x="384" y="7" type="line" smooth="yes"/>
      <point x="384" y="-5"/>
      <point x="367" y="-21"/>
      <point x="356" y="-21" type="qcurve" smooth="yes"/>
      <point x="156" y="-21" type="line" smooth="yes"/>
      <point x="145" y="-21"/>
      <point x="128" y="-5"/>
      <point x="128" y="7" type="qcurve" smooth="yes"/>
      <point x="128" y="334" type="line" smooth="yes"/>
      <point x="128" y="346"/>
      <point x="145" y="363"/>
      <point x="156" y="363" type="qcurve" smooth="yes"/>
      <point x="192" y="363" type="line"/>
      <point x="192" y="405" type="line"/>
      <point x="320" y="405" type="line"/>
      <point x="320" y="363" type="line"/>
      <point x="356" y="363" type="line" smooth="yes"/>
    </contour>
  </outline>
</glyph>
<glyph name="battery-alert" format="2">
  <advance width="512"/>
  <unicode hex="F0083"/>
  <note>
battery-alert
</note>
  <outline>
    <contour>
      <point x="277" y="277" type="line"/>
      <point x="235" y="277" type="line"/>
      <point x="235" y="149" type="line"/>
      <point x="277" y="149" type="line"/>
    </contour>
    <contour>
      <point x="277" y="107" type="line"/>
      <point x="235" y="107" type="line"/>
      <point x="235" y="64" type="line"/>
      <point x="277" y="64" type="line"/>
    </contour>
    <contour>
      <point x="368" y="363"/>
      <point x="383" y="346"/>
      <point x="382" y="335" type="qcurve"/>
      <point x="382" y="6" type="line" smooth="yes"/>
      <point x="382" y="-5"/>
      <point x="365" y="-21"/>
      <point x="354" y="-21" type="qcurve" smooth="yes"/>
      <point x="156" y="-21" type="line" smooth="yes"/>
      <point x="144" y="-21"/>
      <point x="128" y="-4"/>
      <point x="128" y="9" type="qcurve" smooth="yes"/>
      <point x="128" y="335" type="line" smooth="yes"/>
      <point x="128" y="346"/>
      <point x="145" y="363"/>
      <point x="156" y="363" type="qcurve" smooth="yes"/>
      <point x="192" y="363" type="line"/>
      <point x="192" y="405" type="line"/>
      <point x="320" y="405" type="line"/>
      <point x="320" y="363" type="line"/>
      <point x="356" y="363" type="line" smooth="yes"/>
    </contour>
  </outline>
</glyph>
<glyph name="battery-charging" format="2">
  <advance width="512"/>
  <unicode hex="F0084"/>
  <note>
battery-charging
</note>
  <outline>
    <contour>
      <point x="367" y="363"/>
      <point x="384" y="346"/>
      <point x="384" y="334" type="qcurve" smooth="yes"/>
      <point x="384" y="7" type="line" smooth="yes"/>
      <point x="384" y="-5"/>
      <point x="367" y="-21"/>
      <point x="355" y="-21" type="qcurve" smooth="yes"/>
      <point x="156" y="-21" type="line" smooth="yes"/>
      <point x="145" y="-21"/>
      <point x="128" y="-5"/>
      <point x="128" y="7" type="qcurve" smooth="yes"/>
      <point x="128" y="334" type="line" smooth="yes"/>
      <point x="128" y="346"/>
      <point x="145" y="363"/>
      <point x="156" y="363" type="qcurve" smooth="yes"/>
      <point x="192" y="363" type="line"/>
      <point x="192" y="405" type="line"/>
      <point x="320" y="405" type="line"/>
      <point x="320" y="363" type="line"/>
      <point x="356" y="363" type="line" smooth="yes"/>
    </contour>
    <contour>
      <point x="320" y="181" type="line"/>
      <point x="277" y="181" type="line"/>
      <point x="277" y="299" type="line"/>
      <point x="192" y="139" type="line"/>
      <point x="235" y="139" type="line"/>
      <point x="235" y="21" type="line"/>
    </contour>
  </outline>
</glyph>
<glyph name="battery-charging-40" format="2">
  <advance width="512"/>
  <unicode hex="F0088"/>
  <note>
battery-charging-40
</note>
  <outline>
    <contour>
      <point x="287" y="363"/>
      <point x="299" y="351"/>
      <point x="299" y="341" type="qcurve" smooth="yes"/>
      <point x="299" y="0" type="line" smooth="yes"/>
      <point x="299" y="-10"/>
      <point x="287" y="-21"/>
      <point x="277" y="-21" type="qcurve" smooth="yes"/>
      <point x="64" y="-21" type="line" smooth="yes"/>
      <point x="54" y="-21"/>
      <point x="43" y="-10"/>
      <point x="43" y="0" type="qcurve" smooth="yes"/>
      <point x="43" y="341" type="line" smooth="yes"/>
      <point x="43" y="351"/>
      <point x="54" y="363"/>
      <point x="64" y="363" type="qcurve" smooth="yes"/>
      <point x="107" y="363" type="line"/>
      <point x="107" y="405" type="line"/>
      <point x="235" y="405" type="line"/>
      <point x="235" y="363" type="line"/>
      <point x="277" y="363" type="line" smooth="yes"/>
    </contour>
    <contour>
      <point x="256" y="320" type="line"/>
      <point x="85" y="320" type="line"/>
      <point x="85" y="139" type="line"/>
      <point x="256" y="139" type="line"/>
    </contour>
    <contour>
      <point x="384" y="-21" type="line"/>
      <point x="384" y="149" type="line"/>
      <point x="320" y="149" type="line"/>
      <point x="427" y="363" type="line"/>
      <point x="427" y="213" type="line"/>
      <point x="491" y="213" type="line"/>
    </contour>
  </outline>
</glyph>
<glyph name="battery-plus-variant" format="2">
  <advance width="512"/>
  <unicode hex="F008F"/>
  <note>
battery-plus-variant
</note>
  <outline>
    <contour>
      <point x="320" y="363" type="line"/>
      <point x="320" y="405" type="line"/>
      <point x="192" y="405" type="line"/>
      <point x="192" y="363" type="line"/>
      <point x="156" y="363" type="line" smooth="yes"/>
      <point x="145" y="363"/>
      <point x="128" y="346"/>
      <point x="128" y="334" type="qcurve" smooth="yes"/>
      <point x="128" y="7" type="line" smooth="yes"/>
      <point x="128" y="-5"/>
      <point x="145" y="-21"/>
      <point x="156" y="-21" type="qcurve" smooth="yes"/>
      <point x="356" y="-21" type="line" smooth="yes"/>
      <point x="367" y="-21"/>
      <point x="384" y="-5"/>
      <point x="384" y="7" type="qcurve" smooth="yes"/>
      <point x="384" y="334" type="line" smooth="yes"/>
      <point x="384" y="346"/>
      <point x="367" y="363"/>
      <point x="356" y="363" type="qcurve" smooth="yes"/>
    </contour>
    <contour>
      <point x="277" y="149" type="line"/>
      <point x="277" y="85" type="line"/>
      <point x="235" y="85" type="line"/>
      <point x="235" y="149" type="line"/>
      <point x="171" y="149" type="line"/>
      <point x="171" y="192" type="line"/>
      <point x="235" y="192" type="line"/>
      <point x="235" y="256" type="line"/>
      <point x="277" y="256" type="line"/>
      <point x="277" y="192" type="line"/>
      <point x="341" y="192" type="line"/>
      <point x="341" y="149" type="line"/>
    </contour>
  </outline>
</glyph>
<glyph name="battery-positive" format="2">
  <advance width="512"/>
  <unicode hex="F0090"/>
  <note>
battery-positive
</note>
  <outline>
    <contour>
      <point x="213" y="363" type="line"/>
      <point x="213" y="405" type="line"/>
      <point x="85" y="405" type="line"/>
      <point x="85" y="363" type="line"/>
      <point x="50" y="363" type="line" smooth="yes"/>
      <point x="38" y="363"/>
      <point x="21" y="346"/>
      <point x="21" y="334" type="qcurve" smooth="yes"/>
      <point x="21" y="7" type="line" smooth="yes"/>
      <point x="21" y="-5"/>
      <point x="38" y="-21"/>
      <point x="50" y="-21" type="qcurve" smooth="yes"/>
      <point x="249" y="-21" type="line" smooth="yes"/>
      <point x="261" y="-21"/>
      <point x="277" y="-5"/>
      <point x="277" y="7" type="qcurve" smooth="yes"/>
      <point x="277" y="334" type="line" smooth="yes"/>
      <point x="277" y="346"/>
      <point x="261" y="363"/>
      <point x="249" y="363" type="qcurve" smooth="yes"/>
    </contour>
    <contour>
      <point x="491" y="192" type="line"/>
      <point x="427" y="192" type="line"/>
      <point x="427" y="256" type="line"/>
      <point x="384" y="256" type="line"/>
      <point x="384" y="192" type="line"/>
      <point x="320" y="192" type="line"/>
      <point x="320" y="149" type="line"/>
      <point x="384" y="149" type="line"/>
      <point x="384" y="85" type="line"/>
      <point x="427" y="85" type="line"/>
      <point x="427" y="149" type="line"/>
      <point x="491" y="149" type="line"/>
    </contour>
    <contour>
      <point x="64" y="320" type="line"/>
      <point x="235" y="320" type="line"/>
      <point x="235" y="171" type="line"/>
      <point x="64" y="171" type="line"/>
    </contour>
  </outline>
</glyph>
<glyph name="battery-unknown" format="2">
  <advance width="512"/>
  <unicode hex="F0091"/>
  <note>
battery-unknown
</note>
  <outline>
    <contour>
      <point x="341" y="207"/>
      <point x="341" y="235" type="qcurve" smooth="yes"/>
      <point x="341" y="270"/>
      <point x="291" y="320"/>
      <point x="221" y="320"/>
      <point x="171" y="270"/>
      <point x="171" y="235" type="qcurve"/>
      <point x="213" y="235" type="line"/>
      <point x="213" y="252"/>
      <point x="238" y="277"/>
      <point x="274" y="277"/>
      <point x="299" y="252"/>
      <point x="299" y="217"/>
      <point x="286" y="205" type="qcurve" smooth="yes"/>
      <point x="260" y="178" type="line" smooth="yes"/>
      <point x="239" y="157"/>
      <point x="236" y="128" type="qcurve"/>
      <point x="279" y="128" type="line"/>
      <point x="282" y="140"/>
      <point x="288" y="150" type="qcurve" smooth="yes"/>
      <point x="292" y="157"/>
      <point x="302" y="167" type="qcurve" smooth="yes"/>
      <point x="321" y="187" type="line" smooth="yes"/>
    </contour>
    <contour>
      <point x="277" y="85" type="line"/>
      <point x="235" y="85" type="line"/>
      <point x="235" y="43" type="line"/>
      <point x="277" y="43" type="line"/>
    </contour>
    <contour>
      <point x="367" y="363"/>
      <point x="384" y="346"/>
      <point x="384" y="334" type="qcurve" smooth="yes"/>
      <point x="384" y="7" type="line" smooth="yes"/>
      <point x="384" y="-5"/>
      <point x="367" y="-21"/>
      <point x="356" y="-21" type="qcurve" smooth="yes"/>
      <point x="156" y="-21" type="line" smooth="yes"/>
      <point x="145" y="-21"/>
      <point x="128" y="-5"/>
      <point x="128" y="7" type="qcurve" smooth="yes"/>
      <point x="128" y="334" type="line" smooth="yes"/>
      <point x="128" y="346"/>
      <point x="145" y="363"/>
      <point x="156" y="363" type="qcurve" smooth="yes"/>
      <point x="192" y="363" type="line"/>
      <point x="192" y="405" type="line"/>
      <point x="320" y="405" type="line"/>
      <point x="320" y="363" type="line"/>
      <point x="356" y="363" type="line" smooth="yes"/>
    </contour>
  </outline>
</glyph>
<glyph name="beach" format="2">
  <advance width="512"/>
  <unicode hex="F0092"/>
  <note>
beach
</note>
  <outline>
    <contour>
      <point x="320" y="184" type="line"/>
      <point x="348" y="175"/>
      <point x="363" y="150" type="qcurve"/>
      <point x="373" y="167"/>
      <point x="407" y="187"/>
      <point x="447" y="187"/>
      <point x="481" y="167"/>
      <point x="491" y="150" type="qcurve"/>
      <point x="490" y="188"/>
      <point x="445" y="252"/>
      <point x="367" y="294"/>
      <point x="320" y="298" type="qcurve"/>
      <point x="320" y="299" type="line" smooth="yes"/>
      <point x="320" y="308"/>
      <point x="308" y="320"/>
      <point x="290" y="320"/>
      <point x="277" y="308"/>
      <point x="277" y="299" type="qcurve" smooth="yes"/>
      <point x="277" y="298" type="line"/>
      <point x="230" y="294"/>
      <point x="152" y="252"/>
      <point x="107" y="188"/>
      <point x="107" y="150" type="qcurve"/>
      <point x="117" y="167"/>
      <point x="151" y="187"/>
      <point x="191" y="187"/>
      <point x="225" y="167"/>
      <point x="235" y="150" type="qcurve"/>
      <point x="250" y="175"/>
      <point x="277" y="183" type="qcurve"/>
      <point x="277" y="45" type="line"/>
      <point x="229" y="35"/>
      <point x="188" y="22" type="qcurve" smooth="yes"/>
      <point x="151" y="10"/>
      <point x="107" y="-14"/>
      <point x="107" y="-21" type="qcurve"/>
      <point x="469" y="-21" type="line"/>
      <point x="469" y="64" type="line"/>
      <point x="394" y="64"/>
      <point x="320" y="52" type="qcurve"/>
    </contour>
    <contour>
      <point x="43" y="405" type="line"/>
      <point x="43" y="299" type="line"/>
      <point x="72" y="299"/>
      <point x="121" y="327"/>
      <point x="149" y="376"/>
      <point x="149" y="405" type="qcurve"/>
    </contour>
  </outline>
</glyph>
<glyph name="flask-empty" format="2">
  <advance width="512"/>
  <unicode hex="F0094"/>
  <note>
flask-empty
</note>
  <outline>
    <contour>
      <point x="384" y="-21" type="line" smooth="yes"/>
      <point x="411" y="-21"/>
      <point x="448" y="16"/>
      <point x="448" y="43" type="qcurve" smooth="yes"/>
      <point x="448" y="62"/>
      <point x="437" y="77" type="qcurve"/>
      <point x="320" y="281" type="line"/>
      <point x="320" y="320" type="line"/>
      <point x="329" y="320"/>
      <point x="341" y="332"/>
      <point x="341" y="341" type="qcurve" smooth="yes"/>
      <point x="341" y="363" type="line" smooth="yes"/>
      <point x="341" y="380"/>
      <point x="316" y="405"/>
      <point x="299" y="405" type="qcurve" smooth="yes"/>
      <point x="213" y="405" type="line" smooth="yes"/>
      <point x="196" y="405"/>
      <point x="171" y="380"/>
      <point x="171" y="363" type="qcurve" smooth="yes"/>
      <point x="171" y="341" type="line" smooth="yes"/>
      <point x="171" y="332"/>
      <point x="183" y="320"/>
      <point x="192" y="320" type="qcurve"/>
      <point x="192" y="281" type="line"/>
      <point x="75" y="77" type="line"/>
      <point x="64" y="62"/>
      <point x="64" y="43" type="qcurve" smooth="yes"/>
      <point x="64" y="16"/>
      <point x="101" y="-21"/>
      <point x="128" y="-21" type="qcurve" smooth="yes"/>
    </contour>
  </outline>
</glyph>
<glyph name="flask-empty-outline" format="2">
  <advance width="512"/>
  <unicode hex="F0095"/>
  <note>
flask-empty-outline
</note>
  <outline>
    <contour>
      <point x="107" y="49"/>
      <point x="111" y="55" type="qcurve" smooth="yes"/>
      <point x="235" y="270" type="line"/>
      <point x="235" y="363" type="line"/>
      <point x="277" y="363" type="line"/>
      <point x="277" y="270" type="line"/>
      <point x="401" y="55" type="line" smooth="yes"/>
      <point x="405" y="49"/>
      <point x="405" y="43" type="qcurve" smooth="yes"/>
      <point x="405" y="34"/>
      <point x="393" y="21"/>
      <point x="384" y="21" type="qcurve" smooth="yes"/>
      <point x="128" y="21" type="line" smooth="yes"/>
      <point x="119" y="21"/>
      <point x="107" y="34"/>
      <point x="107" y="43" type="qcurve" smooth="yes"/>
    </contour>
    <contour>
      <point x="384" y="-21" type="line" smooth="yes"/>
      <point x="411" y="-21"/>
      <point x="448" y="16"/>
      <point x="448" y="43" type="qcurve" smooth="yes"/>
      <point x="448" y="62"/>
      <point x="437" y="77" type="qcurve"/>
      <point x="320" y="281" type="line"/>
      <point x="320" y="320" type="line"/>
      <point x="329" y="320"/>
      <point x="341" y="332"/>
      <point x="341" y="341" type="qcurve" smooth="yes"/>
      <point x="341" y="363" type="line" smooth="yes"/>
      <point x="341" y="380"/>
      <point x="316" y="405"/>
      <point x="299" y="405" type="qcurve" smooth="yes"/>
      <point x="213" y="405" type="line" smooth="yes"/>
      <point x="196" y="405"/>
      <point x="171" y="380"/>
      <point x="171" y="363" type="qcurve" smooth="yes"/>
      <point x="171" y="341" type="line" smooth="yes"/>
      <point x="171" y="332"/>
      <point x="183" y="320"/>
      <point x="192" y="320" type="qcurve"/>
      <point x="192" y="281" type="line"/>
      <point x="75" y="77" type="line"/>
      <point x="64" y="62"/>
      <point x="64" y="43" type="qcurve" smooth="yes"/>
      <point x="64" y="16"/>
      <point x="101" y="-21"/>
      <point x="128" y="-21" type="qcurve" smooth="yes"/>
    </contour>
  </outline>
</glyph>
<glyph name="bunk-bed-outline" format="2">
  <advance width="512"/>
  <unicode hex="F0097"/>
  <note>
bunk-bed-outline
</note>
  <outline>
    <contour>
      <point x="21" y="-43" type="line"/>
      <point x="64" y="-43" type="line"/>
      <point x="64" y="0" type="line"/>
      <point x="448" y="0" type="line"/>
      <point x="448" y="-43" type="line"/>
      <point x="491" y="-43" type="line"/>
      <point x="491" y="299" type="line" smooth="yes"/>
      <point x="491" y="334"/>
      <point x="441" y="384"/>
      <point x="405" y="384" type="qcurve" smooth="yes"/>
      <point x="213" y="384" type="line"/>
      <point x="213" y="256" type="line"/>
      <point x="64" y="256" type="line"/>
      <point x="64" y="405" type="line"/>
      <point x="21" y="405" type="line"/>
    </contour>
    <contour>
      <point x="405" y="341" type="line" smooth="yes"/>
      <point x="423" y="341"/>
      <point x="448" y="316"/>
      <point x="448" y="299" type="qcurve" smooth="yes"/>
      <point x="448" y="256" type="line"/>
      <point x="256" y="256" type="line"/>
      <point x="256" y="341" type="line"/>
    </contour>
    <contour>
      <point x="448" y="213" type="line"/>
      <point x="448" y="158" type="line"/>
      <point x="429" y="171"/>
      <point x="405" y="171" type="qcurve" smooth="yes"/>
      <point x="213" y="171" type="line"/>
      <point x="213" y="43" type="line"/>
      <point x="64" y="43" type="line"/>
      <point x="64" y="213" type="line"/>
    </contour>
    <contour>
      <point x="116" y="171"/>
      <point x="85" y="140"/>
      <point x="85" y="95"/>
      <point x="116" y="64"/>
      <point x="161" y="64"/>
      <point x="192" y="95"/>
      <point x="192" y="140"/>
      <point x="161" y="171"/>
      <point x="139" y="171" type="qcurve" smooth="yes"/>
    </contour>
    <contour>
      <point x="147" y="137"/>
      <point x="158" y="125"/>
      <point x="158" y="109"/>
      <point x="147" y="98"/>
      <point x="131" y="98"/>
      <point x="119" y="109"/>
      <point x="119" y="125"/>
      <point x="131" y="137"/>
      <point x="139" y="137" type="qcurve" smooth="yes"/>
    </contour>
    <contour>
      <point x="405" y="128" type="line" smooth="yes"/>
      <point x="423" y="128"/>
      <point x="448" y="103"/>
      <point x="448" y="85" type="qcurve" smooth="yes"/>
      <point x="448" y="43" type="line"/>
      <point x="256" y="43" type="line"/>
      <point x="256" y="128" type="line"/>
    </contour>
    <contour>
      <point x="116" y="384"/>
      <point x="85" y="353"/>
      <point x="85" y="308"/>
      <point x="116" y="277"/>
      <point x="161" y="277"/>
      <point x="192" y="308"/>
      <point x="192" y="353"/>
      <point x="161" y="384"/>
      <point x="139" y="384" type="qcurve" smooth="yes"/>
    </contour>
    <contour>
      <point x="147" y="350"/>
      <point x="158" y="339"/>
      <point x="158" y="323"/>
      <point x="147" y="311"/>
      <point x="131" y="311"/>
      <point x="119" y="323"/>
      <point x="119" y="339"/>
      <point x="131" y="350"/>
      <point x="139" y="350" type="qcurve" smooth="yes"/>
    </contour>
  </outline>
</glyph>
<glyph name="beer" format="2">
  <advance width="512"/>
  <unicode hex="F0098"/>
  <note>
beer
</note>
  <outline>
    <contour>
      <point x="128" y="-21" type="line"/>
      <point x="363" y="-21" type="line"/>
      <point x="405" y="405" type="line"/>
      <point x="85" y="405" type="line"/>
    </contour>
    <contour>
      <point x="358" y="363" type="line"/>
      <point x="352" y="294" type="line"/>
      <point x="322" y="282"/>
      <point x="296" y="280" type="qcurve" smooth="yes"/>
      <point x="256" y="277"/>
      <point x="235" y="299" type="qcurve" smooth="yes"/>
      <point x="206" y="328"/>
      <point x="159" y="313" type="qcurve"/>
      <point x="188" y="21" type="line"/>
      <point x="166" y="21" type="line"/>
      <point x="132" y="363" type="line"/>
    </contour>
  </outline>
</glyph>
<glyph name="bed-outline" format="2">
  <advance width="512"/>
  <unicode hex="F0099"/>
  <note>
bed-outline
</note>
  <outline>
    <contour>
      <point x="123" y="149"/>
      <point x="85" y="187"/>
      <point x="85" y="240"/>
      <point x="123" y="277"/>
      <point x="176" y="277"/>
      <point x="213" y="240"/>
      <point x="213" y="187"/>
      <point x="176" y="149"/>
      <point x="149" y="149" type="qcurve" smooth="yes"/>
    </contour>
    <contour>
      <point x="141" y="235"/>
      <point x="128" y="222"/>
      <point x="128" y="205"/>
      <point x="141" y="192"/>
      <point x="158" y="192"/>
      <point x="171" y="205"/>
      <point x="171" y="222"/>
      <point x="158" y="235"/>
      <point x="149" y="235" type="qcurve" smooth="yes"/>
    </contour>
    <contour>
      <point x="441" y="299"/>
      <point x="491" y="249"/>
      <point x="491" y="213" type="qcurve" smooth="yes"/>
      <point x="491" y="21" type="line"/>
      <point x="448" y="21" type="line"/>
      <point x="448" y="85" type="line"/>
      <point x="64" y="85" type="line"/>
      <point x="64" y="21" type="line"/>
      <point x="21" y="21" type="line"/>
      <point x="21" y="341" type="line"/>
      <point x="64" y="341" type="line"/>
      <point x="64" y="128" type="line"/>
      <point x="235" y="128" type="line"/>
      <point x="235" y="299" type="line"/>
      <point x="405" y="299" type="line" smooth="yes"/>
    </contour>
    <contour>
      <point x="448" y="213" type="line" smooth="yes"/>
      <point x="448" y="231"/>
      <point x="423" y="256"/>
      <point x="405" y="256" type="qcurve" smooth="yes"/>
      <point x="277" y="256" type="line"/>
      <point x="277" y="128" type="line"/>
      <point x="448" y="128" type="line"/>
    </contour>
  </outline>
</glyph>
<glyph name="bell-off" format="2">
  <advance width="512"/>
  <unicode hex="F009B"/>
  <note>
bell-off
</note>
  <outline>
    <contour>
      <point x="472" y="-10" type="line"/>
      <point x="51" y="411" type="line"/>
      <point x="24" y="384" type="line"/>
      <point x="124" y="283" type="line"/>
      <point x="107" y="250"/>
      <point x="107" y="213" type="qcurve" smooth="yes"/>
      <point x="107" y="85" type="line"/>
      <point x="64" y="43" type="line"/>
      <point x="64" y="21" type="line"/>
      <point x="386" y="21" type="line"/>
      <point x="445" y="-37" type="line"/>
    </contour>
    <contour>
      <point x="176" y="339" type="line"/>
      <point x="194" y="351"/>
      <point x="213" y="356" type="qcurve"/>
      <point x="213" y="363" type="line" smooth="yes"/>
      <point x="213" y="380"/>
      <point x="238" y="405"/>
      <point x="274" y="405"/>
      <point x="299" y="380"/>
      <point x="299" y="363" type="qcurve" smooth="yes"/>
      <point x="299" y="356" type="line"/>
      <point x="346" y="342"/>
      <point x="405" y="263"/>
      <point x="405" y="213" type="qcurve" smooth="yes"/>
      <point x="405" y="111" type="line"/>
    </contour>
    <contour>
      <point x="238" y="-43"/>
      <point x="213" y="-18"/>
      <point x="213" y="0" type="qcurve"/>
      <point x="299" y="0" type="line"/>
      <point x="299" y="-18"/>
      <point x="274" y="-43"/>
      <point x="256" y="-43" type="qcurve" smooth="yes"/>
    </contour>
  </outline>
</glyph>
<glyph name="bell-outline" format="2">
  <advance width="512"/>
  <unicode hex="F009C"/>
  <note>
bell-outline
</note>
  <outline>
    <contour>
      <point x="213" y="-18"/>
      <point x="238" y="-43"/>
      <point x="274" y="-43"/>
      <point x="299" y="-18"/>
      <point x="299" y="0" type="qcurve"/>
      <point x="213" y="0" type="line"/>
    </contour>
    <contour>
      <point x="405" y="85" type="line"/>
      <point x="405" y="213" type="line" smooth="yes"/>
      <point x="405" y="263"/>
      <point x="347" y="342"/>
      <point x="299" y="356" type="qcurve"/>
      <point x="299" y="363" type="line" smooth="yes"/>
      <point x="299" y="380"/>
      <point x="274" y="405"/>
      <point x="238" y="405"/>
      <point x="213" y="380"/>
      <point x="213" y="363" type="qcurve" smooth="yes"/>
      <point x="213" y="356" type="line"/>
      <point x="165" y="342"/>
      <point x="107" y="263"/>
      <point x="107" y="213" type="qcurve" smooth="yes"/>
      <point x="107" y="85" type="line"/>
      <point x="64" y="43" type="line"/>
      <point x="64" y="21" type="line"/>
      <point x="448" y="21" type="line"/>
      <point x="448" y="43" type="line"/>
    </contour>
    <contour>
      <point x="363" y="64" type="line"/>
      <point x="149" y="64" type="line"/>
      <point x="149" y="213" type="line" smooth="yes"/>
      <point x="149" y="243"/>
      <point x="178" y="292"/>
      <point x="227" y="320"/>
      <point x="285" y="320"/>
      <point x="334" y="292"/>
      <point x="363" y="243"/>
      <point x="363" y="213" type="qcurve" smooth="yes"/>
    </contour>
  </outline>
</glyph>
<glyph name="bell-ring-outline" format="2">
  <advance width="512"/>
  <unicode hex="F009F"/>
  <note>
bell-ring-outline
</note>
  <outline>
    <contour>
      <point x="213" y="-18"/>
      <point x="238" y="-43"/>
      <point x="274" y="-43"/>
      <point x="299" y="-18"/>
      <point x="299" y="0" type="qcurve"/>
      <point x="213" y="0" type="line"/>
    </contour>
    <contour>
      <point x="405" y="85" type="line"/>
      <point x="405" y="213" type="line" smooth="yes"/>
      <point x="405" y="263"/>
      <point x="346" y="342"/>
      <point x="299" y="356" type="qcurve"/>
      <point x="299" y="363" type="line" smooth="yes"/>
      <point x="299" y="380"/>
      <point x="274" y="405"/>
      <point x="238" y="405"/>
      <point x="213" y="380"/>
      <point x="213" y="363" type="qcurve" smooth="yes"/>
      <point x="213" y="356" type="line"/>
      <point x="166" y="342"/>
      <point x="107" y="263"/>
      <point x="107" y="213" type="qcurve" smooth="yes"/>
      <point x="107" y="85" type="line"/>
      <point x="64" y="43" type="line"/>
      <point x="64" y="21" type="line"/>
      <point x="448" y="21" type="line"/>
      <point x="448" y="43" type="line"/>
    </contour>
    <contour>
      <point x="363" y="64" type="line"/>
      <point x="149" y="64" type="line"/>
      <point x="149" y="213" type="line" smooth="yes"/>
      <point x="149" y="242"/>
      <point x="178" y="291"/>
      <point x="227" y="320"/>
      <point x="285" y="320"/>
      <point x="334" y="291"/>
      <point x="363" y="242"/>
      <point x="363" y="213" type="qcurve" smooth="yes"/>
    </contour>
    <contour>
      <point x="455" y="347"/>
      <point x="491" y="260"/>
      <point x="491" y="213" type="qcurve"/>
      <point x="448" y="213" type="line"/>
      <point x="448" y="252"/>
      <point x="418" y="323"/>
      <point x="391" y="350" type="qcurve"/>
      <point x="421" y="380" type="line"/>
    </contour>
    <contour>
      <point x="21" y="260"/>
      <point x="57" y="347"/>
      <point x="91" y="380" type="qcurve"/>
      <point x="121" y="350" type="line"/>
      <point x="94" y="323"/>
      <point x="64" y="252"/>
      <point x="64" y="213" type="qcurve"/>
      <point x="21" y="213" type="line"/>
    </contour>
  </outline>
</glyph>
<glyph name="beta" format="2">
  <advance width="512"/>
  <unicode hex="F00A1"/>
  <note>
beta
</note>
  <outline>
    <contour>
      <point x="225" y="60"/>
      <point x="259" y="60" type="qcurve" smooth="yes"/>
      <point x="307" y="60"/>
      <point x="365" y="113"/>
      <point x="365" y="155" type="qcurve" smooth="yes"/>
      <point x="365" y="191"/>
      <point x="323" y="236"/>
      <point x="283" y="243" type="qcurve"/>
      <point x="283" y="244" type="line"/>
      <point x="309" y="252"/>
      <point x="342" y="298"/>
      <point x="342" y="324" type="qcurve" smooth="yes"/>
      <point x="342" y="362"/>
      <point x="291" y="405"/>
      <point x="248" y="405" type="qcurve" smooth="yes"/>
      <point x="201" y="405"/>
      <point x="147" y="351"/>
      <point x="147" y="305" type="qcurve" smooth="yes"/>
      <point x="147" y="-45" type="line"/>
      <point x="197" y="-45" type="line"/>
      <point x="197" y="73" type="line"/>
    </contour>
    <contour>
      <point x="311" y="211"/>
      <point x="311" y="154" type="qcurve" smooth="yes"/>
      <point x="311" y="128"/>
      <point x="281" y="100"/>
      <point x="226" y="100"/>
      <point x="197" y="117" type="qcurve"/>
      <point x="197" y="305" type="line" smooth="yes"/>
      <point x="197" y="333"/>
      <point x="223" y="364"/>
      <point x="247" y="364" type="qcurve" smooth="yes"/>
      <point x="292" y="364"/>
      <point x="292" y="320" type="qcurve" smooth="yes"/>
      <point x="292" y="298"/>
      <point x="256" y="263"/>
      <point x="229" y="260" type="qcurve"/>
      <point x="229" y="219" type="line"/>
    </contour>
  </outline>
</glyph>
<glyph name="bike" format="2">
  <advance width="512"/>
  <unicode hex="F00A3"/>
  <note>
bike
</note>
  <outline>
    <contour>
      <point x="138" y="11"/>
      <point x="181" y="54"/>
      <point x="181" y="116"/>
      <point x="138" y="160"/>
      <point x="76" y="160"/>
      <point x="32" y="116"/>
      <point x="32" y="54"/>
      <point x="76" y="11"/>
      <point x="107" y="11" type="qcurve" smooth="yes"/>
    </contour>
    <contour>
      <point x="136" y="192"/>
      <point x="185" y="163"/>
      <point x="213" y="114"/>
      <point x="213" y="56"/>
      <point x="185" y="7"/>
      <point x="136" y="-21"/>
      <point x="78" y="-21"/>
      <point x="29" y="7"/>
      <point x="0" y="56"/>
      <point x="0" y="114"/>
      <point x="29" y="163"/>
      <point x="78" y="192"/>
      <point x="107" y="192" type="qcurve" smooth="yes"/>
    </contour>
    <contour>
      <point x="279" y="288" type="line"/>
      <point x="229" y="238" type="line"/>
      <point x="277" y="203" type="line"/>
      <point x="277" y="64" type="line"/>
      <point x="239" y="64" type="line"/>
      <point x="239" y="171" type="line"/>
      <point x="167" y="214" type="line" smooth="yes"/>
      <point x="149" y="225"/>
      <point x="149" y="245" type="qcurve" smooth="yes"/>
      <point x="149" y="260"/>
      <point x="160" y="271" type="qcurve" smooth="yes"/>
      <point x="239" y="350" type="line" smooth="yes"/>
      <point x="249" y="361"/>
      <point x="265" y="361" type="qcurve" smooth="yes"/>
      <point x="274" y="361"/>
      <point x="291" y="351"/>
      <point x="296" y="343" type="qcurve" smooth="yes"/>
      <point x="337" y="273" type="line"/>
      <point x="405" y="273" type="line"/>
      <point x="405" y="235" type="line"/>
      <point x="316" y="235" type="line"/>
    </contour>
    <contour>
      <point x="436" y="11"/>
      <point x="480" y="54"/>
      <point x="480" y="116"/>
      <point x="436" y="160"/>
      <point x="374" y="160"/>
      <point x="331" y="116"/>
      <point x="331" y="54"/>
      <point x="374" y="11"/>
      <point x="405" y="11" type="qcurve" smooth="yes"/>
    </contour>
    <contour>
      <point x="434" y="192"/>
      <point x="483" y="163"/>
      <point x="512" y="114"/>
      <point x="512" y="56"/>
      <point x="483" y="7"/>
      <point x="434" y="-21"/>
      <point x="376" y="-21"/>
      <point x="327" y="7"/>
      <point x="299" y="56"/>
      <point x="299" y="114"/>
      <point x="327" y="163"/>
      <point x="376" y="192"/>
      <point x="405" y="192" type="qcurve" smooth="yes"/>
    </contour>
    <contour>
      <point x="325" y="346"/>
      <point x="303" y="368"/>
      <point x="303" y="400"/>
      <point x="325" y="422"/>
      <point x="357" y="422"/>
      <point x="380" y="400"/>
      <point x="380" y="368"/>
      <point x="357" y="346"/>
      <point x="341" y="346" type="qcurve" smooth="yes"/>
    </contour>
  </outline>
</glyph>
<glyph name="microsoft-bing" format="2">
  <advance width="512"/>
  <unicode hex="F00A4"/>
  <note>
microsoft-bing
</note>
  <outline>
    <contour>
      <point x="186" y="357" type="line"/>
      <point x="186" y="87" type="line"/>
      <point x="297" y="149" type="line"/>
      <point x="243" y="174" type="line"/>
      <point x="208" y="257" type="line"/>
      <point x="384" y="198" type="line"/>
      <point x="384" y="111" type="line"/>
      <point x="186" y="0" type="line"/>
      <point x="107" y="43" type="line"/>
      <point x="107" y="384" type="line"/>
    </contour>
  </outline>
</glyph>
<glyph name="binoculars" format="2">
  <advance width="512"/>
  <unicode hex="F00A5"/>
  <note>
binoculars
</note>
  <outline>
    <contour>
      <point x="235" y="171" type="line"/>
      <point x="277" y="171" type="line"/>
      <point x="277" y="320" type="line"/>
      <point x="235" y="320" type="line"/>
    </contour>
    <contour>
      <point x="192" y="149" type="line"/>
      <point x="201" y="149"/>
      <point x="213" y="162"/>
      <point x="213" y="171" type="qcurve" smooth="yes"/>
      <point x="213" y="320" type="line"/>
      <point x="128" y="320" type="line"/>
      <point x="85" y="128" type="line"/>
      <point x="85" y="21" type="line" smooth="yes"/>
      <point x="85" y="12"/>
      <point x="98" y="0"/>
      <point x="107" y="0" type="qcurve" smooth="yes"/>
      <point x="171" y="0" type="line" smooth="yes"/>
      <point x="180" y="0"/>
      <point x="192" y="12"/>
      <point x="192" y="21" type="qcurve" smooth="yes"/>
    </contour>
    <contour>
      <point x="213" y="384" type="line"/>
      <point x="149" y="384" type="line"/>
      <point x="149" y="341" type="line"/>
      <point x="213" y="341" type="line"/>
    </contour>
    <contour>
      <point x="320" y="12"/>
      <point x="332" y="0"/>
      <point x="341" y="0" type="qcurve" smooth="yes"/>
      <point x="405" y="0" type="line" smooth="yes"/>
      <point x="414" y="0"/>
      <point x="427" y="12"/>
      <point x="427" y="21" type="qcurve" smooth="yes"/>
      <point x="427" y="128" type="line"/>
      <point x="384" y="320" type="line"/>
      <point x="299" y="320" type="line"/>
      <point x="299" y="171" type="line" smooth="yes"/>
      <point x="299" y="162"/>
      <point x="311" y="149"/>
      <point x="320" y="149" type="qcurve"/>
      <point x="320" y="21" type="line" smooth="yes"/>
    </contour>
    <contour>
      <point x="363" y="341" type="line"/>
      <point x="363" y="384" type="line"/>
      <point x="299" y="384" type="line"/>
      <point x="299" y="341" type="line"/>
    </contour>
  </outline>
</glyph>
<glyph name="bio" format="2">
  <advance width="512"/>
  <unicode hex="F00A6"/>
  <note>
bio
</note>
  <outline>
    <contour>
      <point x="345" y="192"/>
      <point x="320" y="167"/>
      <point x="320" y="149" type="qcurve" smooth="yes"/>
      <point x="320" y="85" type="line" smooth="yes"/>
      <point x="320" y="68"/>
      <point x="345" y="43"/>
      <point x="363" y="43" type="qcurve" smooth="yes"/>
      <point x="427" y="43" type="line" smooth="yes"/>
      <point x="444" y="43"/>
      <point x="469" y="68"/>
      <point x="469" y="85" type="qcurve" smooth="yes"/>
      <point x="469" y="149" type="line" smooth="yes"/>
      <point x="469" y="167"/>
      <point x="444" y="192"/>
      <point x="427" y="192" type="qcurve" smooth="yes"/>
      <point x="363" y="192" type="line" smooth="yes"/>
    </contour>
    <contour>
      <point x="427" y="149" type="line"/>
      <point x="427" y="85" type="line"/>
      <point x="363" y="85" type="line"/>
      <point x="363" y="149" type="line"/>
    </contour>
    <contour>
      <point x="43" y="43" type="line"/>
      <point x="149" y="43" type="line" smooth="yes"/>
      <point x="167" y="43"/>
      <point x="192" y="68"/>
      <point x="192" y="85" type="qcurve" smooth="yes"/>
      <point x="192" y="128" type="line" smooth="yes"/>
      <point x="192" y="146"/>
      <point x="167" y="171"/>
      <point x="149" y="171" type="qcurve"/>
      <point x="167" y="171"/>
      <point x="192" y="196"/>
      <point x="192" y="213" type="qcurve" smooth="yes"/>
      <point x="192" y="256" type="line" smooth="yes"/>
      <point x="192" y="274"/>
      <point x="167" y="299"/>
      <point x="149" y="299" type="qcurve" smooth="yes"/>
      <point x="43" y="299" type="line"/>
    </contour>
    <contour>
      <point x="149" y="256" type="line"/>
      <point x="149" y="192" type="line"/>
      <point x="85" y="192" type="line"/>
      <point x="85" y="256" type="line"/>
    </contour>
    <contour>
      <point x="85" y="149" type="line"/>
      <point x="149" y="149" type="line"/>
      <point x="149" y="85" type="line"/>
      <point x="85" y="85" type="line"/>
    </contour>
    <contour>
      <point x="235" y="43" type="line"/>
      <point x="277" y="43" type="line"/>
      <point x="277" y="171" type="line"/>
      <point x="235" y="171" type="line"/>
    </contour>
    <contour>
      <point x="235" y="213" type="line"/>
      <point x="277" y="213" type="line"/>
      <point x="277" y="256" type="line"/>
      <point x="235" y="256" type="line"/>
    </contour>
  </outline>
</glyph>
